<?xml version="1.0" standalone="no"?>
<!DOCTYPE svg PUBLIC "-//W3C//DTD SVG 1.1//EN" "http://www.w3.org/Graphics/SVG/1.1/DTD/svg11.dtd" >
<svg xmlns="http://www.w3.org/2000/svg" xmlns:xlink="http://www.w3.org/1999/xlink" version="1.1">
<metadata>
Created by FontForge 20170731 at Fri Jul 20 05:05:50 2012
 By Aleksey,,,
(c) 1999-2012 Typodermic Fonts Inc. See attached license agreement. If agreement is missing visit typodermicfonts.com for more info.
</metadata>
<defs>
<font id="CoolveticaRg-Regular" horiz-adv-x="498" >
  <font-face 
    font-family="Coolvetica Rg"
    font-weight="400"
    font-stretch="normal"
    units-per-em="1000"
    panose-1="2 11 6 3 3 6 2 2 0 4"
    ascent="767"
    descent="-233"
    x-height="492"
    cap-height="664"
    bbox="-235 -233 1103 921"
    underline-thickness="20"
    underline-position="-163"
    unicode-range="U+0017-FB02"
  />
<missing-glyph horiz-adv-x="452" 
d="M129 0q-97 0 -97 84v488q0 85 97 85h193q98 0 98 -85v-488q0 -84 -98 -84h-193zM368 572q0 39 -46 39h-193q-46 0 -46 -39v-488q0 -39 46 -39h193q46 0 46 39v488z" />
    <glyph glyph-name="copyright" unicode="&#x28;C&#x29;" horiz-adv-x="666" 
d="M333 -9q-66 0 -123.5 27t-101 73.5t-68.5 108.5t-25 133q0 70 25 132.5t68.5 108.5t101 73t123.5 27t124 -27t101 -73t68 -108.5t25 -132.5q0 -71 -25 -133t-68 -108.5t-101 -73.5t-124 -27zM335 44q55 0 104 22.5t85.5 61.5t58 91.5t21.5 112.5q0 59 -21.5 111.5t-58 92
t-85.5 62.5t-104 23q-56 0 -105 -23t-85 -62.5t-57 -92t-21 -111.5q0 -60 21 -112.5t57 -91.5t85 -61.5t105 -22.5zM390 369q-4 19 -17.5 29.5t-30.5 10.5q-25 0 -40 -20.5t-15 -52.5q0 -82 53 -82q18 0 32 11.5t16 32.5h72q-5 -45 -39.5 -73t-83.5 -28q-60 0 -91.5 35.5
t-31.5 95.5q0 66 32 102.5t94 36.5q52 0 85 -26.5t36 -71.5h-71z" />
    <glyph glyph-name="registered" unicode="&#x28;R&#x29;" horiz-adv-x="447" 
d="M425 494q0 -40 -15 -74.5t-41 -60.5t-61 -41t-75 -15t-74.5 15t-60.5 41t-41 60.5t-15 74.5t15 75t41 61t60.5 41t74.5 15t75 -15t61 -41t41 -61t15 -75zM394 494q0 33 -12.5 62.5t-34.5 51.5t-51.5 34.5t-62.5 12.5t-62.5 -12.5t-51.5 -34.5t-34.5 -51.5t-12.5 -62.5
t12.5 -62.5t34.5 -51.5t51.5 -34.5t62.5 -12.5t62.5 12.5t51.5 34.5t34.5 51.5t12.5 62.5zM204 560v-47h46q14 0 20.5 6.5t6.5 16.5q0 11 -6 17.5t-20 6.5h-47zM270 415v45q0 13 -5.5 18.5t-21.5 5.5h-39v-69h-36v175h89q25 0 39.5 -14.5t14.5 -36.5q0 -14 -6.5 -24.5
t-19.5 -15.5q12 -4 16.5 -11.5t4.5 -22.5v-50h-36z" />
    <glyph glyph-name="uni2117" unicode="&#x28;P&#x29;" horiz-adv-x="666" 
d="M333 -9q-66 0 -123.5 27t-101 73.5t-68.5 108.5t-25 133q0 70 25 132.5t68.5 108.5t101 73t123.5 27t124 -27t101 -73t68 -108.5t25 -132.5q0 -71 -25 -133t-68 -108.5t-101 -73.5t-124 -27zM335 44q55 0 104 22.5t85.5 61.5t58 91.5t21.5 112.5q0 59 -21.5 111.5t-58 92
t-85.5 62.5t-104 23q-56 0 -105 -23t-85 -62.5t-57 -92t-21 -111.5q0 -60 21 -112.5t57 -91.5t85 -61.5t105 -22.5zM355 342q29 0 41.5 14t12.5 35q0 20 -12.5 32.5t-41.5 12.5h-64v-94h64zM224 172v320h141q47 0 75 -30t28 -74t-28 -72t-75 -28h-74v-116h-67z" />
    <glyph glyph-name="uniE004" unicode="GT" horiz-adv-x="1108" 
d="M763 0v548h-140v116h480v-116h-201v-548h-139zM894 -14q0 -55 -15 -96t-41.5 -68.5t-62 -41t-76.5 -13.5q-44 0 -80 14.5t-62 41t-40 63t-14 81.5v81q-29 -38 -73.5 -54.5t-113.5 -16.5q-68 0 -123.5 27.5t-95 75.5t-61 113t-21.5 140q0 73 21 137.5t62 112.5t102 75.5
t142 27.5q59 0 110.5 -17t90 -47t62 -71.5t27.5 -91.5h-140q-3 23 -16 43.5t-33 35.5t-46.5 24t-54.5 9q-84 0 -134.5 -62.5t-50.5 -181.5q0 -54 13.5 -97.5t37.5 -73.5t58 -46t75 -16q34 0 63.5 12t51.5 33t34.5 48.5t12.5 58.5h-147v111h277v-384q0 -51 21 -71t49 -20
q32 0 51 25t19 79h121z" />
    <glyph glyph-name=".notdef" horiz-adv-x="452" 
d="M129 0q-97 0 -97 84v488q0 85 97 85h193q98 0 98 -85v-488q0 -84 -98 -84h-193zM368 572q0 39 -46 39h-193q-46 0 -46 -39v-488q0 -39 46 -39h193q46 0 46 39v488z" />
    <glyph glyph-name=".null" horiz-adv-x="0" 
 />
    <glyph glyph-name="nonmarkingreturn" horiz-adv-x="0" 
 />
    <glyph glyph-name="uni0017" horiz-adv-x="247" 
 />
    <glyph glyph-name="space" unicode=" " horiz-adv-x="247" 
 />
    <glyph glyph-name="exclam" unicode="!" horiz-adv-x="241" 
d="M52 0v131h135v-131h-135zM86 184q-20 120 -29.5 222t-9.5 187q0 20 0.5 38t4.5 33h138q2 -17 3 -35.5t1 -38.5q0 -83 -9.5 -184.5t-29.5 -221.5h-69z" />
    <glyph glyph-name="quotedbl" unicode="&#x22;" horiz-adv-x="264" 
d="M23 414zM23 414v250h89v-250h-89zM155 414v250h89v-250h-89z" />
    <glyph glyph-name="numbersign" unicode="#" horiz-adv-x="496" 
d="M295 390h-88l-16 -116h89zM242 0l27 189h-88l-24 -189h-85l24 189h-87l9 85h89l15 116h-87l10 85h88l26 189h83l-25 -189h89l24 189h86l-25 -189h88l-12 -85h-87l-15 -116h88l-10 -85h-89l-25 -189h-87z" />
    <glyph glyph-name="dollar" unicode="$" horiz-adv-x="477" 
d="M265 83q38 2 60.5 27t22.5 57q0 35 -22.5 59t-60.5 34v-177zM224 559q-37 -2 -58 -24t-21 -51q0 -30 20.5 -54.5t58.5 -29.5v159zM224 -55v39q-56 5 -95.5 19t-65 40t-37.5 64.5t-12 91.5h120q4 -32 10.5 -53t17 -34t25.5 -19.5t37 -9.5v193q-50 13 -87 29.5t-61.5 39
t-37 52t-12.5 70.5q0 39 15 73.5t41.5 60.5t62.5 41t79 16v44h41v-44q185 -6 194 -194h-118q-5 54 -23.5 73.5t-52.5 21.5v-172q67 -22 107.5 -43t62 -44.5t28.5 -51.5t7 -65q0 -44 -14.5 -79.5t-41.5 -61.5t-65 -41t-84 -17v-39h-41z" />
    <glyph glyph-name="percent" unicode="%" horiz-adv-x="660" 
d="M18 0zM133 384q24 0 35.5 28t11.5 96q0 69 -11.5 97.5t-35.5 28.5q-23 0 -35 -28t-12 -97t12 -97t35 -28zM131 331q-54 0 -83.5 42.5t-29.5 136.5t29.5 135t83.5 41t84.5 -41t30.5 -134t-30.5 -136.5t-84.5 -43.5zM67 -20l461 704h68l-462 -704h-67zM535 31q24 0 35.5 28
t11.5 96q0 69 -11.5 97.5t-35.5 28.5q-23 0 -35 -28t-12 -97t12 -97t35 -28zM533 -22q-54 0 -83.5 42.5t-29.5 136.5t29.5 135t83.5 41t84.5 -41t30.5 -134t-30.5 -136.5t-84.5 -43.5z" />
    <glyph glyph-name="ampersand" unicode="&#x26;" 
d="M355 381h125v-179q0 -51 -16.5 -92.5t-46 -71t-70.5 -45.5t-91 -16q-57 0 -101 16t-74.5 44t-46.5 66t-16 82q0 23 6 47.5t16.5 45.5t25.5 37t32 24q-77 40 -77 139q0 42 18 76t51 58.5t79 38t102 13.5v-109q-68 0 -95 -21.5t-27 -70.5q0 -42 28 -62t94 -20v-94
q-60 0 -93 -24.5t-33 -75.5q0 -21 6.5 -39.5t20 -32.5t34 -22.5t49.5 -8.5q100 0 100 118v179z" />
    <glyph glyph-name="quotesingle" unicode="'" horiz-adv-x="132" 
d="M23 414v250h89v-250h-89z" />
    <glyph glyph-name="parenleft" unicode="(" horiz-adv-x="322" 
d="M227 -143q-78 94 -119 209t-41 235q0 115 39 224.5t121 202.5h95q-61 -102 -91.5 -209.5t-30.5 -219.5t30.5 -223.5t91.5 -218.5h-95z" />
    <glyph glyph-name="parenright" unicode=")" horiz-adv-x="322" 
d="M8 -143q61 107 91.5 218.5t30.5 223.5t-30.5 219.5t-91.5 209.5h95q82 -93 121 -202.5t39 -224.5q0 -120 -41 -235t-119 -209h-95z" />
    <glyph glyph-name="asterisk" unicode="*" horiz-adv-x="534" 
d="M365 197l-98 129l-95 -129l-90 63l96 136l-146 46l33 101l143 -46v167h118v-167l143 46l36 -101l-148 -46l96 -136z" />
    <glyph glyph-name="plus" unicode="+" horiz-adv-x="518" 
d="M211 107v189h-188v94h188v188h94v-188h189v-94h-189v-189h-94z" />
    <glyph glyph-name="comma" unicode="," horiz-adv-x="184" 
d="M23 -106q38 10 57 34t20 72h-77v135h138v-102q0 -42 -7 -74t-23 -54.5t-42.5 -37.5t-65.5 -23v50z" />
    <glyph glyph-name="hyphen" unicode="-" horiz-adv-x="274" 
d="M13 257v101h248v-101h-248z" />
    <glyph glyph-name="period" unicode="." horiz-adv-x="184" 
d="M23 0v135h139v-135h-139z" />
    <glyph glyph-name="slash" unicode="/" horiz-adv-x="294" 
d="M-5 0l190 664h109l-192 -664h-107z" />
    <glyph glyph-name="zero" unicode="0" horiz-adv-x="485" 
d="M247 82q24 0 41.5 13.5t29 43t17.5 77t6 115.5q0 69 -6 117t-17.5 77.5t-29 43t-41.5 13.5t-41.5 -13t-29.5 -42.5t-18 -77t-6 -116.5t6 -117t18 -78t29.5 -43t41.5 -13zM243 -23q-54 0 -96 21t-71 64.5t-44 111t-15 161.5q0 93 15 159.5t44 109t71 62.5t96 20t96.5 -20
t72 -62t45.5 -108t16 -159q0 -185 -61.5 -272.5t-168.5 -87.5z" />
    <glyph glyph-name="one" unicode="1" horiz-adv-x="293" 
d="M140 0v459h-136v90q43 0 72 7t47.5 21.5t28 36t12.5 50.5h106v-664h-130z" />
    <glyph glyph-name="two" unicode="2" horiz-adv-x="460" 
d="M4 0q0 46 7.5 86t29 79t60.5 79t103 86q36 25 59.5 45t37.5 38t20 36t6 39q0 25 -7 42t-19.5 27t-29.5 14t-36 4q-45 0 -71 -25.5t-26 -92.5h-125q0 108 56.5 168.5t159.5 60.5q50 0 91.5 -12t71 -36t46 -60.5t16.5 -85.5q0 -38 -10 -69t-32.5 -61t-59.5 -61t-90 -69
q-38 -28 -64 -60.5t-28 -58.5h286v-113h-452z" />
    <glyph glyph-name="three" unicode="3" horiz-adv-x="474" 
d="M184 389q42 0 68.5 7.5t41 20t20 29t5.5 34.5q0 50 -20.5 76t-65.5 26q-38 0 -63 -28.5t-25 -80.5h-121q0 48 15.5 87t44 67t68 43.5t86.5 15.5q43 0 80.5 -13t65.5 -37t44 -57.5t16 -73.5q0 -45 -19.5 -85.5t-58.5 -63.5q48 -20 73.5 -60.5t25.5 -103.5q0 -50 -17 -90
t-48 -67.5t-74 -42.5t-95 -15q-104 0 -161 58t-57 160h125q0 -58 25 -84.5t74 -26.5q41 0 68 28.5t27 81.5q0 58 -33.5 81t-114.5 23v91z" />
    <glyph glyph-name="four" unicode="4" horiz-adv-x="471" 
d="M265 480l-136 -234h136v234zM262 0v145h-258v113l242 406h146v-418h75v-101h-75v-145h-130z" />
    <glyph glyph-name="five" unicode="5" horiz-adv-x="485" 
d="M28 261l14 403h409v-110h-293l-6 -178q26 28 60.5 37.5t71.5 9.5q40 0 75.5 -14t61 -40.5t40.5 -65.5t15 -89q0 -54 -17 -97.5t-47 -74.5t-72 -48t-93 -17q-45 0 -84.5 14.5t-69.5 40t-47.5 61t-19.5 78.5h130q4 -42 28 -65t63 -23q54 0 76.5 34t22.5 91q0 52 -22.5 81
t-68.5 29q-35 0 -57 -14.5t-36 -42.5h-134z" />
    <glyph glyph-name="six" unicode="6" horiz-adv-x="482" 
d="M246 82q22 0 39.5 9.5t29.5 26.5t18 40t6 50q0 57 -26 90.5t-69 33.5q-44 0 -71.5 -33.5t-27.5 -88.5q0 -57 26.5 -92.5t74.5 -35.5zM326 520q-5 62 -70 62q-54 0 -80.5 -51.5t-32.5 -158.5q23 27 54.5 44.5t81.5 17.5q39 0 73.5 -15t60 -43.5t40 -69t14.5 -92.5
q0 -51 -16 -94.5t-44.5 -75t-69 -49.5t-89.5 -18q-118 0 -175.5 84t-57.5 249q0 100 15.5 171t46 116.5t77 67t108.5 21.5q81 0 131.5 -42.5t61.5 -123.5h-129z" />
    <glyph glyph-name="seven" unicode="7" horiz-adv-x="473" 
d="M95 0q6 72 23 144t46.5 142t70 136.5t93.5 126.5h-324v115h465v-100q-112 -125 -172 -269.5t-68 -294.5h-134z" />
    <glyph glyph-name="eight" unicode="8" horiz-adv-x="490" 
d="M245 84q51 0 73.5 29t22.5 81q0 46 -23 75t-73 29t-72 -28t-22 -76q0 -52 21.5 -81t72.5 -29zM245 401q41 0 61 25t20 64q0 41 -20 65.5t-61 24.5t-61 -24.5t-20 -65.5q0 -39 20 -64t61 -25zM376 363q22 -10 40.5 -27.5t31.5 -39.5t20 -48t7 -54q0 -47 -14 -87t-42.5 -69
t-71.5 -45t-101 -16q-57 0 -100.5 16.5t-72.5 45t-43.5 67t-14.5 82.5q0 58 26 101t78 68q-41 21 -58 62.5t-17 83.5q0 39 15 72.5t42 58t64 38.5t81 14q49 0 86.5 -14t62.5 -38t37.5 -56.5t12.5 -70.5q0 -44 -15.5 -84t-53.5 -60z" />
    <glyph glyph-name="nine" unicode="9" horiz-adv-x="482" 
d="M238 331q44 0 71.5 33.5t27.5 88.5q0 57 -26.5 92.5t-74.5 35.5q-23 0 -40 -9.5t-29 -26.5t-18 -40t-6 -50q0 -57 26 -90.5t69 -33.5zM156 143q5 -62 70 -62q54 0 80.5 51.5t32.5 158.5q-23 -27 -54.5 -44.5t-81.5 -17.5q-39 0 -73.5 15t-60 43.5t-40 69t-14.5 92.5
q0 51 16 94.5t44.5 75t69 49.5t89.5 18q118 0 175.5 -84t57.5 -249q0 -100 -15.5 -171t-46 -116.5t-77 -67t-108.5 -21.5q-81 0 -131.5 42.5t-61.5 123.5h129z" />
    <glyph glyph-name="colon" unicode=":" horiz-adv-x="168" 
d="M14 0v135h138v-135h-138zM14 339v134h138v-134h-138z" />
    <glyph glyph-name="semicolon" unicode=";" horiz-adv-x="154" 
d="M10 -106q38 10 57 34t20 72h-77v135h138v-102q0 -42 -7 -74t-23 -54.5t-42.5 -37.5t-65.5 -23v50zM10 339v134h138v-134h-138z" />
    <glyph glyph-name="less" unicode="&#x3c;" horiz-adv-x="518" 
d="M23 296v94l471 200v-104l-365 -143l365 -143v-104z" />
    <glyph glyph-name="equal" unicode="=" horiz-adv-x="518" 
d="M23 396v94h471v-94h-471zM23 196v94h471v-94h-471z" />
    <glyph glyph-name="greater" unicode="&#x3e;" horiz-adv-x="518" 
d="M23 96v104l365 143l-365 143v104l471 -200v-94z" />
    <glyph glyph-name="question" unicode="?" horiz-adv-x="486" 
d="M179 0v131h135v-131h-135zM183 193q0 59 9 95t35 66q15 18 34 31t35 27.5t27 32.5t11 47q0 49 -27 68.5t-64 19.5q-53 0 -73 -29.5t-25 -79.5h-129q0 49 16 89t45.5 68t71 43t91.5 15q108 0 170.5 -44t62.5 -143q0 -32 -6.5 -56t-19.5 -43.5t-32 -36.5t-43 -35
q-22 -17 -35.5 -31.5t-20.5 -30.5t-9 -33.5t-2 -39.5h-122z" />
    <glyph glyph-name="at" unicode="@" horiz-adv-x="708" 
d="M336 154q45 0 72 43t27 110q0 41 -17.5 63t-51.5 22q-44 0 -74.5 -36t-30.5 -116q0 -42 16.5 -64t58.5 -22zM646 -15q-29 -25 -98 -46.5t-184 -21.5q-86 0 -151 25.5t-109 71t-66.5 109t-22.5 138.5q0 79 24 146t69.5 115.5t111 76t148.5 27.5q66 0 125 -16t103.5 -51
t70.5 -90t26 -132q0 -65 -16 -114.5t-41 -83t-56 -50.5t-62 -17q-42 0 -64 15.5t-27 37.5q-16 -27 -43.5 -38.5t-62.5 -11.5q-39 0 -66.5 14t-45 37t-25.5 52.5t-8 61.5q0 48 13 89.5t37.5 71.5t59 47.5t77.5 17.5q35 0 61 -15.5t37 -47.5l13 53h78l-52 -247q-6 -27 -6 -36
q0 -10 7.5 -14.5t15.5 -4.5q17 0 35 11t33 32.5t24.5 54t9.5 75.5q0 62 -17.5 106t-50.5 71.5t-79.5 40.5t-104.5 13q-67 0 -118.5 -25.5t-86 -66.5t-52.5 -93.5t-18 -106.5q0 -134 73 -204t205 -70q88 0 151 14t94 37z" />
    <glyph glyph-name="A" unicode="A" horiz-adv-x="638" 
d="M319 515h-1l-85 -264h169zM484 0l-42 137h-245l-47 -137h-147l237 664h161l234 -664h-151z" />
    <glyph glyph-name="B" unicode="B" horiz-adv-x="570" 
d="M333 113q48 0 75 27t27 68q0 44 -26.5 64t-73.5 20h-178v-179h176zM157 549v-144h175q84 0 84 72q0 38 -21.5 55t-70.5 17h-167zM23 0v664h327q98 0 149 -48.5t51 -132.5q0 -43 -23 -76.5t-58 -47.5q21 -8 39.5 -20.5t32 -32t21.5 -46t8 -62.5q0 -91 -61 -144.5
t-187 -53.5h-299z" />
    <glyph glyph-name="C" unicode="C" horiz-adv-x="608" 
d="M608 228q-11 -57 -35 -103t-60.5 -79t-84.5 -51t-106 -18q-65 0 -121.5 22t-97.5 66t-64.5 108.5t-23.5 150.5q0 84 21.5 151.5t61.5 114t97.5 71.5t128.5 25q62 0 112.5 -18.5t87 -51t58 -76.5t26.5 -94h-139q-14 57 -54 88.5t-90 31.5q-87 0 -128 -62.5t-41 -171.5
q0 -111 40.5 -172.5t121.5 -61.5q62 0 99.5 33.5t51.5 96.5h139z" />
    <glyph glyph-name="D" unicode="D" horiz-adv-x="602" 
d="M273 113q91 0 132 56.5t41 169.5q0 56 -10 96t-32.5 65.5t-57.5 37t-85 11.5h-103v-436h115zM23 0v664h257q67 0 124 -22.5t97.5 -64.5t63.5 -102t23 -136t-20.5 -138.5t-58.5 -107t-91 -69t-117 -24.5h-278z" />
    <glyph glyph-name="E" unicode="E" horiz-adv-x="527" 
d="M23 0v664h488v-116h-353v-142h325v-117h-325v-171h369v-118h-504z" />
    <glyph glyph-name="F" unicode="F" horiz-adv-x="500" 
d="M162 280v-280h-139v664h473v-116h-334v-151h292v-117h-292z" />
    <glyph glyph-name="G" unicode="G" horiz-adv-x="659" 
d="M518 0l-3 66q-24 -42 -77 -65.5t-122 -23.5t-124.5 29.5t-95 79t-60.5 114t-21 133.5q0 73 21 137.5t62 112.5t102 75.5t142 27.5q59 0 110.5 -17t90 -47t62 -71.5t27.5 -91.5h-140q-3 23 -16 43.5t-33 35.5t-46.5 24t-54.5 9q-84 0 -134.5 -62.5t-50.5 -181.5
q0 -41 10.5 -82.5t33 -75t57.5 -54.5t83 -21q34 0 63.5 12t51.5 33t34.5 48.5t12.5 58.5h-147v111h277v-357h-115z" />
    <glyph glyph-name="H" unicode="H" horiz-adv-x="582" 
d="M421 0v298h-259v-298h-139v664h139v-250h259v250h140v-664h-140z" />
    <glyph glyph-name="I" unicode="I" horiz-adv-x="184" 
d="M23 0v664h139v-664h-139z" />
    <glyph glyph-name="J" unicode="J" horiz-adv-x="449" 
d="M288 664h139v-485q0 -91 -55 -146.5t-163 -55.5q-97 0 -151 51.5t-54 154.5v68h126v-61q0 -51 18 -75.5t61 -24.5q48 0 63.5 23.5t15.5 78.5v472z" />
    <glyph glyph-name="K" unicode="K" horiz-adv-x="600" 
d="M431 0l-197 299l-74 -73v-226h-137v664h137v-270l254 270h180l-262 -262l268 -402h-169z" />
    <glyph glyph-name="L" unicode="L" horiz-adv-x="496" 
d="M23 0v664h139v-543h329v-121h-468z" />
    <glyph glyph-name="M" unicode="M" horiz-adv-x="690" 
d="M537 0v455l-124 -455h-138l-123 453v-453h-129v664h204l120 -487l120 487h200v-664h-130z" />
    <glyph glyph-name="N" unicode="N" horiz-adv-x="586" 
d="M436 0l-284 446v-446h-129v664h147l264 -427v427h130v-664h-128z" />
    <glyph glyph-name="O" unicode="O" horiz-adv-x="666" 
d="M334 96q37 0 70 13.5t57.5 41t38.5 70.5t14 102q0 118 -46 179t-134 61t-135 -61t-47 -179t47.5 -172.5t134.5 -54.5zM334 -23q-154 0 -236.5 90t-82.5 259q0 84 21 151t62 113.5t100 71t136 24.5q76 0 135.5 -24.5t99.5 -71.5t61 -114.5t21 -152.5q0 -172 -81.5 -259
t-235.5 -87z" />
    <glyph glyph-name="P" unicode="P" horiz-adv-x="529" 
d="M294 354q60 0 86.5 27.5t26.5 71.5q0 42 -26.5 69t-86.5 27h-132v-195h132zM23 0v664h293q49 0 88 -16.5t67 -46t43 -68.5t15 -84t-15 -83.5t-43 -66t-67 -43t-88 -15.5h-154v-241h-139z" />
    <glyph glyph-name="Q" unicode="Q" horiz-adv-x="666" 
d="M664 -14q0 -48 -15 -88t-42 -69t-64 -45.5t-81 -16.5q-41 0 -76 14.5t-60 41t-39 63.5t-14 81v21q-125 17 -191.5 101.5t-66.5 236.5q0 84 21 151t62 113.5t100 71t136 24.5q76 0 135.5 -24.5t99.5 -71.5t61 -114.5t21 -152.5q0 -60 -16.5 -115t-48 -99t-78 -74
t-106.5 -39q0 -57 20 -82.5t52 -25.5q29 0 48.5 24.5t19.5 73.5h122zM334 96q37 0 70 13.5t57.5 41t38.5 70.5t14 102q0 118 -46 179t-134 61t-135 -61t-47 -179t47.5 -172.5t134.5 -54.5z" />
    <glyph glyph-name="R" unicode="R" horiz-adv-x="573" 
d="M158 549v-177h174q56 0 79 25t23 63q0 39 -22.5 64t-74.5 25h-179zM410 0v171q0 48 -22 68.5t-82 20.5h-148v-260h-135v664h337q46 0 83.5 -14.5t64.5 -40t41.5 -61t14.5 -76.5q0 -54 -25.5 -95.5t-73.5 -58.5q44 -14 62.5 -43t18.5 -87v-188h-136z" />
    <glyph glyph-name="S" unicode="S" horiz-adv-x="558" 
d="M399 468q-5 51 -37 76t-96 25q-118 0 -118 -81q0 -29 24.5 -48.5t78.5 -32.5q64 -15 111 -28t86 -30q22 -9 41.5 -22.5t33 -33.5t21.5 -48t8 -68q0 -48 -20 -85t-54 -62.5t-80 -39t-97 -13.5q-145 0 -218 56t-77 166h134q1 -51 41.5 -80.5t101.5 -29.5q66 0 100 24t34 65
q0 16 -4 29.5t-15.5 24.5t-31.5 19.5t-52 15.5q-76 16 -131.5 32.5t-91.5 41t-53 59.5t-17 89q0 41 15 77t46 62.5t76.5 42t107.5 15.5q60 0 108 -15.5t82.5 -44t53.5 -69t21 -89.5h-132z" />
    <glyph glyph-name="T" unicode="T" horiz-adv-x="549" 
d="M204 0v548h-200v116h540v-116h-201v-548h-139z" />
    <glyph glyph-name="U" unicode="U" horiz-adv-x="581" 
d="M416 664h142v-443q0 -121 -71 -182.5t-202 -61.5q-121 0 -191.5 58t-70.5 178v451h141v-438q0 -62 31 -98t88 -36q133 0 133 129v443z" />
    <glyph glyph-name="V" unicode="V" horiz-adv-x="588" 
d="M228 0l-225 664h148l145 -466l144 466h144l-225 -664h-131z" />
    <glyph glyph-name="W" unicode="W" horiz-adv-x="852" 
d="M529 0l-103 432l-105 -432h-130l-188 664h148l109 -430l92 430h146l101 -430l108 430h142l-186 -664h-134z" />
    <glyph glyph-name="X" unicode="X" horiz-adv-x="600" 
d="M427 0l-127 228l-134 -228h-162l215 339l-203 325h164l120 -215l121 215h161l-202 -319l216 -345h-169z" />
    <glyph glyph-name="Y" unicode="Y" horiz-adv-x="597" 
d="M233 0v251l-230 413h162l140 -270l129 270h160l-222 -415v-249h-139z" />
    <glyph glyph-name="Z" unicode="Z" horiz-adv-x="527" 
d="M4 0v118l345 430h-335v116h509v-109l-347 -437h347v-118h-519z" />
    <glyph glyph-name="bracketleft" unicode="[" horiz-adv-x="314" 
d="M72 -130v849h228v-89h-113v-673h113v-87h-228z" />
    <glyph glyph-name="backslash" unicode="\" horiz-adv-x="288" 
d="M187 0l-192 664h109l190 -664h-107z" />
    <glyph glyph-name="bracketright" unicode="]" horiz-adv-x="312" 
d="M10 -130v87h115v673h-115v89h230v-849h-230z" />
    <glyph glyph-name="asciicircum" unicode="^" horiz-adv-x="454" 
d="M301 473l-73 87l-75 -87h-138l165 191h93l167 -191h-139z" />
    <glyph glyph-name="underscore" unicode="_" horiz-adv-x="482" 
d="M0 -126v58h485v-58h-485z" />
    <glyph glyph-name="grave" unicode="`" horiz-adv-x="354" 
d="M50 648l47 82l207 -121l-31 -55z" />
    <glyph glyph-name="a" unicode="a" horiz-adv-x="481" 
d="M325 241q-10 -10 -29 -16t-55 -13q-56 -11 -77 -28t-21 -49q0 -55 63 -55q25 0 46.5 8.5t37 23t25 34t9.5 41.5zM334 0q-6 19 -8 44q-23 -26 -61 -41.5t-88 -15.5q-85 0 -124.5 37.5t-39.5 97.5q0 53 17 84.5t47 49.5t71.5 26.5t90.5 15.5t66 18.5t17 37.5
q0 24 -22.5 37.5t-60.5 13.5q-45 0 -64.5 -20t-24.5 -53h-121q1 38 12.5 70t37 55t66.5 35.5t100 12.5q58 0 98.5 -13t65 -37.5t35.5 -61t11 -82.5v-311h-121z" />
    <glyph glyph-name="b" unicode="b" horiz-adv-x="519" 
d="M259 93q49 0 80 41.5t31 107.5q0 152 -112 152q-109 0 -109 -160q0 -63 31.5 -102t78.5 -39zM26 0v672h128v-244q55 77 146 77q48 0 85.5 -18.5t63.5 -52.5t39.5 -80.5t13.5 -102.5q0 -62 -16 -111t-44 -83t-67.5 -52t-85.5 -18q-92 0 -137 73l-1 -60h-125z" />
    <glyph glyph-name="c" unicode="c" horiz-adv-x="476" 
d="M469 178q-5 -43 -24.5 -78t-49.5 -60t-68.5 -39t-83.5 -14q-50 0 -91.5 16.5t-71.5 50t-46.5 83t-16.5 115.5t16.5 114t46.5 78.5t72.5 45.5t94.5 15q48 0 87.5 -13t69 -38t46.5 -60t20 -78h-131q-5 38 -30.5 59.5t-62.5 21.5q-21 0 -39 -7t-31.5 -23.5t-21.5 -44
t-8 -67.5q0 -81 29 -120t67 -39t65 21t31 61h131z" />
    <glyph glyph-name="d" unicode="d" horiz-adv-x="518" 
d="M259 93q47 0 78.5 39t31.5 102q0 160 -109 160q-112 0 -112 -152q0 -66 31 -107.5t80 -41.5zM367 0l-1 60q-45 -73 -137 -73q-47 0 -86 18t-67 52t-44 83t-16 111q0 56 13.5 102.5t39.5 80.5t63.5 52.5t85.5 18.5q91 0 146 -77v244h128v-672h-125z" />
    <glyph glyph-name="e" unicode="e" 
d="M350 294q-1 27 -9.5 47.5t-22.5 34t-32 20t-37 6.5q-39 0 -67.5 -28.5t-32.5 -79.5h201zM145 212q3 -56 32.5 -89t77.5 -33q32 0 56.5 14.5t31.5 40.5h134q-23 -76 -80 -117t-136 -41q-246 0 -246 268q0 57 16 103t46.5 79t74.5 50.5t101 17.5q114 0 172.5 -73t58.5 -220
h-339z" />
    <glyph glyph-name="f" unicode="f" horiz-adv-x="289" 
d="M77 0v400h-73v92h73q0 180 209 180v-105q-25 0 -40.5 -3.5t-24.5 -12.5t-12.5 -23.5t-3.5 -35.5h84v-92h-84v-400h-128z" />
    <glyph glyph-name="g" unicode="g" horiz-adv-x="525" 
d="M262 98q48 0 79.5 36.5t31.5 99.5q0 158 -111 158t-111 -150q0 -66 31.5 -105t79.5 -39zM369 66q-14 -33 -50.5 -51.5t-84.5 -18.5q-61 0 -102.5 21.5t-67 56.5t-37 81t-11.5 94q0 57 17 104.5t46 81t68 52t84 18.5q92 0 138 -74v61h130v-497q0 -56 -19 -98.5t-52 -71
t-78 -43.5t-96 -15t-95 14.5t-75.5 41t-49.5 64.5t-18 86h121q0 -45 29.5 -69.5t78.5 -24.5q52 0 88 28.5t36 77.5v81z" />
    <glyph glyph-name="h" unicode="h" 
d="M341 0v305q0 56 -19.5 76.5t-64.5 20.5q-24 0 -43 -9.5t-32 -26t-19.5 -38t-6.5 -46.5v-282h-130v672h130v-244q7 16 21.5 30.5t33.5 24.5t42 16t48 6q76 0 123.5 -41.5t47.5 -115.5v-348h-131z" />
    <glyph glyph-name="i" unicode="i" horiz-adv-x="188" 
d="M29 0v492h130v-492h-130zM29 551v121h130v-121h-130z" />
    <glyph glyph-name="j" unicode="j" horiz-adv-x="183" 
d="M26 492h131v-525q0 -45 -15 -81.5t-41 -63t-61.5 -41t-76.5 -14.5q-101 0 -149.5 55.5t-48.5 150.5h122q0 -42 15.5 -66.5t53.5 -24.5q39 0 54.5 24t15.5 66v520zM26 551v121h131v-121h-131z" />
    <glyph glyph-name="k" unicode="k" horiz-adv-x="478" 
d="M328 0l-108 221l-63 -65v-156h-131v672h131v-367l162 187h159l-165 -181l161 -311h-146z" />
    <glyph glyph-name="l" unicode="l" horiz-adv-x="181" 
d="M26 0v672h130v-672h-130z" />
    <glyph glyph-name="m" unicode="m" horiz-adv-x="756" 
d="M603 0v298q0 45 -21 73t-56 28q-36 0 -59.5 -30t-23.5 -75v-294h-130v296q0 30 -4 49t-13.5 30t-24.5 15.5t-36 4.5q-79 0 -79 -96v-299h-130v492h122v-72q25 49 60 67t84 18q25 0 44.5 -4t35 -13.5t29.5 -24.5t28 -36q20 41 53 59.5t80 18.5q37 0 68 -12.5t53 -35
t34.5 -52.5t12.5 -64v-341h-127z" />
    <glyph glyph-name="n" unicode="n" 
d="M341 0v298q0 57 -19 77t-65 20q-101 0 -101 -113v-282h-130v492h124v-72q23 42 61 63.5t98 21.5q35 0 65 -10.5t51.5 -31.5t34 -51.5t12.5 -70.5v-341h-131z" />
    <glyph glyph-name="o" unicode="o" horiz-adv-x="534" 
d="M268 96q119 0 119 150q0 149 -119 149t-119 -149q0 -150 119 -150zM268 -13q-60 0 -107 19t-79.5 53t-49.5 82t-17 105q0 58 17.5 106t50.5 82t79.5 52.5t105.5 18.5q58 0 104 -18.5t78.5 -52t50 -81.5t17.5 -107t-17.5 -106.5t-50 -81.5t-79 -52.5t-103.5 -18.5z" />
    <glyph glyph-name="p" unicode="p" horiz-adv-x="518" 
d="M258 98q112 0 112 152q0 66 -31 107.5t-80 41.5q-47 0 -78.5 -39t-31.5 -102q0 -160 109 -160zM26 -233v725h125l1 -60q45 73 137 73q46 0 85.5 -18t67.5 -52t44 -83t16 -111q0 -56 -13.5 -102.5t-39.5 -80.5t-63.5 -52.5t-85.5 -18.5q-91 0 -146 77v-297h-128z" />
    <glyph glyph-name="q" unicode="q" horiz-adv-x="518" 
d="M735 -27q0 -48 -14.5 -86t-39.5 -64.5t-59 -41t-74 -14.5t-74 15t-59 42t-39 65t-14 83v89q-55 -74 -144 -74q-48 0 -85.5 18.5t-63.5 52.5t-39.5 80.5t-13.5 102.5q0 62 16 111t44 83t67 52t86 18q92 0 137 -73l1 60h125v-521q0 -51 16.5 -70t47.5 -19q29 0 43 21t14 70
h122zM260 98q109 0 109 160q0 63 -31.5 102t-78.5 39q-49 0 -80 -41.5t-31 -107.5q0 -152 112 -152z" />
    <glyph glyph-name="r" unicode="r" horiz-adv-x="315" 
d="M26 0v492h122v-59q16 25 33.5 39t36 21.5t37.5 9.5t39 2h17v-133q-18 3 -36 3q-119 0 -119 -119v-256h-130z" />
    <glyph glyph-name="s" unicode="s" horiz-adv-x="467" 
d="M322 343q-5 34 -25.5 49.5t-62.5 15.5q-40 0 -60.5 -9.5t-20.5 -32.5q0 -20 20.5 -32t59.5 -23q64 -18 108 -30.5t70.5 -29.5t38 -42.5t11.5 -68.5q0 -66 -55 -109.5t-163 -43.5q-53 0 -96 12t-73.5 34.5t-47 54t-17.5 70.5h134q0 -35 27.5 -54t71.5 -19q37 0 63.5 11.5
t26.5 35.5q0 27 -19.5 39t-59.5 21q-72 16 -116 33.5t-68.5 38.5t-33 46t-8.5 56q0 28 11.5 53t36.5 44t65 30.5t98 11.5q106 0 155 -43t54 -119h-125z" />
    <glyph glyph-name="t" unicode="t" horiz-adv-x="447" 
d="M305 324h121v-140q0 -39 -11.5 -74.5t-36 -63t-62 -43.5t-89.5 -16q-54 0 -92 16t-62.5 43t-35.5 63t-11 76v440h128v-133h272v-92h-272v-202q0 -47 17.5 -72.5t57.5 -25.5q39 0 57.5 25t18.5 71v128z" />
    <glyph glyph-name="u" unicode="u" horiz-adv-x="495" 
d="M346 0v69q-50 -82 -153 -82q-37 0 -67.5 13t-52.5 37t-34.5 57t-12.5 74v324h130v-304q0 -92 83 -92q50 0 75.5 31.5t25.5 80.5v284h129v-492h-123z" />
    <glyph glyph-name="v" unicode="v" horiz-adv-x="496" 
d="M179 0l-176 492h145l103 -325l104 325h137l-177 -492h-136z" />
    <glyph glyph-name="w" unicode="w" horiz-adv-x="710" 
d="M432 0l-78 286l-78 -286h-133l-140 492h137l80 -316l68 316h132l77 -316l75 316h134l-141 -492h-133z" />
    <glyph glyph-name="x" unicode="x" horiz-adv-x="491" 
d="M329 0l-86 148l-84 -148h-156l165 251l-160 241h157l83 -143l84 143h151l-163 -241l168 -251h-159z" />
    <glyph glyph-name="y" unicode="y" horiz-adv-x="495" 
d="M339 65q-14 -33 -50.5 -51.5t-82.5 -18.5q-39 0 -72 12.5t-57 36t-37.5 56t-13.5 73.5v319h130v-300q0 -92 83 -92q45 0 72.5 26t27.5 66v300h130v-505q0 -52 -17.5 -93t-48 -69t-72 -43t-88.5 -15q-109 0 -163 55t-54 151h121q0 -44 25.5 -69t76.5 -25q18 0 34 7.5
t28.5 21t20 33.5t7.5 44v80z" />
    <glyph glyph-name="z" unicode="z" horiz-adv-x="440" 
d="M9 0v100l251 289h-234v103h400v-105l-251 -281h258v-106h-424z" />
    <glyph glyph-name="braceleft" unicode="{" horiz-adv-x="329" 
d="M277 -131q-54 0 -87.5 9.5t-52 29t-24.5 49.5t-6 70q0 9 1 26t1.5 36t1.5 35.5t1 23.5q0 58 -17.5 81t-64.5 23v86q47 0 64.5 23.5t17.5 81.5q0 7 -1 23.5t-1.5 34.5t-1.5 35t-1 26q0 40 6 70t24.5 49.5t52 29t87.5 9.5h37v-82h-22q-44 0 -59.5 -14t-15.5 -49
q0 -45 3 -89t3 -89q0 -21 -9 -38.5t-23.5 -31t-34 -21.5t-40.5 -11q21 -3 40.5 -11t34 -21.5t23.5 -31t9 -38.5q0 -45 -3 -89.5t-3 -89.5q0 -35 15.5 -49t59.5 -14h22v-82h-37z" />
    <glyph glyph-name="bar" unicode="|" horiz-adv-x="334" 
d="M116 -125v861h102v-861h-102z" />
    <glyph glyph-name="braceright" unicode="}" horiz-adv-x="325" 
d="M10 -131v82h22q44 0 59.5 14t15.5 49q0 45 -3 89.5t-3 89.5q0 21 9 38.5t23.5 31t34 21.5t40.5 11q-21 3 -40.5 11t-34 21.5t-23.5 31t-9 38.5q0 45 3 89t3 89q0 35 -15.5 49t-59.5 14h-22v82h37q54 0 87.5 -9.5t52 -29t24.5 -49.5t6 -70q0 -9 -1 -26t-1.5 -35
t-1.5 -34.5t-1 -23.5q0 -58 17.5 -81.5t64.5 -23.5v-86q-47 0 -64.5 -23t-17.5 -81q0 -7 1 -23.5t1.5 -35.5t1.5 -36t1 -26q0 -40 -6 -70t-24.5 -49.5t-52 -29t-87.5 -9.5h-37z" />
    <glyph glyph-name="asciitilde" unicode="~" horiz-adv-x="550" 
d="M525 305q-32 -35 -67 -51t-81 -16q-30 0 -57.5 9t-54 20t-52.5 20t-52 9q-42 0 -74 -19t-62 -57v101q22 26 54 46.5t78 20.5q36 0 66.5 -9t57.5 -19.5t52 -19.5t50 -9q42 0 76.5 16.5t65.5 58.5v-101z" />
    <glyph glyph-name="nonbreakingspace" unicode="&#xa0;" horiz-adv-x="247" 
 />
    <glyph glyph-name="exclamdown" unicode="&#xa1;" horiz-adv-x="241" 
d="M47 0zM189.003 664v-130.992h-134.991v130.992h134.991zM155.005 480.012q19.999 -119.993 29.499 -221.987q9.49902 -101.993 9.49902 -186.988q0 -19.999 -0.5 -37.998q-0.5 -17.998 -4.5 -32.9971h-137.991q-2 16.998 -3 35.4971t-1 38.498q0 82.9951 9.5 184.488
q9.49902 101.494 29.498 221.487h68.9951z" />
    <glyph glyph-name="cent" unicode="&#xa2;" horiz-adv-x="476" 
d="M222 0v70q-46 3 -84 21.5t-65 51.5t-41.5 81t-14.5 111q0 124 56 185t149 68v76h47v-76q87 -6 141 -56t60 -132h-131q-5 32 -23.5 52t-46.5 25v-296q28 7 47 27.5t22 52.5h131q-5 -39 -22 -72.5t-43 -58t-60.5 -40t-74.5 -19.5v-71h-47zM222 478q-33 -7 -54.5 -39
t-21.5 -101q0 -71 22 -109.5t54 -47.5v297z" />
    <glyph glyph-name="sterling" unicode="&#xa3;" horiz-adv-x="477" 
d="M26 0v484q0 91 55 146.5t163 55.5q48 0 87 -9.5t66 -33t42 -62.5t15 -99v-77h-131v76q0 46 -15 68.5t-64 22.5q-25 0 -40.5 -5.5t-24 -16.5t-11.5 -28t-3 -40v-133h290v-82h-290v-146h290v-121h-429z" />
    <glyph glyph-name="currency" unicode="&#xa4;" horiz-adv-x="536" 
d="M380 164q-25 -15 -53 -23.5t-59 -8.5t-59.5 8.5t-52.5 23.5l-63 -68l-72 72l68 63q-15 24 -23.5 52.5t-8.5 59.5t8.5 59t23.5 53l-67 62l71 71l61 -66q25 16 53.5 24.5t60.5 8.5q31 0 59.5 -8.5t53.5 -24.5l61 66l71 -71l-66 -61q16 -25 24.5 -53.5t8.5 -59.5
q0 -63 -33 -113l67 -62l-71 -72zM416 343q0 31 -11.5 58t-31.5 47t-47 31.5t-58 11.5t-57.5 -11.5t-46.5 -31.5t-31.5 -47t-11.5 -58t11.5 -57.5t31.5 -46.5t46.5 -31.5t57.5 -11.5t58 11.5t47 31.5t31.5 46.5t11.5 57.5z" />
    <glyph glyph-name="yen" unicode="&#xa5;" horiz-adv-x="529" 
d="M319 80v-80h-108v80h-145v76h145v61h-145v75h145v66l-194 306h117l130 -219l131 219h116l-192 -306v-66h145v-75h-145v-61h145v-76h-145z" />
    <glyph glyph-name="brokenbar" unicode="&#xa6;" horiz-adv-x="334" 
d="M116 -125v411h102v-411h-102zM218 339h-102v397h102v-397z" />
    <glyph glyph-name="section" unicode="&#xa7;" horiz-adv-x="528" 
d="M364 492q-5 44 -31.5 64.5t-80.5 20.5q-100 0 -100 -68q0 -24 20.5 -40.5t66.5 -27.5q54 -13 93.5 -24t72.5 -25q19 -8 35 -19.5t28 -28t18.5 -40.5t6.5 -57q0 -34 -12 -61.5t-33 -48.5q17 -17 27 -43.5t10 -68.5q0 -40 -17 -71.5t-45.5 -53t-67 -32.5t-81.5 -11
q-243 0 -249 187h113q1 -43 35 -68t85 -25q56 0 84.5 20.5t28.5 54.5q0 28 -16.5 46t-69.5 29q-65 14 -112 28t-77 34.5t-44 50t-14 74.5q0 33 11.5 62t34.5 51q-20 20 -29.5 45.5t-9.5 63.5q0 35 13 65t38.5 52.5t64.5 35.5t91 13q102 0 161 -50t62 -134h-111zM344 190
q35 19 35 58q0 28 -16.5 46t-70.5 29q-27 5 -52.5 12t-47.5 14q-47 -15 -47 -62q0 -24 20.5 -40.5t65.5 -27.5q34 -8 61.5 -14.5t51.5 -14.5z" />
    <glyph glyph-name="dieresis" unicode="&#xa8;" horiz-adv-x="430" 
d="M50 579v124h130v-124h-130zM250 579v124h130v-124h-130z" />
    <glyph glyph-name="ordfeminine" unicode="&#xaa;" horiz-adv-x="325" 
d="M209 433q-9 -10 -25.5 -13.5t-33 -7.5t-29 -12t-12.5 -26q0 -30 34 -30q29 0 46.5 17.5t18.5 41.5zM214 300q-4 12 -5 24q-13 -14 -33.5 -22.5t-48.5 -8.5q-46 0 -68 20.5t-22 53.5q0 29 9 46.5t25.5 27.5t39.5 14.5t50 8.5t36.5 10.5t9.5 20.5q0 13 -12.5 20.5
t-33.5 7.5q-24 0 -35 -11t-14 -29h-66q1 42 27.5 68.5t91.5 26.5t90 -28t25 -79v-171h-66z" />
    <glyph glyph-name="guillemotleft" unicode="&#xab;" horiz-adv-x="464" 
d="M13 145zM13 317l143 174l63 -68l-94 -106l94 -105l-63 -67zM245 317l143 174l63 -68l-94 -106l94 -105l-63 -67z" />
    <glyph glyph-name="logicalnot" unicode="&#xac;" horiz-adv-x="584" 
d="M440 0v374h-415v118h533v-492h-118z" />
    <glyph glyph-name="macron" unicode="&#xaf;" horiz-adv-x="481" 
d="M50 602v91h381v-91h-381z" />
    <glyph glyph-name="degree" unicode="&#xb0;" horiz-adv-x="368" 
d="M183 355q-41 0 -69.5 12.5t-46.5 34t-26.5 50.5t-8.5 62t8.5 62t26.5 50.5t46.5 33.5t69.5 12q40 0 69 -12t47.5 -33.5t27 -50.5t8.5 -62t-8.5 -62t-27 -50.5t-47.5 -34t-69 -12.5zM183 418q45 0 64 28.5t19 68.5t-19 68t-64 28t-64 -28t-19 -68t19 -68.5t64 -28.5z" />
    <glyph glyph-name="plusminus" unicode="&#xb1;" horiz-adv-x="518" 
d="M23 0zM211 107v189h-188v94h188v188h94v-188h189v-94h-189v-189h-94zM23 -13v94h471v-94h-471z" />
    <glyph glyph-name="twosuperior" unicode="&#xb2;" horiz-adv-x="260" 
d="M17 343zM17 343q0 23 3.5 43t14.5 39.5t30.5 39.5t51.5 43q35 26 48 42t13 37q0 25 -13 34t-33 9q-22 0 -35 -12.5t-13 -46.5h-63q0 54 28.5 84.5t79.5 30.5t82 -24t31 -73q0 -19 -5 -34.5t-16.5 -30.5t-29.5 -30.5t-45 -34.5q-20 -14 -32.5 -30.5t-13.5 -29.5h143v-56
h-226z" />
    <glyph glyph-name="threesuperior" unicode="&#xb3;" horiz-adv-x="267" 
d="M21 331zM107 537q42 0 54.5 13.5t12.5 32.5q0 51 -43 51q-19 0 -31.5 -14.5t-12.5 -40.5h-60q0 48 29.5 77.5t77.5 29.5q43 0 73 -25t30 -66q0 -23 -9.5 -43t-29.5 -31q23 -10 36 -30t13 -52q0 -51 -32 -79.5t-85 -28.5q-52 0 -80.5 29t-28.5 80h63q0 -55 49 -55
q20 0 34 14.5t14 40.5q0 29 -16.5 40.5t-57.5 11.5v45z" />
    <glyph glyph-name="acute" unicode="&#xb4;" horiz-adv-x="354" 
d="M81 554l-31 55l207 121l47 -82z" />
    <glyph glyph-name="paragraph" unicode="&#xb6;" horiz-adv-x="576" 
d="M408 -100v696h-162v-696h-109v564q-62 9 -86 40t-24 68q0 24 9.5 44.5t30 36t51.5 24.5t74 9h372l-48 -91v-695h-108z" />
    <glyph glyph-name="periodcentered" unicode="&#xb7;" horiz-adv-x="184" 
d="M23 265v135h139v-135h-139z" />
    <glyph glyph-name="cedilla" unicode="&#xb8;" horiz-adv-x="215" 
d="M50 -190q62 5 64 65h-64v82h115v-54q0 -27 -5.5 -50.5t-18.5 -41.5t-35.5 -29.5t-55.5 -14.5v43z" />
    <glyph glyph-name="onesuperior" unicode="&#xb9;" horiz-adv-x="176" 
d="M17 343zM85 343v229h-68v45q43 0 60 14.5t20 43.5h53v-332h-65z" />
    <glyph glyph-name="ordmasculine" unicode="&#xba;" horiz-adv-x="354" 
d="M177 353q66 0 66 82t-66 82q-65 0 -65 -82t65 -82zM177 293q-66 0 -102.5 39.5t-36.5 102.5q0 65 37.5 104t101.5 39t101 -38.5t37 -104.5q0 -64 -37 -103t-101 -39z" />
    <glyph glyph-name="guillemotright" unicode="&#xbb;" horiz-adv-x="464" 
d="M13 145zM13 212l94 105l-94 106l63 68l143 -174l-143 -172zM245 212l94 105l-94 106l63 68l143 -174l-143 -172z" />
    <glyph glyph-name="onequarter" unicode="&#xbc;" horiz-adv-x="607" 
d="M17 0zM105 343v229h-68v45q43 0 60 14.5t20 43.5h53v-332h-65zM17 -20l461 704h68l-462 -704h-67zM494 230l-68 -117h68v117zM493 -10v72h-129v57l121 203h73v-209h37v-51h-37v-72h-65z" />
    <glyph glyph-name="onehalf" unicode="&#xbd;" horiz-adv-x="602" 
d="M17 0zM105 343v229h-68v45q43 0 60 14.5t20 43.5h53v-332h-65zM17 -20l461 704h68l-462 -704h-67zM364 -10q0 23 3.5 43t14.5 39.5t30.5 39.5t51.5 43q35 26 48 42t13 37q0 25 -13 34t-33 9q-22 0 -35 -12.5t-13 -46.5h-63q0 54 28.5 84.5t79.5 30.5t82 -24t31 -73
q0 -19 -5 -34.5t-16.5 -30.5t-29.5 -30.5t-45 -34.5q-20 -14 -32.5 -30.5t-13.5 -29.5h143v-56h-226z" />
    <glyph glyph-name="threequarters" unicode="&#xbe;" horiz-adv-x="634" 
d="M18 0zM104 537q42 0 54.5 13.5t12.5 32.5q0 51 -43 51q-19 0 -31.5 -14.5t-12.5 -40.5h-60q0 48 29.5 77.5t77.5 29.5q43 0 73 -25t30 -66q0 -23 -9.5 -43t-29.5 -31q23 -10 36 -30t13 -52q0 -51 -32 -79.5t-85 -28.5q-52 0 -80.5 29t-28.5 80h63q0 -55 49 -55
q20 0 34 14.5t14 40.5q0 29 -16.5 40.5t-57.5 11.5v45zM64 -20l461 704h68l-462 -704h-67zM521 230l-68 -117h68v117zM520 -10v72h-129v57l121 203h73v-209h37v-51h-37v-72h-65z" />
    <glyph glyph-name="questiondown" unicode="&#xbf;" horiz-adv-x="486" 
d="M12 0zM306.011 664v-130.992h-134.991v130.992h134.991zM302.011 471.012q0 -58.9961 -8.99902 -94.9941t-34.998 -65.9961q-14.999 -17.999 -33.998 -30.998q-18.998 -12.999 -34.998 -27.498q-15.998 -14.499 -26.998 -32.498q-10.999 -17.999 -10.999 -46.9971
q0 -48.9971 26.998 -68.4961q26.999 -19.499 63.9961 -19.499q52.9971 0 72.9961 29.498q19.998 29.499 24.998 79.4951h128.992q0 -48.9971 -15.999 -88.9941t-45.4971 -67.9961q-29.498 -27.998 -70.9961 -42.9971q-41.4971 -14.999 -91.4941 -14.999
q-107.993 0 -170.489 43.9971t-62.4961 142.991q0 31.998 6.49902 55.9971q6.5 23.998 19.499 43.4971t31.998 36.498t42.9971 34.9971q21.999 16.999 35.498 31.499q13.499 14.499 20.499 30.498q6.99902 15.999 8.99902 33.498q2 17.498 2 39.4971h121.992z" />
    <glyph glyph-name="Agrave" unicode="&#xc0;" horiz-adv-x="638" 
d="M3 0zM319 515h-1l-85 -264h169zM484 0l-42 137h-245l-47 -137h-147l237 664h161l234 -664h-151zM162 820l47 82l207 -121l-31 -55z" />
    <glyph glyph-name="Aacute" unicode="&#xc1;" horiz-adv-x="638" 
d="M3 0zM319 515h-1l-85 -264h169zM484 0l-42 137h-245l-47 -137h-147l237 664h161l234 -664h-151zM253 726l-31 55l207 121l47 -82z" />
    <glyph glyph-name="Acircumflex" unicode="&#xc2;" horiz-adv-x="638" 
d="M3 0zM319 515h-1l-85 -264h169zM484 0l-42 137h-245l-47 -137h-147l237 664h161l234 -664h-151zM319 851l-135 -118l-46 51l128 134h106l128 -134l-46 -51z" />
    <glyph glyph-name="Atilde" unicode="&#xc3;" horiz-adv-x="638" 
d="M3 0zM319 515h-1l-85 -264h169zM484 0l-42 137h-245l-47 -137h-147l237 664h161l234 -664h-151zM491 846q-17 -54 -47 -76t-62 -22q-19 0 -35.5 7t-31.5 15.5t-30 15.5t-31 7q-6 0 -18 -8t-21 -36l-69 37q16 49 41 68.5t56 19.5q23 0 41 -7.5t34 -16.5t30 -16.5t28 -7.5
q9 0 22 10.5t18 36.5z" />
    <glyph glyph-name="Adieresis" unicode="&#xc4;" horiz-adv-x="638" 
d="M3 0zM319 515h-1l-85 -264h169zM484 0l-42 137h-245l-47 -137h-147l237 664h161l234 -664h-151zM154 751v124h130v-124h-130zM354 751v124h130v-124h-130z" />
    <glyph glyph-name="Aring" unicode="&#xc5;" horiz-adv-x="638" 
d="M3 0zM319 515h-1l-85 -264h169zM484 0l-42 137h-245l-47 -137h-147l237 664h161l234 -664h-151zM423 822q0 -47 -24 -71.5t-80 -24.5q-104 0 -104 96q0 46 25.5 71t78.5 25q56 0 80 -25t24 -71zM371 822q0 51 -52 51q-50 0 -50 -51q0 -49 50 -49q52 0 52 49z" />
    <glyph glyph-name="AE" unicode="&#xc6;" horiz-adv-x="881" 
d="M374 0v137h-177l-47 -137h-147l237 664h625v-116h-353v-142h325v-117h-325v-171h369v-118h-507zM374 548h-44l-97 -297h141v297z" />
    <glyph glyph-name="Ccedilla" unicode="&#xc7;" horiz-adv-x="608" 
d="M15 0zM608 228q-11 -57 -35 -103t-60.5 -79t-84.5 -51t-106 -18q-65 0 -121.5 22t-97.5 66t-64.5 108.5t-23.5 150.5q0 84 21.5 151.5t61.5 114t97.5 71.5t128.5 25q62 0 112.5 -18.5t87 -51t58 -76.5t26.5 -94h-139q-14 57 -54 88.5t-90 31.5q-87 0 -128 -62.5
t-41 -171.5q0 -111 40.5 -172.5t121.5 -61.5q62 0 99.5 33.5t51.5 96.5h139zM263 -190q62 5 64 65h-64v82h115v-54q0 -27 -5.5 -50.5t-18.5 -41.5t-35.5 -29.5t-55.5 -14.5v43z" />
    <glyph glyph-name="Egrave" unicode="&#xc8;" horiz-adv-x="527" 
d="M23 0zM23 0v664h488v-116h-353v-142h325v-117h-325v-171h369v-118h-504zM106 820l47 82l207 -121l-31 -55z" />
    <glyph glyph-name="Eacute" unicode="&#xc9;" horiz-adv-x="527" 
d="M23 0zM23 0v664h488v-116h-353v-142h325v-117h-325v-171h369v-118h-504zM197 726l-31 55l207 121l47 -82z" />
    <glyph glyph-name="Ecircumflex" unicode="&#xca;" horiz-adv-x="527" 
d="M23 0zM23 0v664h488v-116h-353v-142h325v-117h-325v-171h369v-118h-504zM263 851l-135 -118l-46 51l128 134h106l128 -134l-46 -51z" />
    <glyph glyph-name="Edieresis" unicode="&#xcb;" horiz-adv-x="527" 
d="M23 0zM23 0v664h488v-116h-353v-142h325v-117h-325v-171h369v-118h-504zM98 751v124h130v-124h-130zM298 751v124h130v-124h-130z" />
    <glyph glyph-name="Igrave" unicode="&#xcc;" horiz-adv-x="184" 
d="M0 0zM23 0v664h139v-664h-139zM-64 820l47 82l207 -121l-31 -55z" />
    <glyph glyph-name="Iacute" unicode="&#xcd;" horiz-adv-x="184" 
d="M0 0zM23 0v664h139v-664h-139zM27 726l-31 55l207 121l47 -82z" />
    <glyph glyph-name="Icircumflex" unicode="&#xce;" horiz-adv-x="184" 
d="M0 0zM23 0v664h139v-664h-139zM93 851l-135 -118l-46 51l128 134h106l128 -134l-46 -51z" />
    <glyph glyph-name="Idieresis" unicode="&#xcf;" horiz-adv-x="184" 
d="M0 0zM23 0v664h139v-664h-139zM-72 751v124h130v-124h-130zM128 751v124h130v-124h-130z" />
    <glyph glyph-name="Eth" unicode="&#xd0;" horiz-adv-x="602" 
d="M23 0v282h-23v99h23v283h257q67 0 124 -22.5t97.5 -64.5t63.5 -102t23 -136t-20.5 -138.5t-58.5 -107t-91 -69t-117 -24.5h-278zM273 113q91 0 132 56.5t41 169.5q0 56 -10 96t-32.5 65.5t-57.5 37t-85 11.5h-103v-168h107v-99h-107v-169h115z" />
    <glyph glyph-name="Ntilde" unicode="&#xd1;" horiz-adv-x="586" 
d="M23 0zM436 0l-284 446v-446h-129v664h147l264 -427v427h130v-664h-128zM465 846q-17 -54 -47 -76t-62 -22q-19 0 -35.5 7t-31.5 15.5t-30 15.5t-31 7q-6 0 -18 -8t-21 -36l-69 37q16 49 41 68.5t56 19.5q23 0 41 -7.5t34 -16.5t30 -16.5t28 -7.5q9 0 22 10.5t18 36.5z
" />
    <glyph glyph-name="Ograve" unicode="&#xd2;" horiz-adv-x="666" 
d="M15 0zM334 96q37 0 70 13.5t57.5 41t38.5 70.5t14 102q0 118 -46 179t-134 61t-135 -61t-47 -179t47.5 -172.5t134.5 -54.5zM334 -23q-154 0 -236.5 90t-82.5 259q0 84 21 151t62 113.5t100 71t136 24.5q76 0 135.5 -24.5t99.5 -71.5t61 -114.5t21 -152.5
q0 -172 -81.5 -259t-235.5 -87zM176 820l47 82l207 -121l-31 -55z" />
    <glyph glyph-name="Oacute" unicode="&#xd3;" horiz-adv-x="666" 
d="M15 0zM334 96q37 0 70 13.5t57.5 41t38.5 70.5t14 102q0 118 -46 179t-134 61t-135 -61t-47 -179t47.5 -172.5t134.5 -54.5zM334 -23q-154 0 -236.5 90t-82.5 259q0 84 21 151t62 113.5t100 71t136 24.5q76 0 135.5 -24.5t99.5 -71.5t61 -114.5t21 -152.5
q0 -172 -81.5 -259t-235.5 -87zM267 726l-31 55l207 121l47 -82z" />
    <glyph glyph-name="Ocircumflex" unicode="&#xd4;" horiz-adv-x="666" 
d="M15 0zM334 96q37 0 70 13.5t57.5 41t38.5 70.5t14 102q0 118 -46 179t-134 61t-135 -61t-47 -179t47.5 -172.5t134.5 -54.5zM334 -23q-154 0 -236.5 90t-82.5 259q0 84 21 151t62 113.5t100 71t136 24.5q76 0 135.5 -24.5t99.5 -71.5t61 -114.5t21 -152.5
q0 -172 -81.5 -259t-235.5 -87zM333 851l-135 -118l-46 51l128 134h106l128 -134l-46 -51z" />
    <glyph glyph-name="Otilde" unicode="&#xd5;" horiz-adv-x="666" 
d="M15 0zM334 96q37 0 70 13.5t57.5 41t38.5 70.5t14 102q0 118 -46 179t-134 61t-135 -61t-47 -179t47.5 -172.5t134.5 -54.5zM334 -23q-154 0 -236.5 90t-82.5 259q0 84 21 151t62 113.5t100 71t136 24.5q76 0 135.5 -24.5t99.5 -71.5t61 -114.5t21 -152.5
q0 -172 -81.5 -259t-235.5 -87zM505 846q-17 -54 -47 -76t-62 -22q-19 0 -35.5 7t-31.5 15.5t-30 15.5t-31 7q-6 0 -18 -8t-21 -36l-69 37q16 49 41 68.5t56 19.5q23 0 41 -7.5t34 -16.5t30 -16.5t28 -7.5q9 0 22 10.5t18 36.5z" />
    <glyph glyph-name="Odieresis" unicode="&#xd6;" horiz-adv-x="666" 
d="M15 0zM334 96q37 0 70 13.5t57.5 41t38.5 70.5t14 102q0 118 -46 179t-134 61t-135 -61t-47 -179t47.5 -172.5t134.5 -54.5zM334 -23q-154 0 -236.5 90t-82.5 259q0 84 21 151t62 113.5t100 71t136 24.5q76 0 135.5 -24.5t99.5 -71.5t61 -114.5t21 -152.5
q0 -172 -81.5 -259t-235.5 -87zM168 751v124h130v-124h-130zM368 751v124h130v-124h-130z" />
    <glyph glyph-name="multiply" unicode="&#xd7;" horiz-adv-x="518" 
d="M391 143l-134 133l-133 -133l-66 67l133 133l-133 133l66 66l133 -133l134 134l66 -67l-133 -133l133 -134z" />
    <glyph glyph-name="Oslash" unicode="&#xd8;" horiz-adv-x="666" 
d="M111 -14l24 48q-59 44 -89.5 117t-30.5 175q0 84 21 151t62 113.5t100 71t136 24.5q33 0 62.5 -5t56.5 -14l24 48l74 -27l-28 -56q63 -45 95.5 -123t32.5 -186q0 -172 -81.5 -259t-235.5 -87q-38 0 -71 5.5t-62 16.5l-20 -40zM257 109q32 -13 77 -13q37 0 70 13.5
t57.5 41t38.5 70.5t14 102q0 126 -53 187zM396 553q-14 5 -29.5 7.5t-32.5 2.5q-88 0 -135 -61t-47 -179q0 -111 44 -167z" />
    <glyph glyph-name="Ugrave" unicode="&#xd9;" horiz-adv-x="581" 
d="M23 0zM416 664h142v-443q0 -121 -71 -182.5t-202 -61.5q-121 0 -191.5 58t-70.5 178v451h141v-438q0 -62 31 -98t88 -36q133 0 133 129v443zM133 820l47 82l207 -121l-31 -55z" />
    <glyph glyph-name="Uacute" unicode="&#xda;" horiz-adv-x="581" 
d="M23 0zM416 664h142v-443q0 -121 -71 -182.5t-202 -61.5q-121 0 -191.5 58t-70.5 178v451h141v-438q0 -62 31 -98t88 -36q133 0 133 129v443zM224 726l-31 55l207 121l47 -82z" />
    <glyph glyph-name="Ucircumflex" unicode="&#xdb;" horiz-adv-x="581" 
d="M23 0zM416 664h142v-443q0 -121 -71 -182.5t-202 -61.5q-121 0 -191.5 58t-70.5 178v451h141v-438q0 -62 31 -98t88 -36q133 0 133 129v443zM290 851l-135 -118l-46 51l128 134h106l128 -134l-46 -51z" />
    <glyph glyph-name="Udieresis" unicode="&#xdc;" horiz-adv-x="581" 
d="M23 0zM416 664h142v-443q0 -121 -71 -182.5t-202 -61.5q-121 0 -191.5 58t-70.5 178v451h141v-438q0 -62 31 -98t88 -36q133 0 133 129v443zM125 751v124h130v-124h-130zM325 751v124h130v-124h-130z" />
    <glyph glyph-name="Yacute" unicode="&#xdd;" horiz-adv-x="597" 
d="M3 0zM233 0v251l-230 413h162l140 -270l129 270h160l-222 -415v-249h-139zM237 726l-31 55l207 121l47 -82z" />
    <glyph glyph-name="Thorn" unicode="&#xde;" horiz-adv-x="529" 
d="M294 251q49 0 81 27.5t32 70.5q0 42 -30.5 69t-82.5 27h-132v-194h132zM162 137v-137h-139v664h139v-103h167q44 0 80.5 -17t63 -46t41.5 -68t15 -84t-15 -83.5t-42 -66.5t-64.5 -43.5t-83.5 -15.5h-162z" />
    <glyph glyph-name="germandbls" unicode="&#xdf;" horiz-adv-x="505" 
d="M218 96q7 -1 14 -1.5t14 -0.5q57 0 90 31.5t33 80.5q0 33 -10.5 55.5t-29 36t-45 20t-58.5 7.5v82q31 1 50.5 7.5t31 17.5t16 26t4.5 33q0 47 -26 65.5t-61 18.5q-36 0 -61.5 -20t-25.5 -64v-491h-128v498q0 40 13.5 73.5t41 57.5t68.5 37t97 13q55 0 95 -13t66.5 -36
t39 -55t12.5 -70q0 -28 -5.5 -48t-15 -34t-21.5 -24t-25 -18q32 -14 52.5 -32.5t32 -39.5t16 -45.5t4.5 -50.5q0 -53 -15.5 -94.5t-44.5 -71t-70 -45t-92 -15.5q-38 0 -57 4v105z" />
    <glyph glyph-name="agrave" unicode="&#xe0;" horiz-adv-x="481" 
d="M13 0zM325 241q-10 -10 -29 -16t-55 -13q-56 -11 -77 -28t-21 -49q0 -55 63 -55q25 0 46.5 8.5t37 23t25 34t9.5 41.5zM334 0q-6 19 -8 44q-23 -26 -61 -41.5t-88 -15.5q-85 0 -124.5 37.5t-39.5 97.5q0 53 17 84.5t47 49.5t71.5 26.5t90.5 15.5t66 18.5t17 37.5
q0 24 -22.5 37.5t-60.5 13.5q-45 0 -64.5 -20t-24.5 -53h-121q1 38 12.5 70t37 55t66.5 35.5t100 12.5q58 0 98.5 -13t65 -37.5t35.5 -61t11 -82.5v-311h-121zM83 648l47 82l207 -121l-31 -55z" />
    <glyph glyph-name="aacute" unicode="&#xe1;" horiz-adv-x="481" 
d="M13 0zM325 241q-10 -10 -29 -16t-55 -13q-56 -11 -77 -28t-21 -49q0 -55 63 -55q25 0 46.5 8.5t37 23t25 34t9.5 41.5zM334 0q-6 19 -8 44q-23 -26 -61 -41.5t-88 -15.5q-85 0 -124.5 37.5t-39.5 97.5q0 53 17 84.5t47 49.5t71.5 26.5t90.5 15.5t66 18.5t17 37.5
q0 24 -22.5 37.5t-60.5 13.5q-45 0 -64.5 -20t-24.5 -53h-121q1 38 12.5 70t37 55t66.5 35.5t100 12.5q58 0 98.5 -13t65 -37.5t35.5 -61t11 -82.5v-311h-121zM174 554l-31 55l207 121l47 -82z" />
    <glyph glyph-name="acircumflex" unicode="&#xe2;" horiz-adv-x="481" 
d="M13 0zM325 241q-10 -10 -29 -16t-55 -13q-56 -11 -77 -28t-21 -49q0 -55 63 -55q25 0 46.5 8.5t37 23t25 34t9.5 41.5zM334 0q-6 19 -8 44q-23 -26 -61 -41.5t-88 -15.5q-85 0 -124.5 37.5t-39.5 97.5q0 53 17 84.5t47 49.5t71.5 26.5t90.5 15.5t66 18.5t17 37.5
q0 24 -22.5 37.5t-60.5 13.5q-45 0 -64.5 -20t-24.5 -53h-121q1 38 12.5 70t37 55t66.5 35.5t100 12.5q58 0 98.5 -13t65 -37.5t35.5 -61t11 -82.5v-311h-121zM240 679l-135 -118l-46 51l128 134h106l128 -134l-46 -51z" />
    <glyph glyph-name="atilde" unicode="&#xe3;" horiz-adv-x="481" 
d="M13 0zM325 241q-10 -10 -29 -16t-55 -13q-56 -11 -77 -28t-21 -49q0 -55 63 -55q25 0 46.5 8.5t37 23t25 34t9.5 41.5zM334 0q-6 19 -8 44q-23 -26 -61 -41.5t-88 -15.5q-85 0 -124.5 37.5t-39.5 97.5q0 53 17 84.5t47 49.5t71.5 26.5t90.5 15.5t66 18.5t17 37.5
q0 24 -22.5 37.5t-60.5 13.5q-45 0 -64.5 -20t-24.5 -53h-121q1 38 12.5 70t37 55t66.5 35.5t100 12.5q58 0 98.5 -13t65 -37.5t35.5 -61t11 -82.5v-311h-121zM413 674q-17 -54 -47 -76t-62 -22q-19 0 -35.5 7t-31.5 15.5t-30 15.5t-31 7q-6 0 -18 -8t-21 -36l-69 37
q16 49 41 68.5t56 19.5q23 0 41 -7.5t34 -16.5t30 -16.5t28 -7.5q9 0 22 10.5t18 36.5z" />
    <glyph glyph-name="adieresis" unicode="&#xe4;" horiz-adv-x="481" 
d="M13 0zM325 241q-10 -10 -29 -16t-55 -13q-56 -11 -77 -28t-21 -49q0 -55 63 -55q25 0 46.5 8.5t37 23t25 34t9.5 41.5zM334 0q-6 19 -8 44q-23 -26 -61 -41.5t-88 -15.5q-85 0 -124.5 37.5t-39.5 97.5q0 53 17 84.5t47 49.5t71.5 26.5t90.5 15.5t66 18.5t17 37.5
q0 24 -22.5 37.5t-60.5 13.5q-45 0 -64.5 -20t-24.5 -53h-121q1 38 12.5 70t37 55t66.5 35.5t100 12.5q58 0 98.5 -13t65 -37.5t35.5 -61t11 -82.5v-311h-121zM75 579v124h130v-124h-130zM275 579v124h130v-124h-130z" />
    <glyph glyph-name="aring" unicode="&#xe5;" horiz-adv-x="481" 
d="M13 0zM325 241q-10 -10 -29 -16t-55 -13q-56 -11 -77 -28t-21 -49q0 -55 63 -55q25 0 46.5 8.5t37 23t25 34t9.5 41.5zM334 0q-6 19 -8 44q-23 -26 -61 -41.5t-88 -15.5q-85 0 -124.5 37.5t-39.5 97.5q0 53 17 84.5t47 49.5t71.5 26.5t90.5 15.5t66 18.5t17 37.5
q0 24 -22.5 37.5t-60.5 13.5q-45 0 -64.5 -20t-24.5 -53h-121q1 38 12.5 70t37 55t66.5 35.5t100 12.5q58 0 98.5 -13t65 -37.5t35.5 -61t11 -82.5v-311h-121zM344 650q0 -47 -24 -71.5t-80 -24.5q-104 0 -104 96q0 46 25.5 71t78.5 25q56 0 80 -25t24 -71zM292 650
q0 51 -52 51q-50 0 -50 -51q0 -49 50 -49q52 0 52 49z" />
    <glyph glyph-name="ae" unicode="&#xe6;" horiz-adv-x="806" 
d="M455 212q3 -56 32.5 -89t77.5 -33q32 0 56.5 14.5t31.5 40.5h134q-23 -76 -80 -117t-136 -41q-56 0 -108.5 18t-89.5 65q-36 -42 -82.5 -62.5t-113.5 -20.5q-85 0 -124.5 37.5t-39.5 97.5q0 53 17 84.5t47 49.5t71.5 26.5t90.5 15.5t66 18.5t17 37.5q0 24 -22.5 37.5
t-60.5 13.5q-45 0 -64.5 -20t-24.5 -53h-121q1 38 12.5 70t37 55t66.5 35.5t100 12.5q58 0 97.5 -12.5t64.5 -37.5q62 50 156 50q114 0 172.5 -73t58.5 -220h-339zM325 241q-10 -10 -29 -16t-55 -13q-56 -11 -77 -28t-21 -49q0 -55 63 -55q25 0 46.5 8.5t37 23t25 34
t9.5 41.5zM660 294q-1 27 -9.5 47.5t-22.5 34t-32 20t-37 6.5q-39 0 -67.5 -28.5t-32.5 -79.5h201z" />
    <glyph glyph-name="ccedilla" unicode="&#xe7;" horiz-adv-x="476" 
d="M17 0zM469 178q-5 -43 -24.5 -78t-49.5 -60t-68.5 -39t-83.5 -14q-50 0 -91.5 16.5t-71.5 50t-46.5 83t-16.5 115.5t16.5 114t46.5 78.5t72.5 45.5t94.5 15q48 0 87.5 -13t69 -38t46.5 -60t20 -78h-131q-5 38 -30.5 59.5t-62.5 21.5q-21 0 -39 -7t-31.5 -23.5t-21.5 -44
t-8 -67.5q0 -81 29 -120t67 -39t65 21t31 61h131zM194 -190q62 5 64 65h-64v82h115v-54q0 -27 -5.5 -50.5t-18.5 -41.5t-35.5 -29.5t-55.5 -14.5v43z" />
    <glyph glyph-name="egrave" unicode="&#xe8;" 
d="M15 0zM350 294q-1 27 -9.5 47.5t-22.5 34t-32 20t-37 6.5q-39 0 -67.5 -28.5t-32.5 -79.5h201zM145 212q3 -56 32.5 -89t77.5 -33q32 0 56.5 14.5t31.5 40.5h134q-23 -76 -80 -117t-136 -41q-246 0 -246 268q0 57 16 103t46.5 79t74.5 50.5t101 17.5q114 0 172.5 -73
t58.5 -220h-339zM92 648l47 82l207 -121l-31 -55z" />
    <glyph glyph-name="eacute" unicode="&#xe9;" 
d="M15 0zM350 294q-1 27 -9.5 47.5t-22.5 34t-32 20t-37 6.5q-39 0 -67.5 -28.5t-32.5 -79.5h201zM145 212q3 -56 32.5 -89t77.5 -33q32 0 56.5 14.5t31.5 40.5h134q-23 -76 -80 -117t-136 -41q-246 0 -246 268q0 57 16 103t46.5 79t74.5 50.5t101 17.5q114 0 172.5 -73
t58.5 -220h-339zM183 554l-31 55l207 121l47 -82z" />
    <glyph glyph-name="ecircumflex" unicode="&#xea;" 
d="M15 0zM350 294q-1 27 -9.5 47.5t-22.5 34t-32 20t-37 6.5q-39 0 -67.5 -28.5t-32.5 -79.5h201zM145 212q3 -56 32.5 -89t77.5 -33q32 0 56.5 14.5t31.5 40.5h134q-23 -76 -80 -117t-136 -41q-246 0 -246 268q0 57 16 103t46.5 79t74.5 50.5t101 17.5q114 0 172.5 -73
t58.5 -220h-339zM249 679l-135 -118l-46 51l128 134h106l128 -134l-46 -51z" />
    <glyph glyph-name="edieresis" unicode="&#xeb;" 
d="M15 0zM350 294q-1 27 -9.5 47.5t-22.5 34t-32 20t-37 6.5q-39 0 -67.5 -28.5t-32.5 -79.5h201zM145 212q3 -56 32.5 -89t77.5 -33q32 0 56.5 14.5t31.5 40.5h134q-23 -76 -80 -117t-136 -41q-246 0 -246 268q0 57 16 103t46.5 79t74.5 50.5t101 17.5q114 0 172.5 -73
t58.5 -220h-339zM84 579v124h130v-124h-130zM284 579v124h130v-124h-130z" />
    <glyph glyph-name="igrave" unicode="&#xec;" horiz-adv-x="268" 
d="M0 0zM69 0v492h130v-492h-130zM-22 648l47 82l207 -121l-31 -55z" />
    <glyph glyph-name="iacute" unicode="&#xed;" horiz-adv-x="268" 
d="M38 0zM69 0v492h130v-492h-130zM69 554l-31 55l207 121l47 -82z" />
    <glyph glyph-name="icircumflex" unicode="&#xee;" horiz-adv-x="268" 
d="M0 0zM69 0v492h130v-492h-130zM135 679l-135 -118l-46 51l128 134h106l128 -134l-46 -51z" />
    <glyph glyph-name="idieresis" unicode="&#xef;" horiz-adv-x="268" 
d="M0 0zM69 0v492h130v-492h-130zM-30 579v124h130v-124h-130zM170 579v124h130v-124h-130z" />
    <glyph glyph-name="eth" unicode="&#xf0;" horiz-adv-x="514" 
d="M402 615q45 -55 67.5 -138.5t22.5 -192.5q0 -86 -20.5 -143t-53 -91t-73.5 -48.5t-81 -14.5q-67 0 -114 19.5t-77 54t-44 80.5t-14 100q0 53 14.5 97.5t42 76.5t67.5 50t92 18q18 0 36 -1.5t35 -6.5t32 -16.5t29 -30.5q-4 36 -17.5 70.5t-33.5 64.5l-83 -48l-18 28l81 47
q-22 26 -46.5 47t-48.5 35h139q21 -13 42 -32l68 39l18 -28zM258 95q49 0 80 34t31 95q0 71 -27.5 109.5t-82.5 38.5q-56 0 -83.5 -37.5t-27.5 -102.5q0 -66 30 -101.5t80 -35.5z" />
    <glyph glyph-name="ntilde" unicode="&#xf1;" 
d="M26 0zM341 0v298q0 57 -19 77t-65 20q-101 0 -101 -113v-282h-130v492h124v-72q23 42 61 63.5t98 21.5q35 0 65 -10.5t51.5 -31.5t34 -51.5t12.5 -70.5v-341h-131zM431 674q-17 -54 -47 -76t-62 -22q-19 0 -35.5 7t-31.5 15.5t-30 15.5t-31 7q-6 0 -18 -8t-21 -36l-69 37
q16 49 41 68.5t56 19.5q23 0 41 -7.5t34 -16.5t30 -16.5t28 -7.5q9 0 22 10.5t18 36.5z" />
    <glyph glyph-name="ograve" unicode="&#xf2;" horiz-adv-x="534" 
d="M15 0zM268 96q119 0 119 150q0 149 -119 149t-119 -149q0 -150 119 -150zM268 -13q-60 0 -107 19t-79.5 53t-49.5 82t-17 105q0 58 17.5 106t50.5 82t79.5 52.5t105.5 18.5q58 0 104 -18.5t78.5 -52t50 -81.5t17.5 -107t-17.5 -106.5t-50 -81.5t-79 -52.5t-103.5 -18.5z
M110 648l47 82l207 -121l-31 -55z" />
    <glyph glyph-name="oacute" unicode="&#xf3;" horiz-adv-x="534" 
d="M15 0zM268 96q119 0 119 150q0 149 -119 149t-119 -149q0 -150 119 -150zM268 -13q-60 0 -107 19t-79.5 53t-49.5 82t-17 105q0 58 17.5 106t50.5 82t79.5 52.5t105.5 18.5q58 0 104 -18.5t78.5 -52t50 -81.5t17.5 -107t-17.5 -106.5t-50 -81.5t-79 -52.5t-103.5 -18.5z
M201 554l-31 55l207 121l47 -82z" />
    <glyph glyph-name="ocircumflex" unicode="&#xf4;" horiz-adv-x="534" 
d="M15 0zM268 96q119 0 119 150q0 149 -119 149t-119 -149q0 -150 119 -150zM268 -13q-60 0 -107 19t-79.5 53t-49.5 82t-17 105q0 58 17.5 106t50.5 82t79.5 52.5t105.5 18.5q58 0 104 -18.5t78.5 -52t50 -81.5t17.5 -107t-17.5 -106.5t-50 -81.5t-79 -52.5t-103.5 -18.5z
M267 679l-135 -118l-46 51l128 134h106l128 -134l-46 -51z" />
    <glyph glyph-name="otilde" unicode="&#xf5;" horiz-adv-x="534" 
d="M15 0zM268 96q119 0 119 150q0 149 -119 149t-119 -149q0 -150 119 -150zM268 -13q-60 0 -107 19t-79.5 53t-49.5 82t-17 105q0 58 17.5 106t50.5 82t79.5 52.5t105.5 18.5q58 0 104 -18.5t78.5 -52t50 -81.5t17.5 -107t-17.5 -106.5t-50 -81.5t-79 -52.5t-103.5 -18.5z
M439 674q-17 -54 -47 -76t-62 -22q-19 0 -35.5 7t-31.5 15.5t-30 15.5t-31 7q-6 0 -18 -8t-21 -36l-69 37q16 49 41 68.5t56 19.5q23 0 41 -7.5t34 -16.5t30 -16.5t28 -7.5q9 0 22 10.5t18 36.5z" />
    <glyph glyph-name="odieresis" unicode="&#xf6;" horiz-adv-x="534" 
d="M15 0zM268 96q119 0 119 150q0 149 -119 149t-119 -149q0 -150 119 -150zM268 -13q-60 0 -107 19t-79.5 53t-49.5 82t-17 105q0 58 17.5 106t50.5 82t79.5 52.5t105.5 18.5q58 0 104 -18.5t78.5 -52t50 -81.5t17.5 -107t-17.5 -106.5t-50 -81.5t-79 -52.5t-103.5 -18.5z
M102 579v124h130v-124h-130zM302 579v124h130v-124h-130z" />
    <glyph glyph-name="divide" unicode="&#xf7;" horiz-adv-x="518" 
d="M23 63zM23 296v94h471v-94h-471zM189 490v135h139v-135h-139zM189 63v135h139v-135h-139z" />
    <glyph glyph-name="oslash" unicode="&#xf8;" horiz-adv-x="534" 
d="M106 -31l23 52q-55 32 -84.5 90.5t-29.5 134.5q0 58 17.5 106t50.5 82t79.5 52.5t105.5 18.5q20 0 39.5 -2.5t36.5 -7.5l23 50l63 -26l-23 -50q53 -32 82 -89t29 -134q0 -59 -17.5 -106.5t-50 -81.5t-79 -52.5t-103.5 -18.5q-21 0 -41 2.5t-38 7.5l-24 -54zM236 99
q15 -3 32 -3q119 0 119 150q0 74 -31 113zM297 392l-14 2t-15 1q-119 0 -119 -149q0 -77 31 -114z" />
    <glyph glyph-name="ugrave" unicode="&#xf9;" horiz-adv-x="495" 
d="M26 0zM346 0v69q-50 -82 -153 -82q-37 0 -67.5 13t-52.5 37t-34.5 57t-12.5 74v324h130v-304q0 -92 83 -92q50 0 75.5 31.5t25.5 80.5v284h129v-492h-123zM90 648l47 82l207 -121l-31 -55z" />
    <glyph glyph-name="uacute" unicode="&#xfa;" horiz-adv-x="495" 
d="M26 0zM346 0v69q-50 -82 -153 -82q-37 0 -67.5 13t-52.5 37t-34.5 57t-12.5 74v324h130v-304q0 -92 83 -92q50 0 75.5 31.5t25.5 80.5v284h129v-492h-123zM181 554l-31 55l207 121l47 -82z" />
    <glyph glyph-name="ucircumflex" unicode="&#xfb;" horiz-adv-x="495" 
d="M26 0zM346 0v69q-50 -82 -153 -82q-37 0 -67.5 13t-52.5 37t-34.5 57t-12.5 74v324h130v-304q0 -92 83 -92q50 0 75.5 31.5t25.5 80.5v284h129v-492h-123zM247 679l-135 -118l-46 51l128 134h106l128 -134l-46 -51z" />
    <glyph glyph-name="udieresis" unicode="&#xfc;" horiz-adv-x="495" 
d="M26 0zM346 0v69q-50 -82 -153 -82q-37 0 -67.5 13t-52.5 37t-34.5 57t-12.5 74v324h130v-304q0 -92 83 -92q50 0 75.5 31.5t25.5 80.5v284h129v-492h-123zM92 579v124h130v-124h-130zM292 579v124h130v-124h-130z" />
    <glyph glyph-name="yacute" unicode="&#xfd;" horiz-adv-x="495" 
d="M26 0zM339 65q-14 -33 -50.5 -51.5t-82.5 -18.5q-39 0 -72 12.5t-57 36t-37.5 56t-13.5 73.5v319h130v-300q0 -92 83 -92q45 0 72.5 26t27.5 66v300h130v-505q0 -52 -17.5 -93t-48 -69t-72 -43t-88.5 -15q-109 0 -163 55t-54 151h121q0 -44 25.5 -69t76.5 -25
q18 0 34 7.5t28.5 21t20 33.5t7.5 44v80zM181 554l-31 55l207 121l47 -82z" />
    <glyph glyph-name="thorn" unicode="&#xfe;" horiz-adv-x="518" 
d="M258 93q49 0 80 41.5t31 107.5q0 152 -112 152q-109 0 -109 -160q0 -31 8 -57t23 -44.5t35 -29t44 -10.5zM26 -233v905h128v-241q20 39 51.5 56.5t83.5 17.5q54 0 94 -21.5t67 -58t40 -84t13 -99.5q0 -56 -13.5 -103t-39.5 -80.5t-64 -52.5t-86 -19q-45 0 -84.5 17.5
t-61.5 57.5v-295h-128z" />
    <glyph glyph-name="ydieresis" unicode="&#xff;" horiz-adv-x="495" 
d="M26 0zM339 65q-14 -33 -50.5 -51.5t-82.5 -18.5q-39 0 -72 12.5t-57 36t-37.5 56t-13.5 73.5v319h130v-300q0 -92 83 -92q45 0 72.5 26t27.5 66v300h130v-505q0 -52 -17.5 -93t-48 -69t-72 -43t-88.5 -15q-109 0 -163 55t-54 151h121q0 -44 25.5 -69t76.5 -25
q18 0 34 7.5t28.5 21t20 33.5t7.5 44v80zM82 579v124h130v-124h-130zM282 579v124h130v-124h-130z" />
    <glyph glyph-name="Amacron" unicode="&#x100;" horiz-adv-x="638" 
d="M3 0zM319 515h-1l-85 -264h169zM484 0l-42 137h-245l-47 -137h-147l237 664h161l234 -664h-151zM128 774v91h381v-91h-381z" />
    <glyph glyph-name="amacron" unicode="&#x101;" horiz-adv-x="481" 
d="M13 0zM325 241q-10 -10 -29 -16t-55 -13q-56 -11 -77 -28t-21 -49q0 -55 63 -55q25 0 46.5 8.5t37 23t25 34t9.5 41.5zM334 0q-6 19 -8 44q-23 -26 -61 -41.5t-88 -15.5q-85 0 -124.5 37.5t-39.5 97.5q0 53 17 84.5t47 49.5t71.5 26.5t90.5 15.5t66 18.5t17 37.5
q0 24 -22.5 37.5t-60.5 13.5q-45 0 -64.5 -20t-24.5 -53h-121q1 38 12.5 70t37 55t66.5 35.5t100 12.5q58 0 98.5 -13t65 -37.5t35.5 -61t11 -82.5v-311h-121zM50 602v91h381v-91h-381z" />
    <glyph glyph-name="Abreve" unicode="&#x102;" horiz-adv-x="638" 
d="M3 0zM319 515h-1l-85 -264h169zM484 0l-42 137h-245l-47 -137h-147l237 664h161l234 -664h-151zM481 918q0 -42 -13.5 -73t-36 -51.5t-52 -31t-60.5 -10.5t-60.5 10.5t-52 31t-36 51.5t-13.5 73h82q2 -42 22.5 -64.5t57.5 -22.5t57.5 22.5t22.5 64.5h82z" />
    <glyph glyph-name="abreve" unicode="&#x103;" horiz-adv-x="481" 
d="M13 0zM325 241q-10 -10 -29 -16t-55 -13q-56 -11 -77 -28t-21 -49q0 -55 63 -55q25 0 46.5 8.5t37 23t25 34t9.5 41.5zM334 0q-6 19 -8 44q-23 -26 -61 -41.5t-88 -15.5q-85 0 -124.5 37.5t-39.5 97.5q0 53 17 84.5t47 49.5t71.5 26.5t90.5 15.5t66 18.5t17 37.5
q0 24 -22.5 37.5t-60.5 13.5q-45 0 -64.5 -20t-24.5 -53h-121q1 38 12.5 70t37 55t66.5 35.5t100 12.5q58 0 98.5 -13t65 -37.5t35.5 -61t11 -82.5v-311h-121zM402 746q0 -42 -13.5 -73t-36 -51.5t-52 -31t-60.5 -10.5t-60.5 10.5t-52 31t-36 51.5t-13.5 73h82
q2 -42 22.5 -64.5t57.5 -22.5t57.5 22.5t22.5 64.5h82z" />
    <glyph glyph-name="Aogonek" unicode="&#x104;" horiz-adv-x="638" 
d="M635 -207q-14 -11 -39 -18.5t-66 -7.5q-54 0 -82 23t-28 62q0 49 47 86.5t125 61.5h-108l-42 137h-245l-47 -137h-147l237 664h161l234 -664q-38 -17 -60.5 -29.5t-34 -23t-15 -20t-3.5 -19.5q0 -17 17.5 -25t46.5 -8q14 0 27 2.5t22 5.5v-90zM319 515h-1l-85 -264h169z
" />
    <glyph glyph-name="aogonek" unicode="&#x105;" horiz-adv-x="481" 
d="M455 -207q-14 -11 -39 -18.5t-66 -7.5q-54 0 -82 23t-28 62q0 49 47 86.5t125 61.5h-78q-6 19 -8 44q-23 -26 -61 -41.5t-88 -15.5q-85 0 -124.5 37.5t-39.5 97.5q0 53 17 84.5t47 49.5t71.5 26.5t90.5 15.5t66 18.5t17 37.5q0 24 -22.5 37.5t-60.5 13.5q-45 0 -64.5 -20
t-24.5 -53h-121q1 38 12.5 70t37 55t66.5 35.5t100 12.5q58 0 98.5 -13t65 -37.5t35.5 -61t11 -82.5v-311q-38 -17 -60.5 -29.5t-34 -23t-15 -20t-3.5 -19.5q0 -17 17.5 -25t46.5 -8q14 0 27 2.5t22 5.5v-90zM325 241q-10 -10 -29 -16t-55 -13q-56 -11 -77 -28t-21 -49
q0 -55 63 -55q25 0 46.5 8.5t37 23t25 34t9.5 41.5z" />
    <glyph glyph-name="Cacute" unicode="&#x106;" horiz-adv-x="608" 
d="M15 0zM608 228q-11 -57 -35 -103t-60.5 -79t-84.5 -51t-106 -18q-65 0 -121.5 22t-97.5 66t-64.5 108.5t-23.5 150.5q0 84 21.5 151.5t61.5 114t97.5 71.5t128.5 25q62 0 112.5 -18.5t87 -51t58 -76.5t26.5 -94h-139q-14 57 -54 88.5t-90 31.5q-87 0 -128 -62.5
t-41 -171.5q0 -111 40.5 -172.5t121.5 -61.5q62 0 99.5 33.5t51.5 96.5h139zM238 726l-31 55l207 121l47 -82z" />
    <glyph glyph-name="cacute" unicode="&#x107;" horiz-adv-x="476" 
d="M17 0zM469 178q-5 -43 -24.5 -78t-49.5 -60t-68.5 -39t-83.5 -14q-50 0 -91.5 16.5t-71.5 50t-46.5 83t-16.5 115.5t16.5 114t46.5 78.5t72.5 45.5t94.5 15q48 0 87.5 -13t69 -38t46.5 -60t20 -78h-131q-5 38 -30.5 59.5t-62.5 21.5q-21 0 -39 -7t-31.5 -23.5t-21.5 -44
t-8 -67.5q0 -81 29 -120t67 -39t65 21t31 61h131zM172 554l-31 55l207 121l47 -82z" />
    <glyph glyph-name="Cdotaccent" unicode="&#x10a;" horiz-adv-x="608" 
d="M15 0zM608 228q-11 -57 -35 -103t-60.5 -79t-84.5 -51t-106 -18q-65 0 -121.5 22t-97.5 66t-64.5 108.5t-23.5 150.5q0 84 21.5 151.5t61.5 114t97.5 71.5t128.5 25q62 0 112.5 -18.5t87 -51t58 -76.5t26.5 -94h-139q-14 57 -54 88.5t-90 31.5q-87 0 -128 -62.5
t-41 -171.5q0 -111 40.5 -172.5t121.5 -61.5q62 0 99.5 33.5t51.5 96.5h139zM253 751v124h130v-124h-130z" />
    <glyph glyph-name="cdotaccent" unicode="&#x10b;" horiz-adv-x="476" 
d="M17 0zM469 178q-5 -43 -24.5 -78t-49.5 -60t-68.5 -39t-83.5 -14q-50 0 -91.5 16.5t-71.5 50t-46.5 83t-16.5 115.5t16.5 114t46.5 78.5t72.5 45.5t94.5 15q48 0 87.5 -13t69 -38t46.5 -60t20 -78h-131q-5 38 -30.5 59.5t-62.5 21.5q-21 0 -39 -7t-31.5 -23.5t-21.5 -44
t-8 -67.5q0 -81 29 -120t67 -39t65 21t31 61h131zM179 579v124h130v-124h-130z" />
    <glyph glyph-name="Ccaron" unicode="&#x10c;" horiz-adv-x="608" 
d="M15 0zM608 228q-11 -57 -35 -103t-60.5 -79t-84.5 -51t-106 -18q-65 0 -121.5 22t-97.5 66t-64.5 108.5t-23.5 150.5q0 84 21.5 151.5t61.5 114t97.5 71.5t128.5 25q62 0 112.5 -18.5t87 -51t58 -76.5t26.5 -94h-139q-14 57 -54 88.5t-90 31.5q-87 0 -128 -62.5
t-41 -171.5q0 -111 40.5 -172.5t121.5 -61.5q62 0 99.5 33.5t51.5 96.5h139zM266 733l-128 134l46 51l135 -118l135 118l46 -51l-128 -134h-106z" />
    <glyph glyph-name="ccaron" unicode="&#x10d;" horiz-adv-x="476" 
d="M17 0zM469 178q-5 -43 -24.5 -78t-49.5 -60t-68.5 -39t-83.5 -14q-50 0 -91.5 16.5t-71.5 50t-46.5 83t-16.5 115.5t16.5 114t46.5 78.5t72.5 45.5t94.5 15q48 0 87.5 -13t69 -38t46.5 -60t20 -78h-131q-5 38 -30.5 59.5t-62.5 21.5q-21 0 -39 -7t-31.5 -23.5t-21.5 -44
t-8 -67.5q0 -81 29 -120t67 -39t65 21t31 61h131zM185 561l-128 134l46 51l135 -118l135 118l46 -51l-128 -134h-106z" />
    <glyph glyph-name="Dcaron" unicode="&#x10e;" horiz-adv-x="602" 
d="M23 0zM273 113q91 0 132 56.5t41 169.5q0 56 -10 96t-32.5 65.5t-57.5 37t-85 11.5h-103v-436h115zM23 0v664h257q67 0 124 -22.5t97.5 -64.5t63.5 -102t23 -136t-20.5 -138.5t-58.5 -107t-91 -69t-117 -24.5h-278zM210 733l-128 134l46 51l135 -118l135 118l46 -51
l-128 -134h-106z" />
    <glyph glyph-name="dcaron" unicode="&#x10f;" horiz-adv-x="656" 
d="M16 0zM259 93q47 0 78.5 39t31.5 102q0 160 -109 160q-112 0 -112 -152q0 -66 31 -107.5t80 -41.5zM367 0l-1 60q-45 -73 -137 -73q-47 0 -86 18t-67 52t-44 83t-16 111q0 56 13.5 102.5t39.5 80.5t63.5 52.5t85.5 18.5q91 0 146 -77v244h128v-672h-125zM518 450
q38 10 57 34t20 72h-77v135h138v-102q0 -42 -7 -74t-23 -54.5t-42.5 -37.5t-65.5 -23v50z" />
    <glyph glyph-name="Dcroat" unicode="&#x110;" horiz-adv-x="602" 
d="M0 0zM23 0v282h-23v99h23v283h257q67 0 124 -22.5t97.5 -64.5t63.5 -102t23 -136t-20.5 -138.5t-58.5 -107t-91 -69t-117 -24.5h-278zM273 113q91 0 132 56.5t41 169.5q0 56 -10 96t-32.5 65.5t-57.5 37t-85 11.5h-103v-168h107v-99h-107v-169h115z" />
    <glyph glyph-name="dcroat" unicode="&#x111;" horiz-adv-x="518" 
d="M367 0l-1 60q-45 -73 -137 -73q-47 0 -86 18t-67 52t-44 83t-16 111q0 56 13.5 102.5t39.5 80.5t63.5 52.5t85.5 18.5q91 0 146 -77v105h-167v91h167v48h128v-48h26v-91h-26v-533h-125zM259 93q47 0 78.5 39t31.5 102q0 160 -109 160q-112 0 -112 -152q0 -66 31 -107.5
t80 -41.5z" />
    <glyph glyph-name="Emacron" unicode="&#x112;" horiz-adv-x="527" 
d="M23 0zM23 0v664h488v-116h-353v-142h325v-117h-325v-171h369v-118h-504zM73 774v91h381v-91h-381z" />
    <glyph glyph-name="emacron" unicode="&#x113;" 
d="M15 0zM350 294q-1 27 -9.5 47.5t-22.5 34t-32 20t-37 6.5q-39 0 -67.5 -28.5t-32.5 -79.5h201zM145 212q3 -56 32.5 -89t77.5 -33q32 0 56.5 14.5t31.5 40.5h134q-23 -76 -80 -117t-136 -41q-246 0 -246 268q0 57 16 103t46.5 79t74.5 50.5t101 17.5q114 0 172.5 -73
t58.5 -220h-339zM58 602v91h381v-91h-381z" />
    <glyph glyph-name="Ebreve" unicode="&#x114;" horiz-adv-x="527" 
d="M23 0zM23 0v664h488v-116h-353v-142h325v-117h-325v-171h369v-118h-504zM425 918q0 -42 -13.5 -73t-36 -51.5t-52 -31t-60.5 -10.5t-60.5 10.5t-52 31t-36 51.5t-13.5 73h82q2 -42 22.5 -64.5t57.5 -22.5t57.5 22.5t22.5 64.5h82z" />
    <glyph glyph-name="ebreve" unicode="&#x115;" 
d="M15 0zM350 294q-1 27 -9.5 47.5t-22.5 34t-32 20t-37 6.5q-39 0 -67.5 -28.5t-32.5 -79.5h201zM145 212q3 -56 32.5 -89t77.5 -33q32 0 56.5 14.5t31.5 40.5h134q-23 -76 -80 -117t-136 -41q-246 0 -246 268q0 57 16 103t46.5 79t74.5 50.5t101 17.5q114 0 172.5 -73
t58.5 -220h-339zM411 746q0 -42 -13.5 -73t-36 -51.5t-52 -31t-60.5 -10.5t-60.5 10.5t-52 31t-36 51.5t-13.5 73h82q2 -42 22.5 -64.5t57.5 -22.5t57.5 22.5t22.5 64.5h82z" />
    <glyph glyph-name="Edotaccent" unicode="&#x116;" horiz-adv-x="527" 
d="M23 0zM23 0v664h488v-116h-353v-142h325v-117h-325v-171h369v-118h-504zM208 751v124h130v-124h-130z" />
    <glyph glyph-name="edotaccent" unicode="&#x117;" 
d="M15 0zM350 294q-1 27 -9.5 47.5t-22.5 34t-32 20t-37 6.5q-39 0 -67.5 -28.5t-32.5 -79.5h201zM145 212q3 -56 32.5 -89t77.5 -33q32 0 56.5 14.5t31.5 40.5h134q-23 -76 -80 -117t-136 -41q-246 0 -246 268q0 57 16 103t46.5 79t74.5 50.5t101 17.5q114 0 172.5 -73
t58.5 -220h-339zM189 579v124h130v-124h-130z" />
    <glyph glyph-name="Eogonek" unicode="&#x118;" horiz-adv-x="527" 
d="M527 -207q-14 -11 -39 -18.5t-66 -7.5q-54 0 -82 23t-28 62q0 49 47 86.5t125 61.5h-461v664h488v-116h-353v-142h325v-117h-325v-171h369v-118q-38 -17 -60.5 -29.5t-34 -23t-15 -20t-3.5 -19.5q0 -17 17.5 -25t46.5 -8q14 0 27 2.5t22 5.5v-90z" />
    <glyph glyph-name="eogonek" unicode="&#x119;" 
d="M343 -207q-14 -11 -39 -18.5t-66 -7.5q-54 0 -82 23t-28 62q0 43 35.5 77t98.5 58h-1q-246 0 -246 268q0 57 16 103t46.5 79t74.5 50.5t101 17.5q114 0 172.5 -73t58.5 -220h-339q3 -56 32.5 -89t77.5 -33q32 0 56.5 14.5t31.5 40.5h134q-17 -55 -51.5 -91.5t-82.5 -53.5
q-38 -17 -60.5 -29.5t-34 -23t-15 -20t-3.5 -19.5q0 -17 17.5 -25t46.5 -8q14 0 27 2.5t22 5.5v-90zM350 294q-1 27 -9.5 47.5t-22.5 34t-32 20t-37 6.5q-39 0 -67.5 -28.5t-32.5 -79.5h201z" />
    <glyph glyph-name="Ecaron" unicode="&#x11a;" horiz-adv-x="527" 
d="M23 0zM23 0v664h488v-116h-353v-142h325v-117h-325v-171h369v-118h-504zM210 733l-128 134l46 51l135 -118l135 118l46 -51l-128 -134h-106z" />
    <glyph glyph-name="ecaron" unicode="&#x11b;" 
d="M15 0zM350 294q-1 27 -9.5 47.5t-22.5 34t-32 20t-37 6.5q-39 0 -67.5 -28.5t-32.5 -79.5h201zM145 212q3 -56 32.5 -89t77.5 -33q32 0 56.5 14.5t31.5 40.5h134q-23 -76 -80 -117t-136 -41q-246 0 -246 268q0 57 16 103t46.5 79t74.5 50.5t101 17.5q114 0 172.5 -73
t58.5 -220h-339zM196 561l-128 134l46 51l135 -118l135 118l46 -51l-128 -134h-106z" />
    <glyph glyph-name="Gbreve" unicode="&#x11e;" horiz-adv-x="659" 
d="M15 0zM518 0l-3 66q-24 -42 -77 -65.5t-122 -23.5t-124.5 29.5t-95 79t-60.5 114t-21 133.5q0 73 21 137.5t62 112.5t102 75.5t142 27.5q59 0 110.5 -17t90 -47t62 -71.5t27.5 -91.5h-140q-3 23 -16 43.5t-33 35.5t-46.5 24t-54.5 9q-84 0 -134.5 -62.5t-50.5 -181.5
q0 -41 10.5 -82.5t33 -75t57.5 -54.5t83 -21q34 0 63.5 12t51.5 33t34.5 48.5t12.5 58.5h-147v111h277v-357h-115zM501 918q0 -42 -13.5 -73t-36 -51.5t-52 -31t-60.5 -10.5t-60.5 10.5t-52 31t-36 51.5t-13.5 73h82q2 -42 22.5 -64.5t57.5 -22.5t57.5 22.5t22.5 64.5h82z
" />
    <glyph glyph-name="gbreve" unicode="&#x11f;" horiz-adv-x="525" 
d="M16 0zM262 98q48 0 79.5 36.5t31.5 99.5q0 158 -111 158t-111 -150q0 -66 31.5 -105t79.5 -39zM369 66q-14 -33 -50.5 -51.5t-84.5 -18.5q-61 0 -102.5 21.5t-67 56.5t-37 81t-11.5 94q0 57 17 104.5t46 81t68 52t84 18.5q92 0 138 -74v61h130v-497q0 -56 -19 -98.5
t-52 -71t-78 -43.5t-96 -15t-95 14.5t-75.5 41t-49.5 64.5t-18 86h121q0 -45 29.5 -69.5t78.5 -24.5q52 0 88 28.5t36 77.5v81zM407 746q0 -42 -13.5 -73t-36 -51.5t-52 -31t-60.5 -10.5t-60.5 10.5t-52 31t-36 51.5t-13.5 73h82q2 -42 22.5 -64.5t57.5 -22.5t57.5 22.5
t22.5 64.5h82z" />
    <glyph glyph-name="Gdotaccent" unicode="&#x120;" horiz-adv-x="659" 
d="M15 0zM518 0l-3 66q-24 -42 -77 -65.5t-122 -23.5t-124.5 29.5t-95 79t-60.5 114t-21 133.5q0 73 21 137.5t62 112.5t102 75.5t142 27.5q59 0 110.5 -17t90 -47t62 -71.5t27.5 -91.5h-140q-3 23 -16 43.5t-33 35.5t-46.5 24t-54.5 9q-84 0 -134.5 -62.5t-50.5 -181.5
q0 -41 10.5 -82.5t33 -75t57.5 -54.5t83 -21q34 0 63.5 12t51.5 33t34.5 48.5t12.5 58.5h-147v111h277v-357h-115zM274 751v124h130v-124h-130z" />
    <glyph glyph-name="gdotaccent" unicode="&#x121;" horiz-adv-x="525" 
d="M16 0zM262 98q48 0 79.5 36.5t31.5 99.5q0 158 -111 158t-111 -150q0 -66 31.5 -105t79.5 -39zM369 66q-14 -33 -50.5 -51.5t-84.5 -18.5q-61 0 -102.5 21.5t-67 56.5t-37 81t-11.5 94q0 57 17 104.5t46 81t68 52t84 18.5q92 0 138 -74v61h130v-497q0 -56 -19 -98.5
t-52 -71t-78 -43.5t-96 -15t-95 14.5t-75.5 41t-49.5 64.5t-18 86h121q0 -45 29.5 -69.5t78.5 -24.5q52 0 88 28.5t36 77.5v81zM185 579v124h130v-124h-130z" />
    <glyph glyph-name="Gcommaaccent" unicode="&#x122;" horiz-adv-x="659" 
d="M15 0zM518 0l-3 66q-24 -42 -77 -65.5t-122 -23.5t-124.5 29.5t-95 79t-60.5 114t-21 133.5q0 73 21 137.5t62 112.5t102 75.5t142 27.5q59 0 110.5 -17t90 -47t62 -71.5t27.5 -91.5h-140q-3 23 -16 43.5t-33 35.5t-46.5 24t-54.5 9q-84 0 -134.5 -62.5t-50.5 -181.5
q0 -41 10.5 -82.5t33 -75t57.5 -54.5t83 -21q34 0 63.5 12t51.5 33t34.5 48.5t12.5 58.5h-147v111h277v-357h-115zM272 -190q62 5 64 65h-64v82h115v-54q0 -27 -5.5 -50.5t-18.5 -41.5t-35.5 -29.5t-55.5 -14.5v43z" />
    <glyph glyph-name="gcommaaccent" unicode="&#x123;" horiz-adv-x="525" 
d="M16 0zM262 98q48 0 79.5 36.5t31.5 99.5q0 158 -111 158t-111 -150q0 -66 31.5 -105t79.5 -39zM369 66q-14 -33 -50.5 -51.5t-84.5 -18.5q-61 0 -102.5 21.5t-67 56.5t-37 81t-11.5 94q0 57 17 104.5t46 81t68 52t84 18.5q92 0 138 -74v61h130v-497q0 -56 -19 -98.5
t-52 -71t-78 -43.5t-96 -15t-95 14.5t-75.5 41t-49.5 64.5t-18 86h121q0 -45 29.5 -69.5t78.5 -24.5q52 0 88 28.5t36 77.5v81zM320.003 685.988q-61.9961 -5 -63.9961 -64.9961h63.9961v-81.9951h-114.993v53.9971q0 26.998 5.5 50.4971q5.5 23.498 18.499 41.4971
t35.498 29.498q22.498 11.5 55.4961 14.499v-42.9971z" />
    <glyph glyph-name="Hbar" unicode="&#x126;" horiz-adv-x="582" 
d="M421 0v298h-259v-298h-139v664h139v-80h259v80h140v-664h-140zM421 414v79h-259v-79h259z" />
    <glyph glyph-name="hbar" unicode="&#x127;" 
d="M156 538v-110q7 16 21.5 30.5t33.5 24.5t42 16t48 6q76 0 123.5 -41.5t47.5 -115.5v-348h-131v305q0 56 -19.5 76.5t-64.5 20.5q-24 0 -43 -9.5t-32 -26t-19.5 -38t-6.5 -46.5v-282h-130v538h-26v91h26v43h130v-43h165v-91h-165z" />
    <glyph glyph-name="Itilde" unicode="&#x128;" horiz-adv-x="184" 
d="M0 0zM23 0v664h139v-664h-139zM266 846q-17 -54 -47 -76t-62 -22q-19 0 -35.5 7t-31.5 15.5t-30 15.5t-31 7q-6 0 -18 -8t-21 -36l-69 37q16 49 41 68.5t56 19.5q23 0 41 -7.5t34 -16.5t30 -16.5t28 -7.5q9 0 22 10.5t18 36.5z" />
    <glyph glyph-name="itilde" unicode="&#x129;" horiz-adv-x="268" 
d="M0 0zM69 0v492h130v-492h-130zM308 674q-17 -54 -47 -76t-62 -22q-19 0 -35.5 7t-31.5 15.5t-30 15.5t-31 7q-6 0 -18 -8t-21 -36l-69 37q16 49 41 68.5t56 19.5q23 0 41 -7.5t34 -16.5t30 -16.5t28 -7.5q9 0 22 10.5t18 36.5z" />
    <glyph glyph-name="uni012A" unicode="&#x12a;" horiz-adv-x="184" 
d="M0 0zM23 0v664h139v-664h-139zM-97 774v91h381v-91h-381z" />
    <glyph glyph-name="imacron" unicode="&#x12b;" horiz-adv-x="268" 
d="M0 0zM69 0v492h130v-492h-130zM-55 602v91h381v-91h-381z" />
    <glyph glyph-name="Ibreve" unicode="&#x12c;" horiz-adv-x="184" 
d="M0 0zM23 0v664h139v-664h-139zM255 918q0 -42 -13.5 -73t-36 -51.5t-52 -31t-60.5 -10.5t-60.5 10.5t-52 31t-36 51.5t-13.5 73h82q2 -42 22.5 -64.5t57.5 -22.5t57.5 22.5t22.5 64.5h82z" />
    <glyph glyph-name="ibreve" unicode="&#x12d;" horiz-adv-x="268" 
d="M0 0zM69 0v492h130v-492h-130zM297 746q0 -42 -13.5 -73t-36 -51.5t-52 -31t-60.5 -10.5t-60.5 10.5t-52 31t-36 51.5t-13.5 73h82q2 -42 22.5 -64.5t57.5 -22.5t57.5 22.5t22.5 64.5h82z" />
    <glyph glyph-name="Iogonek" unicode="&#x12e;" horiz-adv-x="184" 
d="M162 -207q-14 -11 -39 -18.5t-66 -7.5q-54 0 -82 23t-28 62q0 49 47 86.5t125 61.5h-96v664h139v-664q-38 -17 -60.5 -29.5t-34 -23t-15 -20t-3.5 -19.5q0 -17 17.5 -25t46.5 -8q14 0 27 2.5t22 5.5v-90z" />
    <glyph glyph-name="iogonek" unicode="&#x12f;" horiz-adv-x="188" 
d="M159 -207q-14 -11 -39 -18.5t-66 -7.5q-54 0 -82 23t-28 62q0 49 47 86.5t125 61.5h-87v492h130v-492q-38 -17 -60.5 -29.5t-34 -23t-15 -20t-3.5 -19.5q0 -17 17.5 -25t46.5 -8q14 0 27 2.5t22 5.5v-90zM29 551v121h130v-121h-130z" />
    <glyph glyph-name="Idotaccent" unicode="&#x130;" horiz-adv-x="184" 
d="M23 0zM23 0v664h139v-664h-139zM28 751v124h130v-124h-130z" />
    <glyph glyph-name="dotlessi" unicode="&#x131;" horiz-adv-x="188" 
d="M29 0v492h130v-492h-130z" />
    <glyph glyph-name="IJ" unicode="&#x132;" horiz-adv-x="633" 
d="M23 0zM23 0v664h139v-664h-139zM472 664h139v-485q0 -91 -55 -146.5t-163 -55.5q-97 0 -151 51.5t-54 154.5v68h126v-61q0 -51 18 -75.5t61 -24.5q48 0 63.5 23.5t15.5 78.5v472z" />
    <glyph glyph-name="ij" unicode="&#x133;" horiz-adv-x="376" 
d="M0 0zM29 0v492h130v-492h-130zM29 551v121h130v-121h-130zM219 492h131v-525q0 -45 -15 -81.5t-41 -63t-61.5 -41t-76.5 -14.5q-101 0 -149.5 55.5t-48.5 150.5h122q0 -42 15.5 -66.5t53.5 -24.5q39 0 54.5 24t15.5 66v520zM219 551v121h131v-121h-131z" />
    <glyph glyph-name="Kcommaaccent" unicode="&#x136;" horiz-adv-x="600" 
d="M23 0zM431 0l-197 299l-74 -73v-226h-137v664h137v-270l254 270h180l-262 -262l268 -402h-169zM252 -190q62 5 64 65h-64v82h115v-54q0 -27 -5.5 -50.5t-18.5 -41.5t-35.5 -29.5t-55.5 -14.5v43z" />
    <glyph glyph-name="kcommaaccent" unicode="&#x137;" horiz-adv-x="478" 
d="M26 0zM328 0l-108 221l-63 -65v-156h-131v672h131v-367l162 187h159l-165 -181l161 -311h-146zM191 -190q62 5 64 65h-64v82h115v-54q0 -27 -5.5 -50.5t-18.5 -41.5t-35.5 -29.5t-55.5 -14.5v43z" />
    <glyph glyph-name="Lacute" unicode="&#x139;" horiz-adv-x="496" 
d="M2 0zM23 0v664h139v-543h329v-121h-468zM33 726l-31 55l207 121l47 -82z" />
    <glyph glyph-name="lacute" unicode="&#x13a;" horiz-adv-x="181" 
d="M0 0zM26 0v672h130v-672h-130zM26 726l-31 55l207 121l47 -82z" />
    <glyph glyph-name="Lcommaaccent" unicode="&#x13b;" horiz-adv-x="496" 
d="M23 0zM23 0v664h139v-543h329v-121h-468zM200 -190q62 5 64 65h-64v82h115v-54q0 -27 -5.5 -50.5t-18.5 -41.5t-35.5 -29.5t-55.5 -14.5v43z" />
    <glyph glyph-name="lcommaaccent" unicode="&#x13c;" horiz-adv-x="181" 
d="M26 0zM26 0v672h130v-672h-130zM34 -190q62 5 64 65h-64v82h115v-54q0 -27 -5.5 -50.5t-18.5 -41.5t-35.5 -29.5t-55.5 -14.5v43z" />
    <glyph glyph-name="Lcaron" unicode="&#x13d;" horiz-adv-x="496" 
d="M23 0zM23 0v664h139v-543h329v-121h-468zM198 450q38 10 57 34t20 72h-77v135h138v-102q0 -42 -7 -74t-23 -54.5t-42.5 -37.5t-65.5 -23v50z" />
    <glyph glyph-name="lcaron" unicode="&#x13e;" horiz-adv-x="319" 
d="M26 0zM26 0v672h130v-672h-130zM181 450q38 10 57 34t20 72h-77v135h138v-102q0 -42 -7 -74t-23 -54.5t-42.5 -37.5t-65.5 -23v50z" />
    <glyph glyph-name="Ldot" unicode="&#x13f;" horiz-adv-x="496" 
d="M23 0zM23 0v664h139v-543h329v-121h-468zM190 314v124h130v-124h-130z" />
    <glyph glyph-name="ldot" unicode="&#x140;" horiz-adv-x="311" 
d="M26 0zM26 0v672h130v-672h-130zM181 280v124h130v-124h-130z" />
    <glyph glyph-name="Lslash" unicode="&#x141;" horiz-adv-x="496" 
d="M23 0v664h139v-287l141 63v-89l-141 -63v-167h329v-121h-468z" />
    <glyph glyph-name="lslash" unicode="&#x142;" horiz-adv-x="255" 
d="M62 0v266l-62 -27v88l62 27v318h130v-261l63 29v-89l-63 -28v-323h-130z" />
    <glyph glyph-name="Nacute" unicode="&#x143;" horiz-adv-x="586" 
d="M23 0zM436 0l-284 446v-446h-129v664h147l264 -427v427h130v-664h-128zM227 726l-31 55l207 121l47 -82z" />
    <glyph glyph-name="nacute" unicode="&#x144;" 
d="M26 0zM341 0v298q0 57 -19 77t-65 20q-101 0 -101 -113v-282h-130v492h124v-72q23 42 61 63.5t98 21.5q35 0 65 -10.5t51.5 -31.5t34 -51.5t12.5 -70.5v-341h-131zM183 554l-31 55l207 121l47 -82z" />
    <glyph glyph-name="Ncommaaccent" unicode="&#x145;" horiz-adv-x="586" 
d="M23 0zM436 0l-284 446v-446h-129v664h147l264 -427v427h130v-664h-128zM245 -190q62 5 64 65h-64v82h115v-54q0 -27 -5.5 -50.5t-18.5 -41.5t-35.5 -29.5t-55.5 -14.5v43z" />
    <glyph glyph-name="ncommaaccent" unicode="&#x146;" 
d="M26 0zM341 0v298q0 57 -19 77t-65 20q-101 0 -101 -113v-282h-130v492h124v-72q23 42 61 63.5t98 21.5q35 0 65 -10.5t51.5 -31.5t34 -51.5t12.5 -70.5v-341h-131zM201 -190q62 5 64 65h-64v82h115v-54q0 -27 -5.5 -50.5t-18.5 -41.5t-35.5 -29.5t-55.5 -14.5v43z" />
    <glyph glyph-name="Ncaron" unicode="&#x147;" horiz-adv-x="586" 
d="M23 0zM436 0l-284 446v-446h-129v664h147l264 -427v427h130v-664h-128zM240 733l-128 134l46 51l135 -118l135 118l46 -51l-128 -134h-106z" />
    <glyph glyph-name="ncaron" unicode="&#x148;" 
d="M26 0zM341 0v298q0 57 -19 77t-65 20q-101 0 -101 -113v-282h-130v492h124v-72q23 42 61 63.5t98 21.5q35 0 65 -10.5t51.5 -31.5t34 -51.5t12.5 -70.5v-341h-131zM206 561l-128 134l46 51l135 -118l135 118l46 -51l-128 -134h-106z" />
    <glyph glyph-name="Eng" unicode="&#x14a;" horiz-adv-x="586" 
d="M434 3l-282 443v-446h-129v664h147l264 -427v427h130v-697q0 -45 -15 -81.5t-41 -63t-61.5 -41t-76.5 -14.5q-7 0 -12.5 0.5t-11.5 0.5v116q10 -2 17 -2q39 0 55 24t16 66v31z" />
    <glyph glyph-name="eng" unicode="&#x14b;" 
d="M341 309q-2 50 -21 68t-63 18q-101 0 -101 -113v-282h-130v492h124v-72q23 42 61 63.5t98 21.5q35 0 65 -10.5t51.5 -31.5t34 -51.5t12.5 -70.5v-374q0 -45 -15 -81.5t-41 -63t-61.5 -41t-76.5 -14.5q-6 0 -11.5 0.5t-10.5 0.5v115q3 0 6.5 -0.5t8.5 -0.5q39 0 54.5 24
t15.5 66v337z" />
    <glyph glyph-name="Omacron" unicode="&#x14c;" horiz-adv-x="666" 
d="M15 0zM334 96q37 0 70 13.5t57.5 41t38.5 70.5t14 102q0 118 -46 179t-134 61t-135 -61t-47 -179t47.5 -172.5t134.5 -54.5zM334 -23q-154 0 -236.5 90t-82.5 259q0 84 21 151t62 113.5t100 71t136 24.5q76 0 135.5 -24.5t99.5 -71.5t61 -114.5t21 -152.5
q0 -172 -81.5 -259t-235.5 -87zM142 774v91h381v-91h-381z" />
    <glyph glyph-name="omacron" unicode="&#x14d;" horiz-adv-x="534" 
d="M15 0zM268 96q119 0 119 150q0 149 -119 149t-119 -149q0 -150 119 -150zM268 -13q-60 0 -107 19t-79.5 53t-49.5 82t-17 105q0 58 17.5 106t50.5 82t79.5 52.5t105.5 18.5q58 0 104 -18.5t78.5 -52t50 -81.5t17.5 -107t-17.5 -106.5t-50 -81.5t-79 -52.5t-103.5 -18.5z
M76 602v91h381v-91h-381z" />
    <glyph glyph-name="Obreve" unicode="&#x14e;" horiz-adv-x="666" 
d="M15 0zM334 96q37 0 70 13.5t57.5 41t38.5 70.5t14 102q0 118 -46 179t-134 61t-135 -61t-47 -179t47.5 -172.5t134.5 -54.5zM334 -23q-154 0 -236.5 90t-82.5 259q0 84 21 151t62 113.5t100 71t136 24.5q76 0 135.5 -24.5t99.5 -71.5t61 -114.5t21 -152.5
q0 -172 -81.5 -259t-235.5 -87zM495 918q0 -42 -13.5 -73t-36 -51.5t-52 -31t-60.5 -10.5t-60.5 10.5t-52 31t-36 51.5t-13.5 73h82q2 -42 22.5 -64.5t57.5 -22.5t57.5 22.5t22.5 64.5h82z" />
    <glyph glyph-name="obreve" unicode="&#x14f;" horiz-adv-x="534" 
d="M15 0zM268 96q119 0 119 150q0 149 -119 149t-119 -149q0 -150 119 -150zM268 -13q-60 0 -107 19t-79.5 53t-49.5 82t-17 105q0 58 17.5 106t50.5 82t79.5 52.5t105.5 18.5q58 0 104 -18.5t78.5 -52t50 -81.5t17.5 -107t-17.5 -106.5t-50 -81.5t-79 -52.5t-103.5 -18.5z
M429 746q0 -42 -13.5 -73t-36 -51.5t-52 -31t-60.5 -10.5t-60.5 10.5t-52 31t-36 51.5t-13.5 73h82q2 -42 22.5 -64.5t57.5 -22.5t57.5 22.5t22.5 64.5h82z" />
    <glyph glyph-name="Ohungarumlaut" unicode="&#x150;" horiz-adv-x="666" 
d="M15 0zM334 96q37 0 70 13.5t57.5 41t38.5 70.5t14 102q0 118 -46 179t-134 61t-135 -61t-47 -179t47.5 -172.5t134.5 -54.5zM334 -23q-154 0 -236.5 90t-82.5 259q0 84 21 151t62 113.5t100 71t136 24.5q76 0 135.5 -24.5t99.5 -71.5t61 -114.5t21 -152.5
q0 -172 -81.5 -259t-235.5 -87zM209 774l136 147l44 -37l-143 -143zM366 741l-37 33l142 144l45 -37z" />
    <glyph glyph-name="ohungarumlaut" unicode="&#x151;" horiz-adv-x="534" 
d="M15 0zM268 96q119 0 119 150q0 149 -119 149t-119 -149q0 -150 119 -150zM268 -13q-60 0 -107 19t-79.5 53t-49.5 82t-17 105q0 58 17.5 106t50.5 82t79.5 52.5t105.5 18.5q58 0 104 -18.5t78.5 -52t50 -81.5t17.5 -107t-17.5 -106.5t-50 -81.5t-79 -52.5t-103.5 -18.5z
M153 602l136 147l44 -37l-143 -143zM310 569l-37 33l142 144l45 -37z" />
    <glyph glyph-name="OE" unicode="&#x152;" horiz-adv-x="1021" 
d="M516 0v24q-35 -23 -79 -35t-95 -12q-79 0 -140 25.5t-102.5 73.5t-63 117t-21.5 156q0 74 23 136t65 106.5t101 69.5t131 25q52 0 97.5 -14.5t83.5 -40.5v33h488v-116h-353v-142h325v-117h-325v-171h370v-118h-505zM345 96q37 0 68.5 16.5t53.5 46.5t34.5 71t12.5 90
q0 243 -184 243q-41 0 -74 -16.5t-56 -46.5t-35.5 -71t-12.5 -89q0 -51 14 -95.5t39.5 -77.5t61 -52t78.5 -19z" />
    <glyph glyph-name="oe" unicode="&#x153;" horiz-adv-x="860" 
d="M507 212q3 -56 32.5 -89t77.5 -33q32 0 56.5 14.5t31.5 40.5h134q-23 -76 -80 -117t-136 -41q-120 0 -181 63q-66 -63 -174 -63q-60 0 -107 19t-79.5 53t-49.5 82t-17 105q0 58 17.5 106t50.5 82t79.5 52.5t105.5 18.5q55 0 99 -16.5t76 -47.5q31 31 74 47.5t98 16.5
q114 0 172.5 -73t58.5 -220h-339zM268 96q119 0 119 150q0 149 -119 149t-119 -149q0 -150 119 -150zM712 294q-1 27 -9.5 47.5t-22.5 34t-32 20t-37 6.5q-39 0 -67.5 -28.5t-32.5 -79.5h201z" />
    <glyph glyph-name="Racute" unicode="&#x154;" horiz-adv-x="573" 
d="M23 0zM158 549v-177h174q56 0 79 25t23 63q0 39 -22.5 64t-74.5 25h-179zM410 0v171q0 48 -22 68.5t-82 20.5h-148v-260h-135v664h337q46 0 83.5 -14.5t64.5 -40t41.5 -61t14.5 -76.5q0 -54 -25.5 -95.5t-73.5 -58.5q44 -14 62.5 -43t18.5 -87v-188h-136zM220 726l-31 55
l207 121l47 -82z" />
    <glyph glyph-name="racute" unicode="&#x155;" horiz-adv-x="315" 
d="M26 0zM26 0v492h122v-59q16 25 33.5 39t36 21.5t37.5 9.5t39 2h17v-133q-18 3 -36 3q-119 0 -119 -119v-256h-130zM91 554l-31 55l207 121l47 -82z" />
    <glyph glyph-name="Rcommaaccent" unicode="&#x156;" horiz-adv-x="573" 
d="M23 0zM158 549v-177h174q56 0 79 25t23 63q0 39 -22.5 64t-74.5 25h-179zM410 0v171q0 48 -22 68.5t-82 20.5h-148v-260h-135v664h337q46 0 83.5 -14.5t64.5 -40t41.5 -61t14.5 -76.5q0 -54 -25.5 -95.5t-73.5 -58.5q44 -14 62.5 -43t18.5 -87v-188h-136zM229 -190
q62 5 64 65h-64v82h115v-54q0 -27 -5.5 -50.5t-18.5 -41.5t-35.5 -29.5t-55.5 -14.5v43z" />
    <glyph glyph-name="rcommaaccent" unicode="&#x157;" horiz-adv-x="315" 
d="M26 0zM26 0v492h122v-59q16 25 33.5 39t36 21.5t37.5 9.5t39 2h17v-133q-18 3 -36 3q-119 0 -119 -119v-256h-130zM39 -190q62 5 64 65h-64v82h115v-54q0 -27 -5.5 -50.5t-18.5 -41.5t-35.5 -29.5t-55.5 -14.5v43z" />
    <glyph glyph-name="Rcaron" unicode="&#x158;" horiz-adv-x="573" 
d="M23 0zM158 549v-177h174q56 0 79 25t23 63q0 39 -22.5 64t-74.5 25h-179zM410 0v171q0 48 -22 68.5t-82 20.5h-148v-260h-135v664h337q46 0 83.5 -14.5t64.5 -40t41.5 -61t14.5 -76.5q0 -54 -25.5 -95.5t-73.5 -58.5q44 -14 62.5 -43t18.5 -87v-188h-136zM223 733
l-128 134l46 51l135 -118l135 118l46 -51l-128 -134h-106z" />
    <glyph glyph-name="rcaron" unicode="&#x159;" horiz-adv-x="315" 
d="M0 0zM26 0v492h122v-59q16 25 33.5 39t36 21.5t37.5 9.5t39 2h17v-133q-18 3 -36 3q-119 0 -119 -119v-256h-130zM106 561l-128 134l46 51l135 -118l135 118l46 -51l-128 -134h-106z" />
    <glyph glyph-name="Sacute" unicode="&#x15a;" horiz-adv-x="558" 
d="M6 0zM399 468q-5 51 -37 76t-96 25q-118 0 -118 -81q0 -29 24.5 -48.5t78.5 -32.5q64 -15 111 -28t86 -30q22 -9 41.5 -22.5t33 -33.5t21.5 -48t8 -68q0 -48 -20 -85t-54 -62.5t-80 -39t-97 -13.5q-145 0 -218 56t-77 166h134q1 -51 41.5 -80.5t101.5 -29.5q66 0 100 24
t34 65q0 16 -4 29.5t-15.5 24.5t-31.5 19.5t-52 15.5q-76 16 -131.5 32.5t-91.5 41t-53 59.5t-17 89q0 41 15 77t46 62.5t76.5 42t107.5 15.5q60 0 108 -15.5t82.5 -44t53.5 -69t21 -89.5h-132zM213 726l-31 55l207 121l47 -82z" />
    <glyph glyph-name="sacute" unicode="&#x15b;" horiz-adv-x="467" 
d="M9 0zM322 343q-5 34 -25.5 49.5t-62.5 15.5q-40 0 -60.5 -9.5t-20.5 -32.5q0 -20 20.5 -32t59.5 -23q64 -18 108 -30.5t70.5 -29.5t38 -42.5t11.5 -68.5q0 -66 -55 -109.5t-163 -43.5q-53 0 -96 12t-73.5 34.5t-47 54t-17.5 70.5h134q0 -35 27.5 -54t71.5 -19
q37 0 63.5 11.5t26.5 35.5q0 27 -19.5 39t-59.5 21q-72 16 -116 33.5t-68.5 38.5t-33 46t-8.5 56q0 28 11.5 53t36.5 44t65 30.5t98 11.5q106 0 155 -43t54 -119h-125zM167 554l-31 55l207 121l47 -82z" />
    <glyph glyph-name="Scedilla" unicode="&#x15e;" horiz-adv-x="558" 
d="M6 0zM399 468q-5 51 -37 76t-96 25q-118 0 -118 -81q0 -29 24.5 -48.5t78.5 -32.5q64 -15 111 -28t86 -30q22 -9 41.5 -22.5t33 -33.5t21.5 -48t8 -68q0 -48 -20 -85t-54 -62.5t-80 -39t-97 -13.5q-145 0 -218 56t-77 166h134q1 -51 41.5 -80.5t101.5 -29.5q66 0 100 24
t34 65q0 16 -4 29.5t-15.5 24.5t-31.5 19.5t-52 15.5q-76 16 -131.5 32.5t-91.5 41t-53 59.5t-17 89q0 41 15 77t46 62.5t76.5 42t107.5 15.5q60 0 108 -15.5t82.5 -44t53.5 -69t21 -89.5h-132zM231 -190q62 5 64 65h-64v82h115v-54q0 -27 -5.5 -50.5t-18.5 -41.5
t-35.5 -29.5t-55.5 -14.5v43z" />
    <glyph glyph-name="scedilla" unicode="&#x15f;" horiz-adv-x="467" 
d="M9 0zM322 343q-5 34 -25.5 49.5t-62.5 15.5q-40 0 -60.5 -9.5t-20.5 -32.5q0 -20 20.5 -32t59.5 -23q64 -18 108 -30.5t70.5 -29.5t38 -42.5t11.5 -68.5q0 -66 -55 -109.5t-163 -43.5q-53 0 -96 12t-73.5 34.5t-47 54t-17.5 70.5h134q0 -35 27.5 -54t71.5 -19
q37 0 63.5 11.5t26.5 35.5q0 27 -19.5 39t-59.5 21q-72 16 -116 33.5t-68.5 38.5t-33 46t-8.5 56q0 28 11.5 53t36.5 44t65 30.5t98 11.5q106 0 155 -43t54 -119h-125zM186 -190q62 5 64 65h-64v82h115v-54q0 -27 -5.5 -50.5t-18.5 -41.5t-35.5 -29.5t-55.5 -14.5v43z" />
    <glyph glyph-name="Scaron" unicode="&#x160;" horiz-adv-x="558" 
d="M6 0zM399 468q-5 51 -37 76t-96 25q-118 0 -118 -81q0 -29 24.5 -48.5t78.5 -32.5q64 -15 111 -28t86 -30q22 -9 41.5 -22.5t33 -33.5t21.5 -48t8 -68q0 -48 -20 -85t-54 -62.5t-80 -39t-97 -13.5q-145 0 -218 56t-77 166h134q1 -51 41.5 -80.5t101.5 -29.5q66 0 100 24
t34 65q0 16 -4 29.5t-15.5 24.5t-31.5 19.5t-52 15.5q-76 16 -131.5 32.5t-91.5 41t-53 59.5t-17 89q0 41 15 77t46 62.5t76.5 42t107.5 15.5q60 0 108 -15.5t82.5 -44t53.5 -69t21 -89.5h-132zM226 733l-128 134l46 51l135 -118l135 118l46 -51l-128 -134h-106z" />
    <glyph glyph-name="scaron" unicode="&#x161;" horiz-adv-x="467" 
d="M9 0zM322 343q-5 34 -25.5 49.5t-62.5 15.5q-40 0 -60.5 -9.5t-20.5 -32.5q0 -20 20.5 -32t59.5 -23q64 -18 108 -30.5t70.5 -29.5t38 -42.5t11.5 -68.5q0 -66 -55 -109.5t-163 -43.5q-53 0 -96 12t-73.5 34.5t-47 54t-17.5 70.5h134q0 -35 27.5 -54t71.5 -19
q37 0 63.5 11.5t26.5 35.5q0 27 -19.5 39t-59.5 21q-72 16 -116 33.5t-68.5 38.5t-33 46t-8.5 56q0 28 11.5 53t36.5 44t65 30.5t98 11.5q106 0 155 -43t54 -119h-125zM180 561l-128 134l46 51l135 -118l135 118l46 -51l-128 -134h-106z" />
    <glyph glyph-name="Tcommaaccent" unicode="&#x162;" horiz-adv-x="549" 
d="M4 0zM204 0v548h-200v116h540v-116h-201v-548h-139zM217 -190q62 5 64 65h-64v82h115v-54q0 -27 -5.5 -50.5t-18.5 -41.5t-35.5 -29.5t-55.5 -14.5v43z" />
    <glyph glyph-name="tcommaaccent" unicode="&#x163;" horiz-adv-x="447" 
d="M26 0zM305 324h121v-140q0 -39 -11.5 -74.5t-36 -63t-62 -43.5t-89.5 -16q-54 0 -92 16t-62.5 43t-35.5 63t-11 76v440h128v-133h272v-92h-272v-202q0 -47 17.5 -72.5t57.5 -25.5q39 0 57.5 25t18.5 71v128zM166 -190q62 5 64 65h-64v82h115v-54q0 -27 -5.5 -50.5
t-18.5 -41.5t-35.5 -29.5t-55.5 -14.5v43z" />
    <glyph glyph-name="Tcaron" unicode="&#x164;" horiz-adv-x="549" 
d="M4 0zM204 0v548h-200v116h540v-116h-201v-548h-139zM221 733l-128 134l46 51l135 -118l135 118l46 -51l-128 -134h-106z" />
    <glyph glyph-name="tcaron" unicode="&#x165;" horiz-adv-x="585" 
d="M26 0zM305 324h121v-140q0 -39 -11.5 -74.5t-36 -63t-62 -43.5t-89.5 -16q-54 0 -92 16t-62.5 43t-35.5 63t-11 76v440h128v-133h272v-92h-272v-202q0 -47 17.5 -72.5t57.5 -25.5q39 0 57.5 25t18.5 71v128zM447 450q38 10 57 34t20 72h-77v135h138v-102q0 -42 -7 -74
t-23 -54.5t-42.5 -37.5t-65.5 -23v50z" />
    <glyph glyph-name="Tbar" unicode="&#x166;" horiz-adv-x="549" 
d="M204 0v248h-94v101h94v199h-200v116h540v-116h-201v-199h95v-101h-95v-248h-139z" />
    <glyph glyph-name="tbar" unicode="&#x167;" horiz-adv-x="447" 
d="M154 261v-63q0 -47 17.5 -72.5t57.5 -25.5q39 0 57.5 25t18.5 71v18h121v-30q0 -39 -11.5 -74.5t-36 -63t-62 -43.5t-89.5 -16q-54 0 -92 16t-62.5 43t-35.5 63t-11 76v440h128v-133h272v-92h-272v-52h265v-87h-265z" />
    <glyph glyph-name="Utilde" unicode="&#x168;" horiz-adv-x="581" 
d="M23 0zM416 664h142v-443q0 -121 -71 -182.5t-202 -61.5q-121 0 -191.5 58t-70.5 178v451h141v-438q0 -62 31 -98t88 -36q133 0 133 129v443zM463 846q-17 -54 -47 -76t-62 -22q-19 0 -35.5 7t-31.5 15.5t-30 15.5t-31 7q-6 0 -18 -8t-21 -36l-69 37q16 49 41 68.5
t56 19.5q23 0 41 -7.5t34 -16.5t30 -16.5t28 -7.5q9 0 22 10.5t18 36.5z" />
    <glyph glyph-name="utilde" unicode="&#x169;" horiz-adv-x="495" 
d="M26 0zM346 0v69q-50 -82 -153 -82q-37 0 -67.5 13t-52.5 37t-34.5 57t-12.5 74v324h130v-304q0 -92 83 -92q50 0 75.5 31.5t25.5 80.5v284h129v-492h-123zM420 674q-17 -54 -47 -76t-62 -22q-19 0 -35.5 7t-31.5 15.5t-30 15.5t-31 7q-6 0 -18 -8t-21 -36l-69 37
q16 49 41 68.5t56 19.5q23 0 41 -7.5t34 -16.5t30 -16.5t28 -7.5q9 0 22 10.5t18 36.5z" />
    <glyph glyph-name="Umacron" unicode="&#x16a;" horiz-adv-x="581" 
d="M23 0zM416 664h142v-443q0 -121 -71 -182.5t-202 -61.5q-121 0 -191.5 58t-70.5 178v451h141v-438q0 -62 31 -98t88 -36q133 0 133 129v443zM100 774v91h381v-91h-381z" />
    <glyph glyph-name="umacron" unicode="&#x16b;" horiz-adv-x="495" 
d="M26 0zM346 0v69q-50 -82 -153 -82q-37 0 -67.5 13t-52.5 37t-34.5 57t-12.5 74v324h130v-304q0 -92 83 -92q50 0 75.5 31.5t25.5 80.5v284h129v-492h-123zM57 602v91h381v-91h-381z" />
    <glyph glyph-name="Ubreve" unicode="&#x16c;" horiz-adv-x="581" 
d="M23 0zM416 664h142v-443q0 -121 -71 -182.5t-202 -61.5q-121 0 -191.5 58t-70.5 178v451h141v-438q0 -62 31 -98t88 -36q133 0 133 129v443zM452 918q0 -42 -13.5 -73t-36 -51.5t-52 -31t-60.5 -10.5t-60.5 10.5t-52 31t-36 51.5t-13.5 73h82q2 -42 22.5 -64.5
t57.5 -22.5t57.5 22.5t22.5 64.5h82z" />
    <glyph glyph-name="ubreve" unicode="&#x16d;" horiz-adv-x="495" 
d="M26 0zM346 0v69q-50 -82 -153 -82q-37 0 -67.5 13t-52.5 37t-34.5 57t-12.5 74v324h130v-304q0 -92 83 -92q50 0 75.5 31.5t25.5 80.5v284h129v-492h-123zM419 746q0 -42 -13.5 -73t-36 -51.5t-52 -31t-60.5 -10.5t-60.5 10.5t-52 31t-36 51.5t-13.5 73h82
q2 -42 22.5 -64.5t57.5 -22.5t57.5 22.5t22.5 64.5h82z" />
    <glyph glyph-name="Uring" unicode="&#x16e;" horiz-adv-x="581" 
d="M23 0zM416 664h142v-443q0 -121 -71 -182.5t-202 -61.5q-121 0 -191.5 58t-70.5 178v451h141v-438q0 -62 31 -98t88 -36q133 0 133 129v443zM394 822q0 -47 -24 -71.5t-80 -24.5q-104 0 -104 96q0 46 25.5 71t78.5 25q56 0 80 -25t24 -71zM342 822q0 51 -52 51
q-50 0 -50 -51q0 -49 50 -49q52 0 52 49z" />
    <glyph glyph-name="uring" unicode="&#x16f;" horiz-adv-x="495" 
d="M26 0zM346 0v69q-50 -82 -153 -82q-37 0 -67.5 13t-52.5 37t-34.5 57t-12.5 74v324h130v-304q0 -92 83 -92q50 0 75.5 31.5t25.5 80.5v284h129v-492h-123zM361 650q0 -47 -24 -71.5t-80 -24.5q-104 0 -104 96q0 46 25.5 71t78.5 25q56 0 80 -25t24 -71zM309 650
q0 51 -52 51q-50 0 -50 -51q0 -49 50 -49q52 0 52 49z" />
    <glyph glyph-name="Uhungarumlaut" unicode="&#x170;" horiz-adv-x="581" 
d="M23 0zM416 664h142v-443q0 -121 -71 -182.5t-202 -61.5q-121 0 -191.5 58t-70.5 178v451h141v-438q0 -62 31 -98t88 -36q133 0 133 129v443zM167 774l136 147l44 -37l-143 -143zM324 741l-37 33l142 144l45 -37z" />
    <glyph glyph-name="uhungarumlaut" unicode="&#x171;" horiz-adv-x="495" 
d="M26 0zM346 0v69q-50 -82 -153 -82q-37 0 -67.5 13t-52.5 37t-34.5 57t-12.5 74v324h130v-304q0 -92 83 -92q50 0 75.5 31.5t25.5 80.5v284h129v-492h-123zM134 602l136 147l44 -37l-143 -143zM291 569l-37 33l142 144l45 -37z" />
    <glyph glyph-name="Uogonek" unicode="&#x172;" horiz-adv-x="581" 
d="M422 -207q-14 -11 -39 -18.5t-66 -7.5q-54 0 -82 23t-28 62t30 71t83 56q-8 -1 -17 -1.5t-18 -0.5q-121 0 -191.5 58t-70.5 178v451h141v-438q0 -62 31 -98t88 -36q133 0 133 129v443h142v-443q0 -86 -35.5 -141t-103.5 -81q-37 -17 -59 -29.5t-33 -22.5t-14.5 -19.5
t-3.5 -19.5q0 -17 17.5 -25t46.5 -8q14 0 27 2.5t22 5.5v-90z" />
    <glyph glyph-name="uogonek" unicode="&#x173;" horiz-adv-x="495" 
d="M469 -207q-14 -11 -39 -18.5t-66 -7.5q-54 0 -82 23t-28 62q0 49 47 86.5t125 61.5h-80v69q-50 -82 -153 -82q-37 0 -67.5 13t-52.5 37t-34.5 57t-12.5 74v324h130v-304q0 -92 83 -92q50 0 75.5 31.5t25.5 80.5v284h129v-492q-38 -17 -60.5 -29.5t-34 -23t-15 -20
t-3.5 -19.5q0 -17 17.5 -25t46.5 -8q14 0 27 2.5t22 5.5v-90z" />
    <glyph glyph-name="Wcircumflex" unicode="&#x174;" horiz-adv-x="852" 
d="M3 0zM529 0l-103 432l-105 -432h-130l-188 664h148l109 -430l92 430h146l101 -430l108 430h142l-186 -664h-134zM426 851l-135 -118l-46 51l128 134h106l128 -134l-46 -51z" />
    <glyph glyph-name="wcircumflex" unicode="&#x175;" horiz-adv-x="710" 
d="M3 0zM432 0l-78 286l-78 -286h-133l-140 492h137l80 -316l68 316h132l77 -316l75 316h134l-141 -492h-133zM355 679l-135 -118l-46 51l128 134h106l128 -134l-46 -51z" />
    <glyph glyph-name="Ycircumflex" unicode="&#x176;" horiz-adv-x="597" 
d="M3 0zM233 0v251l-230 413h162l140 -270l129 270h160l-222 -415v-249h-139zM306 851l-135 -118l-46 51l128 134h106l128 -134l-46 -51z" />
    <glyph glyph-name="ycircumflex" unicode="&#x177;" horiz-adv-x="495" 
d="M26 0zM339 65q-14 -33 -50.5 -51.5t-82.5 -18.5q-39 0 -72 12.5t-57 36t-37.5 56t-13.5 73.5v319h130v-300q0 -92 83 -92q45 0 72.5 26t27.5 66v300h130v-505q0 -52 -17.5 -93t-48 -69t-72 -43t-88.5 -15q-109 0 -163 55t-54 151h121q0 -44 25.5 -69t76.5 -25
q18 0 34 7.5t28.5 21t20 33.5t7.5 44v80zM247 679l-135 -118l-46 51l128 134h106l128 -134l-46 -51z" />
    <glyph glyph-name="Ydieresis" unicode="&#x178;" horiz-adv-x="597" 
d="M3 0zM233 0v251l-230 413h162l140 -270l129 270h160l-222 -415v-249h-139zM142 751v124h130v-124h-130zM342 751v124h130v-124h-130z" />
    <glyph glyph-name="Zacute" unicode="&#x179;" horiz-adv-x="527" 
d="M4 0zM4 0v118l345 430h-335v116h509v-109l-347 -437h347v-118h-519zM197 726l-31 55l207 121l47 -82z" />
    <glyph glyph-name="zacute" unicode="&#x17a;" horiz-adv-x="440" 
d="M9 0zM9 0v100l251 289h-234v103h400v-105l-251 -281h258v-106h-424zM154 554l-31 55l207 121l47 -82z" />
    <glyph glyph-name="Zdotaccent" unicode="&#x17b;" horiz-adv-x="527" 
d="M4 0zM4 0v118l345 430h-335v116h509v-109l-347 -437h347v-118h-519zM198 751v124h130v-124h-130z" />
    <glyph glyph-name="zdotaccent" unicode="&#x17c;" horiz-adv-x="440" 
d="M9 0zM9 0v100l251 289h-234v103h400v-105l-251 -281h258v-106h-424zM155 579v124h130v-124h-130z" />
    <glyph glyph-name="Zcaron" unicode="&#x17d;" horiz-adv-x="527" 
d="M4 0zM4 0v118l345 430h-335v116h509v-109l-347 -437h347v-118h-519zM210 733l-128 134l46 51l135 -118l135 118l46 -51l-128 -134h-106z" />
    <glyph glyph-name="zcaron" unicode="&#x17e;" horiz-adv-x="440" 
d="M9 0zM9 0v100l251 289h-234v103h400v-105l-251 -281h258v-106h-424zM168 561l-128 134l46 51l135 -118l135 118l46 -51l-128 -134h-106z" />
    <glyph glyph-name="florin" unicode="&#x192;" horiz-adv-x="532" 
d="M22 -173v112h72q26 0 42.5 19t22.5 61l50 345h-70v101h84l4 24q7 51 28 86t51 56.5t68 31t79 9.5h57v-112h-73q-26 0 -42.5 -19t-22.5 -61l-2 -15h87v-101h-102l-51 -354q-8 -51 -28.5 -86t-50.5 -56.5t-68 -31t-79 -9.5h-56z" />
    <glyph glyph-name="Ohorn" unicode="&#x1a0;" horiz-adv-x="765" 
d="M752 702q10 -11 15.5 -32.5t5.5 -45.5q0 -57 -25.5 -82t-66.5 -25q-35 0 -74 15q44 -85 44 -209q0 -172 -81.5 -259t-235.5 -87t-236.5 90t-82.5 259q0 84 21 151t62 113.5t100 71t136 24.5q126 0 206 -68q24 -20 50 -27.5t53 -7.5q29 0 38.5 19.5t9.5 43.5q0 17 -2.5 32
t-6.5 24h70zM334 96q37 0 70 13.5t57.5 41t38.5 70.5t14 102q0 118 -46 179t-134 61t-135 -61t-47 -179t47.5 -172.5t134.5 -54.5z" />
    <glyph glyph-name="ohorn" unicode="&#x1a1;" horiz-adv-x="647" 
d="M634 543q10 -11 15.5 -32.5t5.5 -45.5q0 -20 -4 -39t-13.5 -34t-25 -24.5t-37.5 -9.5q-49 0 -83 14q26 -55 26 -126q0 -59 -17.5 -106.5t-50 -81.5t-79 -52.5t-103.5 -18.5q-60 0 -107 19t-79.5 53t-49.5 82t-17 105q0 58 17.5 106t50.5 82t79.5 52.5t105.5 18.5
q91 0 154 -46q30 -22 54.5 -28.5t48.5 -6.5q29 0 38.5 19.5t9.5 43.5q0 17 -2.5 32t-6.5 24h70zM268 96q119 0 119 150q0 149 -119 149t-119 -149q0 -150 119 -150z" />
    <glyph glyph-name="Uhorn" unicode="&#x1af;" horiz-adv-x="743" 
d="M416 664h142v-73q14 -5 27.5 -6.5t27.5 -1.5q29 0 38.5 19.5t9.5 43.5q0 17 -2.5 32t-6.5 24h70q10 -11 15.5 -32.5t5.5 -45.5q0 -57 -26.5 -82.5t-67.5 -25.5q-44 0 -91 26v-321q0 -121 -71 -182.5t-202 -61.5q-121 0 -191.5 58t-70.5 178v451h141v-438q0 -62 31 -98
t88 -36q133 0 133 129v443z" />
    <glyph glyph-name="uhorn" unicode="&#x1b0;" horiz-adv-x="633" 
d="M346 0v69q-50 -82 -153 -82q-37 0 -67.5 13t-52.5 37t-34.5 57t-12.5 74v324h130v-304q0 -92 83 -92q50 0 75.5 31.5t25.5 80.5v284h129v-64q19 -4 42 -4q29 0 38.5 19.5t9.5 43.5q0 17 -2.5 32t-6.5 24h70q10 -11 15.5 -32.5t5.5 -45.5q0 -57 -26 -82t-67 -25
q-37 0 -79 18v-376h-123z" />
    <glyph glyph-name="Scommaaccent" unicode="&#x218;" horiz-adv-x="558" 
d="M6 0zM399 468q-5 51 -37 76t-96 25q-118 0 -118 -81q0 -29 24.5 -48.5t78.5 -32.5q64 -15 111 -28t86 -30q22 -9 41.5 -22.5t33 -33.5t21.5 -48t8 -68q0 -48 -20 -85t-54 -62.5t-80 -39t-97 -13.5q-145 0 -218 56t-77 166h134q1 -51 41.5 -80.5t101.5 -29.5q66 0 100 24
t34 65q0 16 -4 29.5t-15.5 24.5t-31.5 19.5t-52 15.5q-76 16 -131.5 32.5t-91.5 41t-53 59.5t-17 89q0 41 15 77t46 62.5t76.5 42t107.5 15.5q60 0 108 -15.5t82.5 -44t53.5 -69t21 -89.5h-132zM221 -190q62 5 64 65h-64v82h115v-54q0 -27 -5.5 -50.5t-18.5 -41.5
t-35.5 -29.5t-55.5 -14.5v43z" />
    <glyph glyph-name="scommaaccent" unicode="&#x219;" horiz-adv-x="467" 
d="M9 0zM322 343q-5 34 -25.5 49.5t-62.5 15.5q-40 0 -60.5 -9.5t-20.5 -32.5q0 -20 20.5 -32t59.5 -23q64 -18 108 -30.5t70.5 -29.5t38 -42.5t11.5 -68.5q0 -66 -55 -109.5t-163 -43.5q-53 0 -96 12t-73.5 34.5t-47 54t-17.5 70.5h134q0 -35 27.5 -54t71.5 -19
q37 0 63.5 11.5t26.5 35.5q0 27 -19.5 39t-59.5 21q-72 16 -116 33.5t-68.5 38.5t-33 46t-8.5 56q0 28 11.5 53t36.5 44t65 30.5t98 11.5q106 0 155 -43t54 -119h-125zM184 -190q62 5 64 65h-64v82h115v-54q0 -27 -5.5 -50.5t-18.5 -41.5t-35.5 -29.5t-55.5 -14.5v43z" />
    <glyph glyph-name="uni021A" unicode="&#x21a;" horiz-adv-x="549" 
d="M4 0zM204 0v548h-200v116h540v-116h-201v-548h-139zM217 -190q62 5 64 65h-64v82h115v-54q0 -27 -5.5 -50.5t-18.5 -41.5t-35.5 -29.5t-55.5 -14.5v43z" />
    <glyph glyph-name="uni021B" unicode="&#x21b;" horiz-adv-x="447" 
d="M26 0zM305 324h121v-140q0 -39 -11.5 -74.5t-36 -63t-62 -43.5t-89.5 -16q-54 0 -92 16t-62.5 43t-35.5 63t-11 76v440h128v-133h272v-92h-272v-202q0 -47 17.5 -72.5t57.5 -25.5q39 0 57.5 25t18.5 71v128zM166 -190q62 5 64 65h-64v82h115v-54q0 -27 -5.5 -50.5
t-18.5 -41.5t-35.5 -29.5t-55.5 -14.5v43z" />
    <glyph glyph-name="circumflex" unicode="&#x2c6;" horiz-adv-x="462" 
d="M231 679l-135 -118l-46 51l128 134h106l128 -134l-46 -51z" />
    <glyph glyph-name="caron" unicode="&#x2c7;" horiz-adv-x="462" 
d="M178 561l-128 134l46 51l135 -118l135 118l46 -51l-128 -134h-106z" />
    <glyph glyph-name="uni02C9" unicode="&#x2c9;" horiz-adv-x="481" 
d="M50 602zM50 602v91h381v-91h-381z" />
    <glyph glyph-name="breve" unicode="&#x2d8;" horiz-adv-x="424" 
d="M374 746q0 -42 -13.5 -73t-36 -51.5t-52 -31t-60.5 -10.5t-60.5 10.5t-52 31t-36 51.5t-13.5 73h82q2 -42 22.5 -64.5t57.5 -22.5t57.5 22.5t22.5 64.5h82z" />
    <glyph glyph-name="dotaccent" unicode="&#x2d9;" horiz-adv-x="230" 
d="M50 579v124h130v-124h-130z" />
    <glyph glyph-name="ring" unicode="&#x2da;" horiz-adv-x="308" 
d="M258 650q0 -47 -24 -71.5t-80 -24.5q-104 0 -104 96q0 46 25.5 71t78.5 25q56 0 80 -25t24 -71zM206 650q0 51 -52 51q-50 0 -50 -51q0 -49 50 -49q52 0 52 49z" />
    <glyph glyph-name="ogonek" unicode="&#x2db;" horiz-adv-x="315" 
d="M265 -207q-14 -11 -39 -18.5t-66 -7.5q-54 0 -82 23t-28 62q0 49 47 86.5t125 61.5h43q-38 -17 -60.5 -29.5t-34 -23t-15 -20t-3.5 -19.5q0 -17 17.5 -25t46.5 -8q14 0 27 2.5t22 5.5v-90z" />
    <glyph glyph-name="tilde" unicode="&#x2dc;" horiz-adv-x="445" 
d="M395 674q-17 -54 -47 -76t-62 -22q-19 0 -35.5 7t-31.5 15.5t-30 15.5t-31 7q-6 0 -18 -8t-21 -36l-69 37q16 49 41 68.5t56 19.5q23 0 41 -7.5t34 -16.5t30 -16.5t28 -7.5q9 0 22 10.5t18 36.5z" />
    <glyph glyph-name="hungarumlaut" unicode="&#x2dd;" horiz-adv-x="407" 
d="M50 602l136 147l44 -37l-143 -143zM207 569l-37 33l142 144l45 -37z" />
    <glyph glyph-name="tildecomb" unicode="&#x303;" horiz-adv-x="372" 
d="M315 732q-9 -36 -31.5 -48.5t-46.5 -12.5q-12 0 -26 3t-27.5 7t-25.5 7t-21 3q-16 0 -28 -32l-49 20q9 34 28 48.5t42 14.5q18 0 32 -3.5t26.5 -8t24 -8t23.5 -3.5q11 0 18 5.5t10 21.5zM288 554l-102 70l-101 -70l-35 30l96 80h80l96 -80z" />
    <glyph glyph-name="hookabovecomb" unicode="&#x309;" horiz-adv-x="244" 
d="M85 581q0 17 5 30.5t20 22.5q11 6 17 12t6 18q0 17 -24 17q-8 0 -18 -3t-23 -12l-18 55q15 13 35.5 19t34.5 6q35 0 54.5 -16.5t19.5 -44.5q0 -21 -9 -33.5t-20.5 -22t-20.5 -20t-9 -28.5h-50z" />
    <glyph glyph-name="dotbelowcomb" unicode="&#x323;" horiz-adv-x="230" 
d="M50 -206v124h130v-124h-130z" />
    <glyph glyph-name="uni037E" unicode="&#x37e;" horiz-adv-x="154" 
d="M10 0zM10 -106q38 10 57 34t20 72h-77v135h138v-102q0 -42 -7 -74t-23 -54.5t-42.5 -37.5t-65.5 -23v50zM10 339v134h138v-134h-138z" />
    <glyph glyph-name="Delta" unicode="&#x394;" horiz-adv-x="638" 
d="M3 0l237 664h161l234 -664h-632zM187 114h260l-128 401h-1z" />
    <glyph glyph-name="Omega" unicode="&#x3a9;" horiz-adv-x="646" 
d="M383 0v100q48 46 74.5 116t26.5 177q0 94 -41 138t-120 44t-119.5 -44t-40.5 -138q0 -53 8 -97t21.5 -80t31.5 -65t39 -51v-100h-239v110h99q-23 17 -43 45t-35 65t-24 81t-9 93q0 68 18.5 122t57 92t97 58t138.5 20q160 0 235.5 -78t75.5 -214q0 -49 -9 -93t-24 -81
t-35.5 -65t-42.5 -45h99v-110h-239z" />
    <glyph glyph-name="mu" unicode="&#x3bc;" horiz-adv-x="495" 
d="M346 0v69q-50 -82 -153 -82q-10 0 -19.5 1t-17.5 3v-224h-130v725h130v-304q0 -92 83 -92q50 0 75.5 31.5t25.5 80.5v284h129v-492h-123z" />
    <glyph glyph-name="pi" unicode="&#x3c0;" horiz-adv-x="563" 
d="M351 0v372h-142v-372h-129v372h-67v120h537v-120h-70v-372h-129z" />
    <glyph glyph-name="Wgrave" unicode="&#x1e80;" horiz-adv-x="852" 
d="M3 0zM529 0l-103 432l-105 -432h-130l-188 664h148l109 -430l92 430h146l101 -430l108 430h142l-186 -664h-134zM269 820l47 82l207 -121l-31 -55z" />
    <glyph glyph-name="wgrave" unicode="&#x1e81;" horiz-adv-x="710" 
d="M3 0zM432 0l-78 286l-78 -286h-133l-140 492h137l80 -316l68 316h132l77 -316l75 316h134l-141 -492h-133zM198 648l47 82l207 -121l-31 -55z" />
    <glyph glyph-name="Wacute" unicode="&#x1e82;" horiz-adv-x="852" 
d="M3 0zM529 0l-103 432l-105 -432h-130l-188 664h148l109 -430l92 430h146l101 -430l108 430h142l-186 -664h-134zM360 726l-31 55l207 121l47 -82z" />
    <glyph glyph-name="wacute" unicode="&#x1e83;" horiz-adv-x="710" 
d="M3 0zM432 0l-78 286l-78 -286h-133l-140 492h137l80 -316l68 316h132l77 -316l75 316h134l-141 -492h-133zM289 554l-31 55l207 121l47 -82z" />
    <glyph glyph-name="Wdieresis" unicode="&#x1e84;" horiz-adv-x="852" 
d="M3 0zM529 0l-103 432l-105 -432h-130l-188 664h148l109 -430l92 430h146l101 -430l108 430h142l-186 -664h-134zM261 751v124h130v-124h-130zM461 751v124h130v-124h-130z" />
    <glyph glyph-name="wdieresis" unicode="&#x1e85;" horiz-adv-x="710" 
d="M3 0zM432 0l-78 286l-78 -286h-133l-140 492h137l80 -316l68 316h132l77 -316l75 316h134l-141 -492h-133zM190 579v124h130v-124h-130zM390 579v124h130v-124h-130z" />
    <glyph glyph-name="uni1EA0" unicode="&#x1ea0;" horiz-adv-x="638" 
d="M3 0zM319 515h-1l-85 -264h169zM484 0l-42 137h-245l-47 -137h-147l237 664h161l234 -664h-151zM254 -206v124h130v-124h-130z" />
    <glyph glyph-name="uni1EA1" unicode="&#x1ea1;" horiz-adv-x="481" 
d="M13 0zM325 241q-10 -10 -29 -16t-55 -13q-56 -11 -77 -28t-21 -49q0 -55 63 -55q25 0 46.5 8.5t37 23t25 34t9.5 41.5zM334 0q-6 19 -8 44q-23 -26 -61 -41.5t-88 -15.5q-85 0 -124.5 37.5t-39.5 97.5q0 53 17 84.5t47 49.5t71.5 26.5t90.5 15.5t66 18.5t17 37.5
q0 24 -22.5 37.5t-60.5 13.5q-45 0 -64.5 -20t-24.5 -53h-121q1 38 12.5 70t37 55t66.5 35.5t100 12.5q58 0 98.5 -13t65 -37.5t35.5 -61t11 -82.5v-311h-121zM170 -206v124h130v-124h-130z" />
    <glyph glyph-name="uni1EA2" unicode="&#x1ea2;" horiz-adv-x="638" 
d="M3 0zM319 515h-1l-85 -264h169zM484 0l-42 137h-245l-47 -137h-147l237 664h161l234 -664h-151zM292 753q0 17 5 30.5t20 22.5q11 6 17 12t6 18q0 17 -24 17q-8 0 -18 -3t-23 -12l-18 55q15 13 35.5 19t34.5 6q35 0 54.5 -16.5t19.5 -44.5q0 -21 -9 -33.5t-20.5 -22
t-20.5 -20t-9 -28.5h-50z" />
    <glyph glyph-name="uni1EA3" unicode="&#x1ea3;" horiz-adv-x="481" 
d="M13 0zM325 241q-10 -10 -29 -16t-55 -13q-56 -11 -77 -28t-21 -49q0 -55 63 -55q25 0 46.5 8.5t37 23t25 34t9.5 41.5zM334 0q-6 19 -8 44q-23 -26 -61 -41.5t-88 -15.5q-85 0 -124.5 37.5t-39.5 97.5q0 53 17 84.5t47 49.5t71.5 26.5t90.5 15.5t66 18.5t17 37.5
q0 24 -22.5 37.5t-60.5 13.5q-45 0 -64.5 -20t-24.5 -53h-121q1 38 12.5 70t37 55t66.5 35.5t100 12.5q58 0 98.5 -13t65 -37.5t35.5 -61t11 -82.5v-311h-121zM213 581q0 17 5 30.5t20 22.5q11 6 17 12t6 18q0 17 -24 17q-8 0 -18 -3t-23 -12l-18 55q15 13 35.5 19t34.5 6
q35 0 54.5 -16.5t19.5 -44.5q0 -21 -9 -33.5t-20.5 -22t-20.5 -20t-9 -28.5h-50z" />
    <glyph glyph-name="uni1EA4" unicode="&#x1ea4;" horiz-adv-x="638" 
d="M3 0zM319 515h-1l-85 -264h169zM484 0l-42 137h-245l-47 -137h-147l237 664h161l234 -664h-151zM321 844l-116 -101l-39 44l110 115h91l110 -115l-40 -44zM530 756l-25 46l171 100l39 -68z" />
    <glyph glyph-name="uni1EA5" unicode="&#x1ea5;" horiz-adv-x="481" 
d="M13 0zM325 241q-10 -10 -29 -16t-55 -13q-56 -11 -77 -28t-21 -49q0 -55 63 -55q25 0 46.5 8.5t37 23t25 34t9.5 41.5zM334 0q-6 19 -8 44q-23 -26 -61 -41.5t-88 -15.5q-85 0 -124.5 37.5t-39.5 97.5q0 53 17 84.5t47 49.5t71.5 26.5t90.5 15.5t66 18.5t17 37.5
q0 24 -22.5 37.5t-60.5 13.5q-45 0 -64.5 -20t-24.5 -53h-121q1 38 12.5 70t37 55t66.5 35.5t100 12.5q58 0 98.5 -13t65 -37.5t35.5 -61t11 -82.5v-311h-121zM241 672l-116 -101l-39 44l110 115h91l110 -115l-40 -44zM450 584l-25 46l171 100l39 -68z" />
    <glyph glyph-name="uni1EA6" unicode="&#x1ea6;" horiz-adv-x="638" 
d="M0 0zM319 515h-1l-85 -264h169zM484 0l-42 137h-245l-47 -137h-147l237 664h161l234 -664h-151zM318 844l-116 -101l-40 44l110 115h91l110 -115l-39 -44zM-76 834l39 68l171 -100l-25 -46z" />
    <glyph glyph-name="uni1EA7" unicode="&#x1ea7;" horiz-adv-x="481" 
d="M0 0zM325 241q-10 -10 -29 -16t-55 -13q-56 -11 -77 -28t-21 -49q0 -55 63 -55q25 0 46.5 8.5t37 23t25 34t9.5 41.5zM334 0q-6 19 -8 44q-23 -26 -61 -41.5t-88 -15.5q-85 0 -124.5 37.5t-39.5 97.5q0 53 17 84.5t47 49.5t71.5 26.5t90.5 15.5t66 18.5t17 37.5
q0 24 -22.5 37.5t-60.5 13.5q-45 0 -64.5 -20t-24.5 -53h-121q1 38 12.5 70t37 55t66.5 35.5t100 12.5q58 0 98.5 -13t65 -37.5t35.5 -61t11 -82.5v-311h-121zM236 672l-116 -101l-40 44l110 115h91l110 -115l-39 -44zM-158 662l39 68l171 -100l-25 -46z" />
    <glyph glyph-name="uni1EA8" unicode="&#x1ea8;" horiz-adv-x="638" 
d="M3 0zM319 515h-1l-85 -264h169zM484 0l-42 137h-245l-47 -137h-147l237 664h161l234 -664h-151zM493 753q0 17 5 30.5t20 22.5q11 6 17 12t6 18q0 17 -24 17q-8 0 -18 -3t-23 -12l-18 55q15 13 35.5 19t34.5 6q35 0 54.5 -16.5t19.5 -44.5q0 -21 -9 -33.5t-20.5 -22
t-20.5 -20t-9 -28.5h-50zM317 844l-116 -101l-40 44l110 115h91l110 -115l-39 -44z" />
    <glyph glyph-name="uni1EA9" unicode="&#x1ea9;" horiz-adv-x="481" 
d="M13 0zM325 241q-10 -10 -29 -16t-55 -13q-56 -11 -77 -28t-21 -49q0 -55 63 -55q25 0 46.5 8.5t37 23t25 34t9.5 41.5zM334 0q-6 19 -8 44q-23 -26 -61 -41.5t-88 -15.5q-85 0 -124.5 37.5t-39.5 97.5q0 53 17 84.5t47 49.5t71.5 26.5t90.5 15.5t66 18.5t17 37.5
q0 24 -22.5 37.5t-60.5 13.5q-45 0 -64.5 -20t-24.5 -53h-121q1 38 12.5 70t37 55t66.5 35.5t100 12.5q58 0 98.5 -13t65 -37.5t35.5 -61t11 -82.5v-311h-121zM416 581q0 17 5 30.5t20 22.5q11 6 17 12t6 18q0 17 -24 17q-8 0 -18 -3t-23 -12l-18 55q15 13 35.5 19t34.5 6
q35 0 54.5 -16.5t19.5 -44.5q0 -21 -9 -33.5t-20.5 -22t-20.5 -20t-9 -28.5h-50zM240 672l-116 -101l-40 44l110 115h91l110 -115l-39 -44z" />
    <glyph glyph-name="uni1EAA" unicode="&#x1eaa;" horiz-adv-x="638" 
d="M3 0zM319 515h-1l-85 -264h169zM484 0l-42 137h-245l-47 -137h-147l237 664h161l234 -664h-151zM448 904q-9 -36 -31.5 -48.5t-46.5 -12.5q-12 0 -26 3t-27.5 7t-25.5 7t-21 3q-16 0 -28 -32l-49 20q9 34 28 48.5t42 14.5q18 0 32 -3.5t26.5 -8t24 -8t23.5 -3.5
q11 0 18 5.5t10 21.5zM421 726l-102 70l-101 -70l-35 30l96 80h80l96 -80z" />
    <glyph glyph-name="uni1EAB" unicode="&#x1eab;" horiz-adv-x="481" 
d="M13 0zM325 241q-10 -10 -29 -16t-55 -13q-56 -11 -77 -28t-21 -49q0 -55 63 -55q25 0 46.5 8.5t37 23t25 34t9.5 41.5zM334 0q-6 19 -8 44q-23 -26 -61 -41.5t-88 -15.5q-85 0 -124.5 37.5t-39.5 97.5q0 53 17 84.5t47 49.5t71.5 26.5t90.5 15.5t66 18.5t17 37.5
q0 24 -22.5 37.5t-60.5 13.5q-45 0 -64.5 -20t-24.5 -53h-121q1 38 12.5 70t37 55t66.5 35.5t100 12.5q58 0 98.5 -13t65 -37.5t35.5 -61t11 -82.5v-311h-121zM379 732q-9 -36 -31.5 -48.5t-46.5 -12.5q-12 0 -26 3t-27.5 7t-25.5 7t-21 3q-16 0 -28 -32l-49 20
q9 34 28 48.5t42 14.5q18 0 32 -3.5t26.5 -8t24 -8t23.5 -3.5q11 0 18 5.5t10 21.5zM352 554l-102 70l-101 -70l-35 30l96 80h80l96 -80z" />
    <glyph glyph-name="uni1EAC" unicode="&#x1eac;" horiz-adv-x="638" 
d="M3 0zM319 515h-1l-85 -264h169zM484 0l-42 137h-245l-47 -137h-147l237 664h161l234 -664h-151zM319 851l-135 -118l-46 51l128 134h106l128 -134l-46 -51zM254 -206v124h130v-124h-130z" />
    <glyph glyph-name="uni1EAD" unicode="&#x1ead;" horiz-adv-x="481" 
d="M13 0zM325 241q-10 -10 -29 -16t-55 -13q-56 -11 -77 -28t-21 -49q0 -55 63 -55q25 0 46.5 8.5t37 23t25 34t9.5 41.5zM334 0q-6 19 -8 44q-23 -26 -61 -41.5t-88 -15.5q-85 0 -124.5 37.5t-39.5 97.5q0 53 17 84.5t47 49.5t71.5 26.5t90.5 15.5t66 18.5t17 37.5
q0 24 -22.5 37.5t-60.5 13.5q-45 0 -64.5 -20t-24.5 -53h-121q1 38 12.5 70t37 55t66.5 35.5t100 12.5q58 0 98.5 -13t65 -37.5t35.5 -61t11 -82.5v-311h-121zM240 679l-135 -118l-46 51l128 134h106l128 -134l-46 -51zM165 -206v124h130v-124h-130z" />
    <glyph glyph-name="uni1EAE" unicode="&#x1eae;" horiz-adv-x="638" 
d="M3 0zM319 515h-1l-85 -264h169zM484 0l-42 137h-245l-47 -137h-147l237 664h161l234 -664h-151zM430 840q0 -29 -9.5 -50t-25 -35.5t-36 -21.5t-41.5 -7t-41 7t-35.5 21.5t-25 35.5t-9.5 50h57q0 -29 14.5 -44.5t39.5 -15.5q26 0 40 15.5t15 44.5h57zM290 816l-18 33
l119 69l27 -47z" />
    <glyph glyph-name="uni1EAF" unicode="&#x1eaf;" horiz-adv-x="481" 
d="M13 0zM325 241q-10 -10 -29 -16t-55 -13q-56 -11 -77 -28t-21 -49q0 -55 63 -55q25 0 46.5 8.5t37 23t25 34t9.5 41.5zM334 0q-6 19 -8 44q-23 -26 -61 -41.5t-88 -15.5q-85 0 -124.5 37.5t-39.5 97.5q0 53 17 84.5t47 49.5t71.5 26.5t90.5 15.5t66 18.5t17 37.5
q0 24 -22.5 37.5t-60.5 13.5q-45 0 -64.5 -20t-24.5 -53h-121q1 38 12.5 70t37 55t66.5 35.5t100 12.5q58 0 98.5 -13t65 -37.5t35.5 -61t11 -82.5v-311h-121zM358 668q0 -29 -9.5 -50t-25 -35.5t-36 -21.5t-41.5 -7t-41 7t-35.5 21.5t-25 35.5t-9.5 50h57q0 -29 14.5 -44.5
t39.5 -15.5q26 0 40 15.5t15 44.5h57zM218 644l-18 33l119 69l27 -47z" />
    <glyph glyph-name="uni1EB0" unicode="&#x1eb0;" horiz-adv-x="638" 
d="M3 0zM319 515h-1l-85 -264h169zM484 0l-42 137h-245l-47 -137h-147l237 664h161l234 -664h-151zM430 840q0 -29 -9.5 -50t-25 -35.5t-35.5 -21.5t-41 -7t-41.5 7t-36 21.5t-25 35.5t-9.5 50h57q1 -29 15 -44.5t40 -15.5q25 0 39.5 15.5t14.5 44.5h57zM219 871l27 47
l119 -69l-18 -33z" />
    <glyph glyph-name="uni1EB1" unicode="&#x1eb1;" horiz-adv-x="481" 
d="M13 0zM325 241q-10 -10 -29 -16t-55 -13q-56 -11 -77 -28t-21 -49q0 -55 63 -55q25 0 46.5 8.5t37 23t25 34t9.5 41.5zM334 0q-6 19 -8 44q-23 -26 -61 -41.5t-88 -15.5q-85 0 -124.5 37.5t-39.5 97.5q0 53 17 84.5t47 49.5t71.5 26.5t90.5 15.5t66 18.5t17 37.5
q0 24 -22.5 37.5t-60.5 13.5q-45 0 -64.5 -20t-24.5 -53h-121q1 38 12.5 70t37 55t66.5 35.5t100 12.5q58 0 98.5 -13t65 -37.5t35.5 -61t11 -82.5v-311h-121zM358 668q0 -29 -9.5 -50t-25 -35.5t-35.5 -21.5t-41 -7t-41.5 7t-36 21.5t-25 35.5t-9.5 50h57q1 -29 15 -44.5
t40 -15.5q25 0 39.5 15.5t14.5 44.5h57zM147 699l27 47l119 -69l-18 -33z" />
    <glyph glyph-name="uni1EB2" unicode="&#x1eb2;" horiz-adv-x="638" 
d="M3 0zM319 515h-1l-85 -264h169zM484 0l-42 137h-245l-47 -137h-147l237 664h161l234 -664h-151zM430 840q0 -29 -9.5 -50t-25 -35.5t-35.5 -21.5t-41 -7t-41.5 7t-36 21.5t-25 35.5t-9.5 50h57q1 -29 15 -44.5t40 -15.5q25 0 39.5 15.5t14.5 44.5h57zM293 795q0 13 4 23
t15 17q8 5 12.5 9t4.5 13q0 13 -18 13q-13 0 -31 -11l-13 40q11 10 26 14.5t26 4.5q26 0 40.5 -12.5t14.5 -32.5q0 -16 -7 -25t-15 -16.5t-15 -15.5t-7 -21h-37z" />
    <glyph glyph-name="uni1EB3" unicode="&#x1eb3;" horiz-adv-x="481" 
d="M13 0zM325 241q-10 -10 -29 -16t-55 -13q-56 -11 -77 -28t-21 -49q0 -55 63 -55q25 0 46.5 8.5t37 23t25 34t9.5 41.5zM334 0q-6 19 -8 44q-23 -26 -61 -41.5t-88 -15.5q-85 0 -124.5 37.5t-39.5 97.5q0 53 17 84.5t47 49.5t71.5 26.5t90.5 15.5t66 18.5t17 37.5
q0 24 -22.5 37.5t-60.5 13.5q-45 0 -64.5 -20t-24.5 -53h-121q1 38 12.5 70t37 55t66.5 35.5t100 12.5q58 0 98.5 -13t65 -37.5t35.5 -61t11 -82.5v-311h-121zM356 668q0 -29 -9.5 -50t-25 -35.5t-35.5 -21.5t-41 -7t-41.5 7t-36 21.5t-25 35.5t-9.5 50h57q1 -29 15 -44.5
t40 -15.5q25 0 39.5 15.5t14.5 44.5h57zM219 623q0 13 4 23t15 17q8 5 12.5 9t4.5 13q0 13 -18 13q-13 0 -31 -11l-13 40q11 10 26 14.5t26 4.5q26 0 40.5 -12.5t14.5 -32.5q0 -16 -7 -25t-15 -16.5t-15 -15.5t-7 -21h-37z" />
    <glyph glyph-name="uni1EB4" unicode="&#x1eb4;" horiz-adv-x="638" 
d="M3 0zM319 515h-1l-85 -264h169zM484 0l-42 137h-245l-47 -137h-147l237 664h161l234 -664h-151zM410 908q-6 -28 -21 -41t-32 -13q-10 0 -18.5 3.5t-16.5 7.5t-16.5 7.5t-17.5 3.5q-5 0 -8.5 -4.5t-8.5 -18.5l-37 18q8 25 21 35t30 10q10 0 18.5 -3.5t17 -8t17 -8
t18.5 -3.5q12 0 15 25zM430 840q0 -29 -9.5 -50t-25 -35.5t-35.5 -21.5t-41 -7t-41.5 7t-36 21.5t-25 35.5t-9.5 50h57q1 -29 15 -44.5t40 -15.5q25 0 39.5 15.5t14.5 44.5h57z" />
    <glyph glyph-name="uni1EB5" unicode="&#x1eb5;" horiz-adv-x="481" 
d="M13 0zM325 241q-10 -10 -29 -16t-55 -13q-56 -11 -77 -28t-21 -49q0 -55 63 -55q25 0 46.5 8.5t37 23t25 34t9.5 41.5zM334 0q-6 19 -8 44q-23 -26 -61 -41.5t-88 -15.5q-85 0 -124.5 37.5t-39.5 97.5q0 53 17 84.5t47 49.5t71.5 26.5t90.5 15.5t66 18.5t17 37.5
q0 24 -22.5 37.5t-60.5 13.5q-45 0 -64.5 -20t-24.5 -53h-121q1 38 12.5 70t37 55t66.5 35.5t100 12.5q58 0 98.5 -13t65 -37.5t35.5 -61t11 -82.5v-311h-121zM332 736q-6 -28 -21 -41t-32 -13q-10 0 -18.5 3.5t-16.5 7.5t-16.5 7.5t-17.5 3.5q-5 0 -8.5 -4.5t-8.5 -18.5
l-37 18q8 25 21 35t30 10q10 0 18.5 -3.5t17 -8t17 -8t18.5 -3.5q12 0 15 25zM352 668q0 -29 -9.5 -50t-25 -35.5t-35.5 -21.5t-41 -7t-41.5 7t-36 21.5t-25 35.5t-9.5 50h57q1 -29 15 -44.5t40 -15.5q25 0 39.5 15.5t14.5 44.5h57z" />
    <glyph glyph-name="uni1EB6" unicode="&#x1eb6;" horiz-adv-x="638" 
d="M3 0zM319 515h-1l-85 -264h169zM484 0l-42 137h-245l-47 -137h-147l237 664h161l234 -664h-151zM481 918q0 -42 -13.5 -73t-36 -51.5t-52 -31t-60.5 -10.5t-60.5 10.5t-52 31t-36 51.5t-13.5 73h82q2 -42 22.5 -64.5t57.5 -22.5t57.5 22.5t22.5 64.5h82zM254 -206v124
h130v-124h-130z" />
    <glyph glyph-name="uni1EB7" unicode="&#x1eb7;" horiz-adv-x="481" 
d="M13 0zM325 241q-10 -10 -29 -16t-55 -13q-56 -11 -77 -28t-21 -49q0 -55 63 -55q25 0 46.5 8.5t37 23t25 34t9.5 41.5zM334 0q-6 19 -8 44q-23 -26 -61 -41.5t-88 -15.5q-85 0 -124.5 37.5t-39.5 97.5q0 53 17 84.5t47 49.5t71.5 26.5t90.5 15.5t66 18.5t17 37.5
q0 24 -22.5 37.5t-60.5 13.5q-45 0 -64.5 -20t-24.5 -53h-121q1 38 12.5 70t37 55t66.5 35.5t100 12.5q58 0 98.5 -13t65 -37.5t35.5 -61t11 -82.5v-311h-121zM402 746q0 -42 -13.5 -73t-36 -51.5t-52 -31t-60.5 -10.5t-60.5 10.5t-52 31t-36 51.5t-13.5 73h82
q2 -42 22.5 -64.5t57.5 -22.5t57.5 22.5t22.5 64.5h82zM165 -206v124h130v-124h-130z" />
    <glyph glyph-name="uni1EB8" unicode="&#x1eb8;" horiz-adv-x="527" 
d="M23 0zM23 0v664h488v-116h-353v-142h325v-117h-325v-171h369v-118h-504zM215 -206v124h130v-124h-130z" />
    <glyph glyph-name="uni1EB9" unicode="&#x1eb9;" 
d="M15 0zM350 294q-1 27 -9.5 47.5t-22.5 34t-32 20t-37 6.5q-39 0 -67.5 -28.5t-32.5 -79.5h201zM145 212q3 -56 32.5 -89t77.5 -33q32 0 56.5 14.5t31.5 40.5h134q-23 -76 -80 -117t-136 -41q-246 0 -246 268q0 57 16 103t46.5 79t74.5 50.5t101 17.5q114 0 172.5 -73
t58.5 -220h-339zM181 -206v124h130v-124h-130z" />
    <glyph glyph-name="uni1EBA" unicode="&#x1eba;" horiz-adv-x="527" 
d="M23 0zM23 0v664h488v-116h-353v-142h325v-117h-325v-171h369v-118h-504zM255 753q0 17 5 30.5t20 22.5q11 6 17 12t6 18q0 17 -24 17q-8 0 -18 -3t-23 -12l-18 55q15 13 35.5 19t34.5 6q35 0 54.5 -16.5t19.5 -44.5q0 -21 -9 -33.5t-20.5 -22t-20.5 -20t-9 -28.5h-50z
" />
    <glyph glyph-name="uni1EBB" unicode="&#x1ebb;" 
d="M15 0zM350 294q-1 27 -9.5 47.5t-22.5 34t-32 20t-37 6.5q-39 0 -67.5 -28.5t-32.5 -79.5h201zM145 212q3 -56 32.5 -89t77.5 -33q32 0 56.5 14.5t31.5 40.5h134q-23 -76 -80 -117t-136 -41q-246 0 -246 268q0 57 16 103t46.5 79t74.5 50.5t101 17.5q114 0 172.5 -73
t58.5 -220h-339zM215 581q0 17 5 30.5t20 22.5q11 6 17 12t6 18q0 17 -24 17q-8 0 -18 -3t-23 -12l-18 55q15 13 35.5 19t34.5 6q35 0 54.5 -16.5t19.5 -44.5q0 -21 -9 -33.5t-20.5 -22t-20.5 -20t-9 -28.5h-50z" />
    <glyph glyph-name="uni1EBC" unicode="&#x1ebc;" horiz-adv-x="527" 
d="M23 0zM23 0v664h488v-116h-353v-142h325v-117h-325v-171h369v-118h-504zM435 846q-17 -54 -47 -76t-62 -22q-19 0 -35.5 7t-31.5 15.5t-30 15.5t-31 7q-6 0 -18 -8t-21 -36l-69 37q16 49 41 68.5t56 19.5q23 0 41 -7.5t34 -16.5t30 -16.5t28 -7.5q9 0 22 10.5t18 36.5z
" />
    <glyph glyph-name="uni1EBD" unicode="&#x1ebd;" 
d="M15 0zM350 294q-1 27 -9.5 47.5t-22.5 34t-32 20t-37 6.5q-39 0 -67.5 -28.5t-32.5 -79.5h201zM145 212q3 -56 32.5 -89t77.5 -33q32 0 56.5 14.5t31.5 40.5h134q-23 -76 -80 -117t-136 -41q-246 0 -246 268q0 57 16 103t46.5 79t74.5 50.5t101 17.5q114 0 172.5 -73
t58.5 -220h-339zM421 674q-17 -54 -47 -76t-62 -22q-19 0 -35.5 7t-31.5 15.5t-30 15.5t-31 7q-6 0 -18 -8t-21 -36l-69 37q16 49 41 68.5t56 19.5q23 0 41 -7.5t34 -16.5t30 -16.5t28 -7.5q9 0 22 10.5t18 36.5z" />
    <glyph glyph-name="uni1EBE" unicode="&#x1ebe;" horiz-adv-x="527" 
d="M23 0zM23 0v664h488v-116h-353v-142h325v-117h-325v-171h369v-118h-504zM273 844l-116 -101l-39 44l110 115h91l110 -115l-40 -44zM482 756l-25 46l171 100l39 -68z" />
    <glyph glyph-name="uni1EBF" unicode="&#x1ebf;" 
d="M15 0zM350 294q-1 27 -9.5 47.5t-22.5 34t-32 20t-37 6.5q-39 0 -67.5 -28.5t-32.5 -79.5h201zM145 212q3 -56 32.5 -89t77.5 -33q32 0 56.5 14.5t31.5 40.5h134q-23 -76 -80 -117t-136 -41q-246 0 -246 268q0 57 16 103t46.5 79t74.5 50.5t101 17.5q114 0 172.5 -73
t58.5 -220h-339zM250 672l-116 -101l-39 44l110 115h91l110 -115l-40 -44zM459 584l-25 46l171 100l39 -68z" />
    <glyph glyph-name="uni1EC0" unicode="&#x1ec0;" horiz-adv-x="527" 
d="M0 0zM23 0v664h488v-116h-353v-142h325v-117h-325v-171h369v-118h-504zM268 844l-116 -101l-40 44l110 115h91l110 -115l-39 -44zM-126 834l39 68l171 -100l-25 -46z" />
    <glyph glyph-name="uni1EC1" unicode="&#x1ec1;" 
d="M0 0zM350 294q-1 27 -9.5 47.5t-22.5 34t-32 20t-37 6.5q-39 0 -67.5 -28.5t-32.5 -79.5h201zM145 212q3 -56 32.5 -89t77.5 -33q32 0 56.5 14.5t31.5 40.5h134q-23 -76 -80 -117t-136 -41q-246 0 -246 268q0 57 16 103t46.5 79t74.5 50.5t101 17.5q114 0 172.5 -73
t58.5 -220h-339zM240 672l-116 -101l-40 44l110 115h91l110 -115l-39 -44zM-154 662l39 68l171 -100l-25 -46z" />
    <glyph glyph-name="uni1EC2" unicode="&#x1ec2;" horiz-adv-x="527" 
d="M23 0zM23 0v664h488v-116h-353v-142h325v-117h-325v-171h369v-118h-504zM449 753q0 17 5 30.5t20 22.5q11 6 17 12t6 18q0 17 -24 17q-8 0 -18 -3t-23 -12l-18 55q15 13 35.5 19t34.5 6q35 0 54.5 -16.5t19.5 -44.5q0 -21 -9 -33.5t-20.5 -22t-20.5 -20t-9 -28.5h-50z
M273 844l-116 -101l-40 44l110 115h91l110 -115l-39 -44z" />
    <glyph glyph-name="uni1EC3" unicode="&#x1ec3;" 
d="M15 0zM350 294q-1 27 -9.5 47.5t-22.5 34t-32 20t-37 6.5q-39 0 -67.5 -28.5t-32.5 -79.5h201zM145 212q3 -56 32.5 -89t77.5 -33q32 0 56.5 14.5t31.5 40.5h134q-23 -76 -80 -117t-136 -41q-246 0 -246 268q0 57 16 103t46.5 79t74.5 50.5t101 17.5q114 0 172.5 -73
t58.5 -220h-339zM428 581q0 17 5 30.5t20 22.5q11 6 17 12t6 18q0 17 -24 17q-8 0 -18 -3t-23 -12l-18 55q15 13 35.5 19t34.5 6q35 0 54.5 -16.5t19.5 -44.5q0 -21 -9 -33.5t-20.5 -22t-20.5 -20t-9 -28.5h-50zM252 672l-116 -101l-40 44l110 115h91l110 -115l-39 -44z" />
    <glyph glyph-name="uni1EC4" unicode="&#x1ec4;" horiz-adv-x="527" 
d="M23 0zM23 0v664h488v-116h-353v-142h325v-117h-325v-171h369v-118h-504zM402 904q-9 -36 -31.5 -48.5t-46.5 -12.5q-12 0 -26 3t-27.5 7t-25.5 7t-21 3q-16 0 -28 -32l-49 20q9 34 28 48.5t42 14.5q18 0 32 -3.5t26.5 -8t24 -8t23.5 -3.5q11 0 18 5.5t10 21.5zM375 726
l-102 70l-101 -70l-35 30l96 80h80l96 -80z" />
    <glyph glyph-name="uni1EC5" unicode="&#x1ec5;" 
d="M15 0zM350 294q-1 27 -9.5 47.5t-22.5 34t-32 20t-37 6.5q-39 0 -67.5 -28.5t-32.5 -79.5h201zM145 212q3 -56 32.5 -89t77.5 -33q32 0 56.5 14.5t31.5 40.5h134q-23 -76 -80 -117t-136 -41q-246 0 -246 268q0 57 16 103t46.5 79t74.5 50.5t101 17.5q114 0 172.5 -73
t58.5 -220h-339zM378 732q-9 -36 -31.5 -48.5t-46.5 -12.5q-12 0 -26 3t-27.5 7t-25.5 7t-21 3q-16 0 -28 -32l-49 20q9 34 28 48.5t42 14.5q18 0 32 -3.5t26.5 -8t24 -8t23.5 -3.5q11 0 18 5.5t10 21.5zM351 554l-102 70l-101 -70l-35 30l96 80h80l96 -80z" />
    <glyph glyph-name="uni1EC6" unicode="&#x1ec6;" horiz-adv-x="527" 
d="M23 0zM23 0v664h488v-116h-353v-142h325v-117h-325v-171h369v-118h-504zM271 851l-135 -118l-46 51l128 134h106l128 -134l-46 -51zM198 -206v124h130v-124h-130z" />
    <glyph glyph-name="uni1EC7" unicode="&#x1ec7;" 
d="M15 0zM350 294q-1 27 -9.5 47.5t-22.5 34t-32 20t-37 6.5q-39 0 -67.5 -28.5t-32.5 -79.5h201zM145 212q3 -56 32.5 -89t77.5 -33q32 0 56.5 14.5t31.5 40.5h134q-23 -76 -80 -117t-136 -41q-246 0 -246 268q0 57 16 103t46.5 79t74.5 50.5t101 17.5q114 0 172.5 -73
t58.5 -220h-339zM249 679l-135 -118l-46 51l128 134h106l128 -134l-46 -51zM184 -206v124h130v-124h-130z" />
    <glyph glyph-name="uni1EC8" unicode="&#x1ec8;" horiz-adv-x="184" 
d="M23 0zM23 0v664h139v-664h-139zM66 753q0 17 5 30.5t20 22.5q11 6 17 12t6 18q0 17 -24 17q-8 0 -18 -3t-23 -12l-18 55q15 13 35.5 19t34.5 6q35 0 54.5 -16.5t19.5 -44.5q0 -21 -9 -33.5t-20.5 -22t-20.5 -20t-9 -28.5h-50z" />
    <glyph glyph-name="uni1EC9" unicode="&#x1ec9;" horiz-adv-x="188" 
d="M29 0zM29 0v492h130v-492h-130zM68 581q0 17 5 30.5t20 22.5q11 6 17 12t6 18q0 17 -24 17q-8 0 -18 -3t-23 -12l-18 55q15 13 35.5 19t34.5 6q35 0 54.5 -16.5t19.5 -44.5q0 -21 -9 -33.5t-20.5 -22t-20.5 -20t-9 -28.5h-50z" />
    <glyph glyph-name="uni1ECA" unicode="&#x1eca;" horiz-adv-x="184" 
d="M23 0zM23 0v664h139v-664h-139zM28 -206v124h130v-124h-130z" />
    <glyph glyph-name="uni1ECB" unicode="&#x1ecb;" horiz-adv-x="188" 
d="M29 0zM29 0v492h130v-492h-130zM29 551v121h130v-121h-130zM30 -206v124h130v-124h-130z" />
    <glyph glyph-name="uni1ECC" unicode="&#x1ecc;" horiz-adv-x="666" 
d="M15 0zM334 96q37 0 70 13.5t57.5 41t38.5 70.5t14 102q0 118 -46 179t-134 61t-135 -61t-47 -179t47.5 -172.5t134.5 -54.5zM334 -23q-154 0 -236.5 90t-82.5 259q0 84 21 151t62 113.5t100 71t136 24.5q76 0 135.5 -24.5t99.5 -71.5t61 -114.5t21 -152.5
q0 -172 -81.5 -259t-235.5 -87zM268 -206v124h130v-124h-130z" />
    <glyph glyph-name="uni1ECD" unicode="&#x1ecd;" horiz-adv-x="534" 
d="M15 0zM268 96q119 0 119 150q0 149 -119 149t-119 -149q0 -150 119 -150zM268 -13q-60 0 -107 19t-79.5 53t-49.5 82t-17 105q0 58 17.5 106t50.5 82t79.5 52.5t105.5 18.5q58 0 104 -18.5t78.5 -52t50 -81.5t17.5 -107t-17.5 -106.5t-50 -81.5t-79 -52.5t-103.5 -18.5z
M202 -206v124h130v-124h-130z" />
    <glyph glyph-name="uni1ECE" unicode="&#x1ece;" horiz-adv-x="666" 
d="M15 0zM334 96q37 0 70 13.5t57.5 41t38.5 70.5t14 102q0 118 -46 179t-134 61t-135 -61t-47 -179t47.5 -172.5t134.5 -54.5zM334 -23q-154 0 -236.5 90t-82.5 259q0 84 21 151t62 113.5t100 71t136 24.5q76 0 135.5 -24.5t99.5 -71.5t61 -114.5t21 -152.5
q0 -172 -81.5 -259t-235.5 -87zM306 753q0 17 5 30.5t20 22.5q11 6 17 12t6 18q0 17 -24 17q-8 0 -18 -3t-23 -12l-18 55q15 13 35.5 19t34.5 6q35 0 54.5 -16.5t19.5 -44.5q0 -21 -9 -33.5t-20.5 -22t-20.5 -20t-9 -28.5h-50z" />
    <glyph glyph-name="uni1ECF" unicode="&#x1ecf;" horiz-adv-x="534" 
d="M15 0zM268 96q119 0 119 150q0 149 -119 149t-119 -149q0 -150 119 -150zM268 -13q-60 0 -107 19t-79.5 53t-49.5 82t-17 105q0 58 17.5 106t50.5 82t79.5 52.5t105.5 18.5q58 0 104 -18.5t78.5 -52t50 -81.5t17.5 -107t-17.5 -106.5t-50 -81.5t-79 -52.5t-103.5 -18.5z
M240 581q0 17 5 30.5t20 22.5q11 6 17 12t6 18q0 17 -24 17q-8 0 -18 -3t-23 -12l-18 55q15 13 35.5 19t34.5 6q35 0 54.5 -16.5t19.5 -44.5q0 -21 -9 -33.5t-20.5 -22t-20.5 -20t-9 -28.5h-50z" />
    <glyph glyph-name="uni1ED0" unicode="&#x1ed0;" horiz-adv-x="666" 
d="M15 0zM334 96q37 0 70 13.5t57.5 41t38.5 70.5t14 102q0 118 -46 179t-134 61t-135 -61t-47 -179t47.5 -172.5t134.5 -54.5zM334 -23q-154 0 -236.5 90t-82.5 259q0 84 21 151t62 113.5t100 71t136 24.5q76 0 135.5 -24.5t99.5 -71.5t61 -114.5t21 -152.5
q0 -172 -81.5 -259t-235.5 -87zM333 844l-116 -101l-39 44l110 115h91l110 -115l-40 -44zM542 756l-25 46l171 100l39 -68z" />
    <glyph glyph-name="uni1ED1" unicode="&#x1ed1;" horiz-adv-x="534" 
d="M15 0zM268 96q119 0 119 150q0 149 -119 149t-119 -149q0 -150 119 -150zM268 -13q-60 0 -107 19t-79.5 53t-49.5 82t-17 105q0 58 17.5 106t50.5 82t79.5 52.5t105.5 18.5q58 0 104 -18.5t78.5 -52t50 -81.5t17.5 -107t-17.5 -106.5t-50 -81.5t-79 -52.5t-103.5 -18.5z
M276 672l-116 -101l-39 44l110 115h91l110 -115l-40 -44zM485 584l-25 46l171 100l39 -68z" />
    <glyph glyph-name="uni1ED2" unicode="&#x1ed2;" horiz-adv-x="666" 
d="M0 0zM334 96q37 0 70 13.5t57.5 41t38.5 70.5t14 102q0 118 -46 179t-134 61t-135 -61t-47 -179t47.5 -172.5t134.5 -54.5zM334 -23q-154 0 -236.5 90t-82.5 259q0 84 21 151t62 113.5t100 71t136 24.5q76 0 135.5 -24.5t99.5 -71.5t61 -114.5t21 -152.5
q0 -172 -81.5 -259t-235.5 -87zM335 844l-116 -101l-40 44l110 115h91l110 -115l-39 -44zM-59 834l39 68l171 -100l-25 -46z" />
    <glyph glyph-name="uni1ED3" unicode="&#x1ed3;" horiz-adv-x="534" 
d="M0 0zM268 96q119 0 119 150q0 149 -119 149t-119 -149q0 -150 119 -150zM268 -13q-60 0 -107 19t-79.5 53t-49.5 82t-17 105q0 58 17.5 106t50.5 82t79.5 52.5t105.5 18.5q58 0 104 -18.5t78.5 -52t50 -81.5t17.5 -107t-17.5 -106.5t-50 -81.5t-79 -52.5t-103.5 -18.5z
M267 672l-116 -101l-40 44l110 115h91l110 -115l-39 -44zM-127 662l39 68l171 -100l-25 -46z" />
    <glyph glyph-name="uni1ED4" unicode="&#x1ed4;" horiz-adv-x="666" 
d="M15 0zM334 96q37 0 70 13.5t57.5 41t38.5 70.5t14 102q0 118 -46 179t-134 61t-135 -61t-47 -179t47.5 -172.5t134.5 -54.5zM334 -23q-154 0 -236.5 90t-82.5 259q0 84 21 151t62 113.5t100 71t136 24.5q76 0 135.5 -24.5t99.5 -71.5t61 -114.5t21 -152.5
q0 -172 -81.5 -259t-235.5 -87zM507 753q0 17 5 30.5t20 22.5q11 6 17 12t6 18q0 17 -24 17q-8 0 -18 -3t-23 -12l-18 55q15 13 35.5 19t34.5 6q35 0 54.5 -16.5t19.5 -44.5q0 -21 -9 -33.5t-20.5 -22t-20.5 -20t-9 -28.5h-50zM331 844l-116 -101l-40 44l110 115h91
l110 -115l-39 -44z" />
    <glyph glyph-name="uni1ED5" unicode="&#x1ed5;" horiz-adv-x="534" 
d="M15 0zM268 96q119 0 119 150q0 149 -119 149t-119 -149q0 -150 119 -150zM268 -13q-60 0 -107 19t-79.5 53t-49.5 82t-17 105q0 58 17.5 106t50.5 82t79.5 52.5t105.5 18.5q58 0 104 -18.5t78.5 -52t50 -81.5t17.5 -107t-17.5 -106.5t-50 -81.5t-79 -52.5t-103.5 -18.5z
M449 581q0 17 5 30.5t20 22.5q11 6 17 12t6 18q0 17 -24 17q-8 0 -18 -3t-23 -12l-18 55q15 13 35.5 19t34.5 6q35 0 54.5 -16.5t19.5 -44.5q0 -21 -9 -33.5t-20.5 -22t-20.5 -20t-9 -28.5h-50zM273 672l-116 -101l-40 44l110 115h91l110 -115l-39 -44z" />
    <glyph glyph-name="uni1ED6" unicode="&#x1ed6;" horiz-adv-x="666" 
d="M15 0zM334 96q37 0 70 13.5t57.5 41t38.5 70.5t14 102q0 118 -46 179t-134 61t-135 -61t-47 -179t47.5 -172.5t134.5 -54.5zM334 -23q-154 0 -236.5 90t-82.5 259q0 84 21 151t62 113.5t100 71t136 24.5q76 0 135.5 -24.5t99.5 -71.5t61 -114.5t21 -152.5
q0 -172 -81.5 -259t-235.5 -87zM462 904q-9 -36 -31.5 -48.5t-46.5 -12.5q-12 0 -26 3t-27.5 7t-25.5 7t-21 3q-16 0 -28 -32l-49 20q9 34 28 48.5t42 14.5q18 0 32 -3.5t26.5 -8t24 -8t23.5 -3.5q11 0 18 5.5t10 21.5zM435 726l-102 70l-101 -70l-35 30l96 80h80l96 -80z
" />
    <glyph glyph-name="uni1ED7" unicode="&#x1ed7;" horiz-adv-x="534" 
d="M15 0zM268 96q119 0 119 150q0 149 -119 149t-119 -149q0 -150 119 -150zM268 -13q-60 0 -107 19t-79.5 53t-49.5 82t-17 105q0 58 17.5 106t50.5 82t79.5 52.5t105.5 18.5q58 0 104 -18.5t78.5 -52t50 -81.5t17.5 -107t-17.5 -106.5t-50 -81.5t-79 -52.5t-103.5 -18.5z
M396 732q-9 -36 -31.5 -48.5t-46.5 -12.5q-12 0 -26 3t-27.5 7t-25.5 7t-21 3q-16 0 -28 -32l-49 20q9 34 28 48.5t42 14.5q18 0 32 -3.5t26.5 -8t24 -8t23.5 -3.5q11 0 18 5.5t10 21.5zM369 554l-102 70l-101 -70l-35 30l96 80h80l96 -80z" />
    <glyph glyph-name="uni1ED8" unicode="&#x1ed8;" horiz-adv-x="666" 
d="M15 0zM334 96q37 0 70 13.5t57.5 41t38.5 70.5t14 102q0 118 -46 179t-134 61t-135 -61t-47 -179t47.5 -172.5t134.5 -54.5zM334 -23q-154 0 -236.5 90t-82.5 259q0 84 21 151t62 113.5t100 71t136 24.5q76 0 135.5 -24.5t99.5 -71.5t61 -114.5t21 -152.5
q0 -172 -81.5 -259t-235.5 -87zM333 851l-135 -118l-46 51l128 134h106l128 -134l-46 -51zM268 -206v124h130v-124h-130z" />
    <glyph glyph-name="uni1ED9" unicode="&#x1ed9;" horiz-adv-x="534" 
d="M15 0zM268 96q119 0 119 150q0 149 -119 149t-119 -149q0 -150 119 -150zM268 -13q-60 0 -107 19t-79.5 53t-49.5 82t-17 105q0 58 17.5 106t50.5 82t79.5 52.5t105.5 18.5q58 0 104 -18.5t78.5 -52t50 -81.5t17.5 -107t-17.5 -106.5t-50 -81.5t-79 -52.5t-103.5 -18.5z
M267 679l-135 -118l-46 51l128 134h106l128 -134l-46 -51zM202 -206v124h130v-124h-130z" />
    <glyph glyph-name="uni1EDA" unicode="&#x1eda;" horiz-adv-x="765" 
d="M15 0zM752 702q10 -11 15.5 -32.5t5.5 -45.5q0 -57 -25.5 -82t-66.5 -25q-35 0 -74 15q44 -85 44 -209q0 -172 -81.5 -259t-235.5 -87t-236.5 90t-82.5 259q0 84 21 151t62 113.5t100 71t136 24.5q126 0 206 -68q24 -20 50 -27.5t53 -7.5q29 0 38.5 19.5t9.5 43.5
q0 17 -2.5 32t-6.5 24h70zM334 96q37 0 70 13.5t57.5 41t38.5 70.5t14 102q0 118 -46 179t-134 61t-135 -61t-47 -179t47.5 -172.5t134.5 -54.5zM266 726l-31 55l207 121l47 -82z" />
    <glyph glyph-name="uni1EDB" unicode="&#x1edb;" horiz-adv-x="647" 
d="M15 0zM634 543q10 -11 15.5 -32.5t5.5 -45.5q0 -20 -4 -39t-13.5 -34t-25 -24.5t-37.5 -9.5q-49 0 -83 14q26 -55 26 -126q0 -59 -17.5 -106.5t-50 -81.5t-79 -52.5t-103.5 -18.5q-60 0 -107 19t-79.5 53t-49.5 82t-17 105q0 58 17.5 106t50.5 82t79.5 52.5t105.5 18.5
q91 0 154 -46q30 -22 54.5 -28.5t48.5 -6.5q29 0 38.5 19.5t9.5 43.5q0 17 -2.5 32t-6.5 24h70zM268 96q119 0 119 150q0 149 -119 149t-119 -149q0 -150 119 -150zM200 554l-31 55l207 121l47 -82z" />
    <glyph glyph-name="uni1EDC" unicode="&#x1edc;" horiz-adv-x="765" 
d="M15 0zM752 702q10 -11 15.5 -32.5t5.5 -45.5q0 -57 -25.5 -82t-66.5 -25q-35 0 -74 15q44 -85 44 -209q0 -172 -81.5 -259t-235.5 -87t-236.5 90t-82.5 259q0 84 21 151t62 113.5t100 71t136 24.5q126 0 206 -68q24 -20 50 -27.5t53 -7.5q29 0 38.5 19.5t9.5 43.5
q0 17 -2.5 32t-6.5 24h70zM334 96q37 0 70 13.5t57.5 41t38.5 70.5t14 102q0 118 -46 179t-134 61t-135 -61t-47 -179t47.5 -172.5t134.5 -54.5zM175 820l47 82l207 -121l-31 -55z" />
    <glyph glyph-name="uni1EDD" unicode="&#x1edd;" horiz-adv-x="647" 
d="M15 0zM634 543q10 -11 15.5 -32.5t5.5 -45.5q0 -20 -4 -39t-13.5 -34t-25 -24.5t-37.5 -9.5q-49 0 -83 14q26 -55 26 -126q0 -59 -17.5 -106.5t-50 -81.5t-79 -52.5t-103.5 -18.5q-60 0 -107 19t-79.5 53t-49.5 82t-17 105q0 58 17.5 106t50.5 82t79.5 52.5t105.5 18.5
q91 0 154 -46q30 -22 54.5 -28.5t48.5 -6.5q29 0 38.5 19.5t9.5 43.5q0 17 -2.5 32t-6.5 24h70zM268 96q119 0 119 150q0 149 -119 149t-119 -149q0 -150 119 -150zM109 648l47 82l207 -121l-31 -55z" />
    <glyph glyph-name="uni1EDE" unicode="&#x1ede;" horiz-adv-x="765" 
d="M15 0zM752 702q10 -11 15.5 -32.5t5.5 -45.5q0 -57 -25.5 -82t-66.5 -25q-35 0 -74 15q44 -85 44 -209q0 -172 -81.5 -259t-235.5 -87t-236.5 90t-82.5 259q0 84 21 151t62 113.5t100 71t136 24.5q126 0 206 -68q24 -20 50 -27.5t53 -7.5q29 0 38.5 19.5t9.5 43.5
q0 17 -2.5 32t-6.5 24h70zM334 96q37 0 70 13.5t57.5 41t38.5 70.5t14 102q0 118 -46 179t-134 61t-135 -61t-47 -179t47.5 -172.5t134.5 -54.5zM299 753q0 17 5 30.5t20 22.5q11 6 17 12t6 18q0 17 -24 17q-8 0 -18 -3t-23 -12l-18 55q15 13 35.5 19t34.5 6
q35 0 54.5 -16.5t19.5 -44.5q0 -21 -9 -33.5t-20.5 -22t-20.5 -20t-9 -28.5h-50z" />
    <glyph glyph-name="uni1EDF" unicode="&#x1edf;" horiz-adv-x="647" 
d="M15 0zM634 543q10 -11 15.5 -32.5t5.5 -45.5q0 -20 -4 -39t-13.5 -34t-25 -24.5t-37.5 -9.5q-49 0 -83 14q26 -55 26 -126q0 -59 -17.5 -106.5t-50 -81.5t-79 -52.5t-103.5 -18.5q-60 0 -107 19t-79.5 53t-49.5 82t-17 105q0 58 17.5 106t50.5 82t79.5 52.5t105.5 18.5
q91 0 154 -46q30 -22 54.5 -28.5t48.5 -6.5q29 0 38.5 19.5t9.5 43.5q0 17 -2.5 32t-6.5 24h70zM268 96q119 0 119 150q0 149 -119 149t-119 -149q0 -150 119 -150zM239 581q0 17 5 30.5t20 22.5q11 6 17 12t6 18q0 17 -24 17q-8 0 -18 -3t-23 -12l-18 55q15 13 35.5 19
t34.5 6q35 0 54.5 -16.5t19.5 -44.5q0 -21 -9 -33.5t-20.5 -22t-20.5 -20t-9 -28.5h-50z" />
    <glyph glyph-name="uni1EE0" unicode="&#x1ee0;" horiz-adv-x="765" 
d="M15 0zM752 702q10 -11 15.5 -32.5t5.5 -45.5q0 -57 -25.5 -82t-66.5 -25q-35 0 -74 15q44 -85 44 -209q0 -172 -81.5 -259t-235.5 -87t-236.5 90t-82.5 259q0 84 21 151t62 113.5t100 71t136 24.5q126 0 206 -68q24 -20 50 -27.5t53 -7.5q29 0 38.5 19.5t9.5 43.5
q0 17 -2.5 32t-6.5 24h70zM334 96q37 0 70 13.5t57.5 41t38.5 70.5t14 102q0 118 -46 179t-134 61t-135 -61t-47 -179t47.5 -172.5t134.5 -54.5zM499 846q-17 -54 -47 -76t-62 -22q-19 0 -35.5 7t-31.5 15.5t-30 15.5t-31 7q-6 0 -18 -8t-21 -36l-69 37q16 49 41 68.5
t56 19.5q23 0 41 -7.5t34 -16.5t30 -16.5t28 -7.5q9 0 22 10.5t18 36.5z" />
    <glyph glyph-name="uni1EE1" unicode="&#x1ee1;" horiz-adv-x="647" 
d="M15 0zM634 543q10 -11 15.5 -32.5t5.5 -45.5q0 -20 -4 -39t-13.5 -34t-25 -24.5t-37.5 -9.5q-49 0 -83 14q26 -55 26 -126q0 -59 -17.5 -106.5t-50 -81.5t-79 -52.5t-103.5 -18.5q-60 0 -107 19t-79.5 53t-49.5 82t-17 105q0 58 17.5 106t50.5 82t79.5 52.5t105.5 18.5
q91 0 154 -46q30 -22 54.5 -28.5t48.5 -6.5q29 0 38.5 19.5t9.5 43.5q0 17 -2.5 32t-6.5 24h70zM268 96q119 0 119 150q0 149 -119 149t-119 -149q0 -150 119 -150zM440 674q-17 -54 -47 -76t-62 -22q-19 0 -35.5 7t-31.5 15.5t-30 15.5t-31 7q-6 0 -18 -8t-21 -36l-69 37
q16 49 41 68.5t56 19.5q23 0 41 -7.5t34 -16.5t30 -16.5t28 -7.5q9 0 22 10.5t18 36.5z" />
    <glyph glyph-name="uni1EE2" unicode="&#x1ee2;" horiz-adv-x="765" 
d="M15 0zM752 702q10 -11 15.5 -32.5t5.5 -45.5q0 -57 -25.5 -82t-66.5 -25q-35 0 -74 15q44 -85 44 -209q0 -172 -81.5 -259t-235.5 -87t-236.5 90t-82.5 259q0 84 21 151t62 113.5t100 71t136 24.5q126 0 206 -68q24 -20 50 -27.5t53 -7.5q29 0 38.5 19.5t9.5 43.5
q0 17 -2.5 32t-6.5 24h70zM334 96q37 0 70 13.5t57.5 41t38.5 70.5t14 102q0 118 -46 179t-134 61t-135 -61t-47 -179t47.5 -172.5t134.5 -54.5zM267 -206v124h130v-124h-130z" />
    <glyph glyph-name="uni1EE3" unicode="&#x1ee3;" horiz-adv-x="647" 
d="M15 0zM634 543q10 -11 15.5 -32.5t5.5 -45.5q0 -20 -4 -39t-13.5 -34t-25 -24.5t-37.5 -9.5q-49 0 -83 14q26 -55 26 -126q0 -59 -17.5 -106.5t-50 -81.5t-79 -52.5t-103.5 -18.5q-60 0 -107 19t-79.5 53t-49.5 82t-17 105q0 58 17.5 106t50.5 82t79.5 52.5t105.5 18.5
q91 0 154 -46q30 -22 54.5 -28.5t48.5 -6.5q29 0 38.5 19.5t9.5 43.5q0 17 -2.5 32t-6.5 24h70zM268 96q119 0 119 150q0 149 -119 149t-119 -149q0 -150 119 -150zM201 -206v124h130v-124h-130z" />
    <glyph glyph-name="uni1EE4" unicode="&#x1ee4;" horiz-adv-x="581" 
d="M23 0zM416 664h142v-443q0 -121 -71 -182.5t-202 -61.5q-121 0 -191.5 58t-70.5 178v451h141v-438q0 -62 31 -98t88 -36q133 0 133 129v443zM225 -206v124h130v-124h-130z" />
    <glyph glyph-name="uni1EE5" unicode="&#x1ee5;" horiz-adv-x="495" 
d="M26 0zM346 0v69q-50 -82 -153 -82q-37 0 -67.5 13t-52.5 37t-34.5 57t-12.5 74v324h130v-304q0 -92 83 -92q50 0 75.5 31.5t25.5 80.5v284h129v-492h-123zM182 -206v124h130v-124h-130z" />
    <glyph glyph-name="uni1EE6" unicode="&#x1ee6;" horiz-adv-x="581" 
d="M23 0zM416 664h142v-443q0 -121 -71 -182.5t-202 -61.5q-121 0 -191.5 58t-70.5 178v451h141v-438q0 -62 31 -98t88 -36q133 0 133 129v443zM263 753q0 17 5 30.5t20 22.5q11 6 17 12t6 18q0 17 -24 17q-8 0 -18 -3t-23 -12l-18 55q15 13 35.5 19t34.5 6q35 0 54.5 -16.5
t19.5 -44.5q0 -21 -9 -33.5t-20.5 -22t-20.5 -20t-9 -28.5h-50z" />
    <glyph glyph-name="uni1EE7" unicode="&#x1ee7;" horiz-adv-x="495" 
d="M26 0zM346 0v69q-50 -82 -153 -82q-37 0 -67.5 13t-52.5 37t-34.5 57t-12.5 74v324h130v-304q0 -92 83 -92q50 0 75.5 31.5t25.5 80.5v284h129v-492h-123zM220 581q0 17 5 30.5t20 22.5q11 6 17 12t6 18q0 17 -24 17q-8 0 -18 -3t-23 -12l-18 55q15 13 35.5 19t34.5 6
q35 0 54.5 -16.5t19.5 -44.5q0 -21 -9 -33.5t-20.5 -22t-20.5 -20t-9 -28.5h-50z" />
    <glyph glyph-name="uni1EE8" unicode="&#x1ee8;" horiz-adv-x="743" 
d="M23 0zM416 664h142v-73q14 -5 27.5 -6.5t27.5 -1.5q29 0 38.5 19.5t9.5 43.5q0 17 -2.5 32t-6.5 24h70q10 -11 15.5 -32.5t5.5 -45.5q0 -57 -26.5 -82.5t-67.5 -25.5q-44 0 -91 26v-321q0 -121 -71 -182.5t-202 -61.5q-121 0 -191.5 58t-70.5 178v451h141v-438
q0 -62 31 -98t88 -36q133 0 133 129v443zM230 726l-31 55l207 121l47 -82z" />
    <glyph glyph-name="uni1EE9" unicode="&#x1ee9;" horiz-adv-x="633" 
d="M26 0zM346 0v69q-50 -82 -153 -82q-37 0 -67.5 13t-52.5 37t-34.5 57t-12.5 74v324h130v-304q0 -92 83 -92q50 0 75.5 31.5t25.5 80.5v284h129v-64q19 -4 42 -4q29 0 38.5 19.5t9.5 43.5q0 17 -2.5 32t-6.5 24h70q10 -11 15.5 -32.5t5.5 -45.5q0 -57 -26 -82t-67 -25
q-37 0 -79 18v-376h-123zM183 554l-31 55l207 121l47 -82z" />
    <glyph glyph-name="uni1EEA" unicode="&#x1eea;" horiz-adv-x="743" 
d="M23 0zM416 664h142v-73q14 -5 27.5 -6.5t27.5 -1.5q29 0 38.5 19.5t9.5 43.5q0 17 -2.5 32t-6.5 24h70q10 -11 15.5 -32.5t5.5 -45.5q0 -57 -26.5 -82.5t-67.5 -25.5q-44 0 -91 26v-321q0 -121 -71 -182.5t-202 -61.5q-121 0 -191.5 58t-70.5 178v451h141v-438
q0 -62 31 -98t88 -36q133 0 133 129v443zM140 820l47 82l207 -121l-31 -55z" />
    <glyph glyph-name="uni1EEB" unicode="&#x1eeb;" horiz-adv-x="633" 
d="M26 0zM346 0v69q-50 -82 -153 -82q-37 0 -67.5 13t-52.5 37t-34.5 57t-12.5 74v324h130v-304q0 -92 83 -92q50 0 75.5 31.5t25.5 80.5v284h129v-64q19 -4 42 -4q29 0 38.5 19.5t9.5 43.5q0 17 -2.5 32t-6.5 24h70q10 -11 15.5 -32.5t5.5 -45.5q0 -57 -26 -82t-67 -25
q-37 0 -79 18v-376h-123zM92 648l47 82l207 -121l-31 -55z" />
    <glyph glyph-name="uni1EEC" unicode="&#x1eec;" horiz-adv-x="743" 
d="M23 0zM416 664h142v-73q14 -5 27.5 -6.5t27.5 -1.5q29 0 38.5 19.5t9.5 43.5q0 17 -2.5 32t-6.5 24h70q10 -11 15.5 -32.5t5.5 -45.5q0 -57 -26.5 -82.5t-67.5 -25.5q-44 0 -91 26v-321q0 -121 -71 -182.5t-202 -61.5q-121 0 -191.5 58t-70.5 178v451h141v-438
q0 -62 31 -98t88 -36q133 0 133 129v443zM264 753q0 17 5 30.5t20 22.5q11 6 17 12t6 18q0 17 -24 17q-8 0 -18 -3t-23 -12l-18 55q15 13 35.5 19t34.5 6q35 0 54.5 -16.5t19.5 -44.5q0 -21 -9 -33.5t-20.5 -22t-20.5 -20t-9 -28.5h-50z" />
    <glyph glyph-name="uni1EED" unicode="&#x1eed;" horiz-adv-x="633" 
d="M26 0zM346 0v69q-50 -82 -153 -82q-37 0 -67.5 13t-52.5 37t-34.5 57t-12.5 74v324h130v-304q0 -92 83 -92q50 0 75.5 31.5t25.5 80.5v284h129v-64q19 -4 42 -4q29 0 38.5 19.5t9.5 43.5q0 17 -2.5 32t-6.5 24h70q10 -11 15.5 -32.5t5.5 -45.5q0 -57 -26 -82t-67 -25
q-37 0 -79 18v-376h-123zM219 581q0 17 5 30.5t20 22.5q11 6 17 12t6 18q0 17 -24 17q-8 0 -18 -3t-23 -12l-18 55q15 13 35.5 19t34.5 6q35 0 54.5 -16.5t19.5 -44.5q0 -21 -9 -33.5t-20.5 -22t-20.5 -20t-9 -28.5h-50z" />
    <glyph glyph-name="uni1EEE" unicode="&#x1eee;" horiz-adv-x="743" 
d="M23 0zM416 664h142v-73q14 -5 27.5 -6.5t27.5 -1.5q29 0 38.5 19.5t9.5 43.5q0 17 -2.5 32t-6.5 24h70q10 -11 15.5 -32.5t5.5 -45.5q0 -57 -26.5 -82.5t-67.5 -25.5q-44 0 -91 26v-321q0 -121 -71 -182.5t-202 -61.5q-121 0 -191.5 58t-70.5 178v451h141v-438
q0 -62 31 -98t88 -36q133 0 133 129v443zM465 846q-17 -54 -47 -76t-62 -22q-19 0 -35.5 7t-31.5 15.5t-30 15.5t-31 7q-6 0 -18 -8t-21 -36l-69 37q16 49 41 68.5t56 19.5q23 0 41 -7.5t34 -16.5t30 -16.5t28 -7.5q9 0 22 10.5t18 36.5z" />
    <glyph glyph-name="uni1EEF" unicode="&#x1eef;" horiz-adv-x="633" 
d="M26 0zM346 0v69q-50 -82 -153 -82q-37 0 -67.5 13t-52.5 37t-34.5 57t-12.5 74v324h130v-304q0 -92 83 -92q50 0 75.5 31.5t25.5 80.5v284h129v-64q19 -4 42 -4q29 0 38.5 19.5t9.5 43.5q0 17 -2.5 32t-6.5 24h70q10 -11 15.5 -32.5t5.5 -45.5q0 -57 -26 -82t-67 -25
q-37 0 -79 18v-376h-123zM425 674q-17 -54 -47 -76t-62 -22q-19 0 -35.5 7t-31.5 15.5t-30 15.5t-31 7q-6 0 -18 -8t-21 -36l-69 37q16 49 41 68.5t56 19.5q23 0 41 -7.5t34 -16.5t30 -16.5t28 -7.5q9 0 22 10.5t18 36.5z" />
    <glyph glyph-name="uni1EF0" unicode="&#x1ef0;" horiz-adv-x="743" 
d="M23 0zM416 664h142v-73q14 -5 27.5 -6.5t27.5 -1.5q29 0 38.5 19.5t9.5 43.5q0 17 -2.5 32t-6.5 24h70q10 -11 15.5 -32.5t5.5 -45.5q0 -57 -26.5 -82.5t-67.5 -25.5q-44 0 -91 26v-321q0 -121 -71 -182.5t-202 -61.5q-121 0 -191.5 58t-70.5 178v451h141v-438
q0 -62 31 -98t88 -36q133 0 133 129v443zM226 -206v124h130v-124h-130z" />
    <glyph glyph-name="uni1EF1" unicode="&#x1ef1;" horiz-adv-x="633" 
d="M26 0zM346 0v69q-50 -82 -153 -82q-37 0 -67.5 13t-52.5 37t-34.5 57t-12.5 74v324h130v-304q0 -92 83 -92q50 0 75.5 31.5t25.5 80.5v284h129v-64q19 -4 42 -4q29 0 38.5 19.5t9.5 43.5q0 17 -2.5 32t-6.5 24h70q10 -11 15.5 -32.5t5.5 -45.5q0 -57 -26 -82t-67 -25
q-37 0 -79 18v-376h-123zM175 -206v124h130v-124h-130z" />
    <glyph glyph-name="Ygrave" unicode="&#x1ef2;" horiz-adv-x="597" 
d="M3 0zM233 0v251l-230 413h162l140 -270l129 270h160l-222 -415v-249h-139zM146 820l47 82l207 -121l-31 -55z" />
    <glyph glyph-name="ygrave" unicode="&#x1ef3;" horiz-adv-x="495" 
d="M26 0zM339 65q-14 -33 -50.5 -51.5t-82.5 -18.5q-39 0 -72 12.5t-57 36t-37.5 56t-13.5 73.5v319h130v-300q0 -92 83 -92q45 0 72.5 26t27.5 66v300h130v-505q0 -52 -17.5 -93t-48 -69t-72 -43t-88.5 -15q-109 0 -163 55t-54 151h121q0 -44 25.5 -69t76.5 -25
q18 0 34 7.5t28.5 21t20 33.5t7.5 44v80zM90 648l47 82l207 -121l-31 -55z" />
    <glyph glyph-name="endash" unicode="&#x2013;" horiz-adv-x="431" 
d="M13 257v101h405v-101h-405z" />
    <glyph glyph-name="emdash" unicode="&#x2014;" horiz-adv-x="612" 
d="M13 257v101h586v-101h-586z" />
    <glyph glyph-name="quoteleft" unicode="&#x2018;" horiz-adv-x="184" 
d="M161 400q-39 8 -65.5 23t-42.5 37.5t-23 54.5t-7 74v102h138v-135h-77q1 -48 20 -72t57 -34v-50z" />
    <glyph glyph-name="quoteright" unicode="&#x2019;" horiz-adv-x="184" 
d="M24 450q38 10 57 34t20 72h-77v135h138v-102q0 -42 -7 -74t-23 -54.5t-42.5 -37.5t-65.5 -23v50z" />
    <glyph glyph-name="quotesinglbase" unicode="&#x201a;" horiz-adv-x="195" 
d="M30 -106q38 10 57 34t20 72h-77v135h138v-102q0 -42 -7 -74t-23 -54.5t-42.5 -37.5t-65.5 -23v50z" />
    <glyph glyph-name="quotedblleft" unicode="&#x201c;" horiz-adv-x="368" 
d="M23 400zM161 400q-39 8 -65.5 23t-42.5 37.5t-23 54.5t-7 74v102h138v-135h-77q1 -48 20 -72t57 -34v-50zM345 400q-39 8 -65.5 23t-42.5 37.5t-23 54.5t-7 74v102h138v-135h-77q1 -48 20 -72t57 -34v-50z" />
    <glyph glyph-name="quotedblright" unicode="&#x201d;" horiz-adv-x="368" 
d="M24 400zM24 450q38 10 57 34t20 72h-77v135h138v-102q0 -42 -7 -74t-23 -54.5t-42.5 -37.5t-65.5 -23v50zM208 450q38 10 57 34t20 72h-77v135h138v-102q0 -42 -7 -74t-23 -54.5t-42.5 -37.5t-65.5 -23v50z" />
    <glyph glyph-name="quotedblbase" unicode="&#x201e;" horiz-adv-x="390" 
d="M30 0zM30 -106q38 10 57 34t20 72h-77v135h138v-102q0 -42 -7 -74t-23 -54.5t-42.5 -37.5t-65.5 -23v50zM225 -106q38 10 57 34t20 72h-77v135h138v-102q0 -42 -7 -74t-23 -54.5t-42.5 -37.5t-65.5 -23v50z" />
    <glyph glyph-name="dagger" unicode="&#x2020;" horiz-adv-x="530" 
d="M218 0v435h-183v80h183v149h102v-149h175v-80h-175v-435h-102z" />
    <glyph glyph-name="daggerdbl" unicode="&#x2021;" horiz-adv-x="530" 
d="M320 149v-149h-102v149h-183v80h183v206h-183v80h183v149h102v-149h175v-80h-175v-206h175v-80h-175z" />
    <glyph glyph-name="bullet" unicode="&#x2022;" horiz-adv-x="418" 
d="M371 343q0 -30 -12.5 -56t-34.5 -45t-51.5 -30t-63.5 -11q-35 0 -65 11t-52 30t-34.5 45t-12.5 56q0 31 12.5 57.5t34.5 45.5t52 29.5t65 10.5q34 0 63.5 -10.5t51.5 -29.5t34.5 -45.5t12.5 -57.5z" />
    <glyph glyph-name="ellipsis" unicode="&#x2026;" horiz-adv-x="920" 
d="M23 0zM23 0v135h139v-135h-139zM391 0v135h139v-135h-139zM759 0v135h139v-135h-139z" />
    <glyph glyph-name="perthousand" unicode="&#x2030;" horiz-adv-x="862" 
d="M18 0zM133 384q24 0 35.5 28t11.5 96q0 69 -11.5 97.5t-35.5 28.5q-23 0 -35 -28t-12 -97t12 -97t35 -28zM131 331q-54 0 -83.5 42.5t-29.5 136.5t29.5 135t83.5 41t84.5 -41t30.5 -134t-30.5 -136.5t-84.5 -43.5zM27 -20l461 704h68l-462 -704h-67zM455 31q24 0 35.5 28
t11.5 96q0 69 -11.5 97.5t-35.5 28.5q-23 0 -35 -28t-12 -97t12 -97t35 -28zM453 -22q-54 0 -83.5 42.5t-29.5 136.5t29.5 135t83.5 41t84.5 -41t30.5 -134t-30.5 -136.5t-84.5 -43.5zM737 31q24 0 35.5 28t11.5 96q0 69 -11.5 97.5t-35.5 28.5q-23 0 -35 -28t-12 -97
t12 -97t35 -28zM735 -22q-54 0 -83.5 42.5t-29.5 136.5t29.5 135t83.5 41t84.5 -41t30.5 -134t-30.5 -136.5t-84.5 -43.5z" />
    <glyph glyph-name="guilsinglleft" unicode="&#x2039;" horiz-adv-x="232" 
d="M13 317l143 174l63 -68l-94 -106l94 -105l-63 -67z" />
    <glyph glyph-name="guilsinglright" unicode="&#x203a;" horiz-adv-x="232" 
d="M13 212l94 105l-94 106l63 68l143 -174l-143 -172z" />
    <glyph glyph-name="fraction" unicode="&#x2044;" horiz-adv-x="131" 
d="M-199 -20l461 704h68l-462 -704h-67z" />
    <glyph glyph-name="zerosuperior" unicode="&#x2070;" horiz-adv-x="272" 
d="M23 331zM138 384q24 0 35.5 28t11.5 96q0 69 -11.5 97.5t-35.5 28.5q-23 0 -35 -28t-12 -97t12 -97t35 -28zM136 331q-54 0 -83.5 42.5t-29.5 136.5t29.5 135t83.5 41t84.5 -41t30.5 -134t-30.5 -136.5t-84.5 -43.5z" />
    <glyph glyph-name="foursuperior" unicode="&#x2074;" horiz-adv-x="265" 
d="M17 343zM147 583l-68 -117h68v117zM146 343v72h-129v57l121 203h73v-209h37v-51h-37v-72h-65z" />
    <glyph glyph-name="fivesuperior" unicode="&#x2075;" horiz-adv-x="272" 
d="M28 331zM29 473l7 202h204v-55h-146l-3 -89q13 14 30 18.5t36 4.5q41 0 68.5 -27t27.5 -77q0 -54 -32 -86.5t-83 -32.5q-23 0 -42.5 7t-34.5 20t-23.5 31t-9.5 39h65q2 -20 13.5 -32t31.5 -12q27 0 38.5 17t11.5 46q0 26 -11.5 40.5t-34.5 14.5q-32 0 -46 -29h-67z" />
    <glyph glyph-name="sixsuperior" unicode="&#x2076;" horiz-adv-x="271" 
d="M22 331zM138 384q23 0 34.5 18t11.5 45q0 29 -13 45.5t-34 16.5q-22 0 -36 -17t-14 -44q0 -29 13.5 -46.5t37.5 -17.5zM178 603q-3 31 -35 31q-27 0 -40.5 -25.5t-16.5 -79.5q12 14 27.5 22.5t40.5 8.5q40 0 67 -29t27 -81q0 -51 -30 -85t-79 -34q-117 0 -117 167
q0 100 30.5 144t93.5 44q40 0 65.5 -21.5t30.5 -61.5h-64z" />
    <glyph glyph-name="sevensuperior" unicode="&#x2077;" horiz-adv-x="266" 
d="M17 343zM62 343q6 72 35 143t82 131h-162v58h232v-50q-56 -63 -86 -135t-34 -147h-67z" />
    <glyph glyph-name="eightsuperior" unicode="&#x2078;" horiz-adv-x="275" 
d="M22 331zM137 385q26 0 37 14.5t11 40.5q0 23 -11.5 37.5t-36.5 14.5t-36 -14.5t-11 -37.5q0 -55 47 -55zM137 543q20 0 30.5 12.5t10.5 32.5t-10.5 32.5t-30.5 12.5t-30 -12.5t-10 -32.5t10 -32.5t30 -12.5zM203 524q23 -10 36 -33t13 -51q0 -48 -28 -78.5t-86 -30.5
t-87 30.5t-29 75.5q0 29 13 50.5t39 33.5q-20 11 -28.5 31.5t-8.5 41.5q0 40 28.5 66t72.5 26q49 0 74 -26t25 -64q0 -22 -7.5 -42t-26.5 -30z" />
    <glyph glyph-name="ninesuperior" unicode="&#x2079;" horiz-adv-x="271" 
d="M22 331zM134 508q22 0 35.5 17t13.5 44q0 29 -13 46.5t-37 17.5q-23 0 -35 -18t-12 -45q0 -29 13 -45.5t35 -16.5zM93 414q2 -31 35 -31q50 0 56 105q-11 -14 -27 -22.5t-41 -8.5q-39 0 -66.5 29t-27.5 81q0 51 30 85t80 34q116 0 116 -167q0 -100 -30.5 -144t-92.5 -44
q-41 0 -66.5 21.5t-30.5 61.5h65z" />
    <glyph glyph-name="zeroinferior" unicode="&#x2080;" horiz-adv-x="272" 
d="M138 31q24 0 35.5 28t11.5 96q0 69 -11.5 97.5t-35.5 28.5q-23 0 -35 -28t-12 -97t12 -97t35 -28zM136 -22q-54 0 -83.5 42.5t-29.5 136.5t29.5 135t83.5 41t84.5 -41t30.5 -134t-30.5 -136.5t-84.5 -43.5z" />
    <glyph glyph-name="oneinferior" unicode="&#x2081;" horiz-adv-x="176" 
d="M85 -10v229h-68v45q43 0 60 14.5t20 43.5h53v-332h-65z" />
    <glyph glyph-name="twoinferior" unicode="&#x2082;" horiz-adv-x="260" 
d="M17 -10q0 23 3.5 43t14.5 39.5t30.5 39.5t51.5 43q35 26 48 42t13 37q0 25 -13 34t-33 9q-22 0 -35 -12.5t-13 -46.5h-63q0 54 28.5 84.5t79.5 30.5t82 -24t31 -73q0 -19 -5 -34.5t-16.5 -30.5t-29.5 -30.5t-45 -34.5q-20 -14 -32.5 -30.5t-13.5 -29.5h143v-56h-226z" />
    <glyph glyph-name="threeinferior" unicode="&#x2083;" horiz-adv-x="267" 
d="M107 184q42 0 54.5 13.5t12.5 32.5q0 51 -43 51q-19 0 -31.5 -14.5t-12.5 -40.5h-60q0 48 29.5 77.5t77.5 29.5q43 0 73 -25t30 -66q0 -23 -9.5 -43t-29.5 -31q23 -10 36 -30t13 -52q0 -51 -32 -79.5t-85 -28.5q-52 0 -80.5 29t-28.5 80h63q0 -55 49 -55q20 0 34 14.5
t14 40.5q0 29 -16.5 40.5t-57.5 11.5v45z" />
    <glyph glyph-name="fourinferior" unicode="&#x2084;" horiz-adv-x="265" 
d="M147 230l-68 -117h68v117zM146 -10v72h-129v57l121 203h73v-209h37v-51h-37v-72h-65z" />
    <glyph glyph-name="fiveinferior" unicode="&#x2085;" horiz-adv-x="272" 
d="M29 120l7 202h204v-55h-146l-3 -89q13 14 30 18.5t36 4.5q41 0 68.5 -27t27.5 -77q0 -54 -32 -86.5t-83 -32.5q-23 0 -42.5 7t-34.5 20t-23.5 31t-9.5 39h65q2 -20 13.5 -32t31.5 -12q27 0 38.5 17t11.5 46q0 26 -11.5 40.5t-34.5 14.5q-32 0 -46 -29h-67z" />
    <glyph glyph-name="sixinferior" unicode="&#x2086;" horiz-adv-x="271" 
d="M138 31q23 0 34.5 18t11.5 45q0 29 -13 45.5t-34 16.5q-22 0 -36 -17t-14 -44q0 -29 13.5 -46.5t37.5 -17.5zM178 250q-3 31 -35 31q-27 0 -40.5 -25.5t-16.5 -79.5q12 14 27.5 22.5t40.5 8.5q40 0 67 -29t27 -81q0 -51 -30 -85t-79 -34q-117 0 -117 167q0 100 30.5 144
t93.5 44q40 0 65.5 -21.5t30.5 -61.5h-64z" />
    <glyph glyph-name="seveninferior" unicode="&#x2087;" horiz-adv-x="266" 
d="M62 -10q6 72 35 143t82 131h-162v58h232v-50q-56 -63 -86 -135t-34 -147h-67z" />
    <glyph glyph-name="eightinferior" unicode="&#x2088;" horiz-adv-x="275" 
d="M137 32q26 0 37 14.5t11 40.5q0 23 -11.5 37.5t-36.5 14.5t-36 -14.5t-11 -37.5q0 -55 47 -55zM137 190q20 0 30.5 12.5t10.5 32.5t-10.5 32.5t-30.5 12.5t-30 -12.5t-10 -32.5t10 -32.5t30 -12.5zM203 171q23 -10 36 -33t13 -51q0 -48 -28 -78.5t-86 -30.5t-87 30.5
t-29 75.5q0 29 13 50.5t39 33.5q-20 11 -28.5 31.5t-8.5 41.5q0 40 28.5 66t72.5 26q49 0 74 -26t25 -64q0 -22 -7.5 -42t-26.5 -30z" />
    <glyph glyph-name="nineinferior" unicode="&#x2089;" horiz-adv-x="271" 
d="M134 155q22 0 35.5 17t13.5 44q0 29 -13 46.5t-37 17.5q-23 0 -35 -18t-12 -45q0 -29 13 -45.5t35 -16.5zM93 61q2 -31 35 -31q50 0 56 105q-11 -14 -27 -22.5t-41 -8.5q-39 0 -66.5 29t-27.5 81q0 51 30 85t80 34q116 0 116 -167q0 -100 -30.5 -144t-92.5 -44
q-41 0 -66.5 21.5t-30.5 61.5h65z" />
    <glyph glyph-name="dong" unicode="&#x20ab;" horiz-adv-x="533" 
d="M314 110l-1 50q-19 -32 -47 -46.5t-64 -14.5q-38 0 -69.5 15t-54.5 43.5t-36 69.5t-13 93q0 46 11 85t32 67.5t51.5 44t69.5 15.5q73 0 118 -64v101h-121v59h121v44h104v-44h94v-59h-94v-459h-101zM226 187q38 0 63.5 33t25.5 85q0 134 -88 134q-91 0 -91 -127
q0 -55 25 -90t65 -35zM31 0v59h448v-59h-448z" />
    <glyph glyph-name="Euro" unicode="&#x20ac;" horiz-adv-x="621" 
d="M602 101q-38 -58 -100.5 -91t-140.5 -33q-52 0 -99.5 14.5t-86 43.5t-66.5 72t-42 100h-58l18 76h28q-1 10 -1 20v21v17t1 15h-46l18 78h37q32 119 105 185.5t194 66.5q50 0 92 -13t81 -37l-64 -117q-20 24 -49.5 35.5t-58.5 11.5q-57 0 -97 -34.5t-59 -97.5h219l-41 -78
h-192q0 -20 0.5 -41t2.5 -32h149l-41 -76h-89q21 -52 56.5 -80.5t83.5 -28.5q92 0 130 68z" />
    <glyph glyph-name="trademark" unicode="&#x2122;" horiz-adv-x="463" 
d="M81 407v206h-66v51h184v-51h-64v-206h-54zM389 407v142l-55 -142l-61 148v-147h-51v256h62l49 -132l48 132h60v-257h-52z" />
    <glyph glyph-name="uni2126" unicode="&#x2126;" horiz-adv-x="646" 
d="M12 0zM383 0v100q48 46 74.5 116t26.5 177q0 94 -41 138t-120 44t-119.5 -44t-40.5 -138q0 -53 8 -97t21.5 -80t31.5 -65t39 -51v-100h-239v110h99q-23 17 -43 45t-35 65t-24 81t-9 93q0 68 18.5 122t57 92t97 58t138.5 20q160 0 235.5 -78t75.5 -214q0 -49 -9 -93
t-24 -81t-35.5 -65t-42.5 -45h99v-110h-239z" />
    <glyph glyph-name="onethird" unicode="&#x2153;" horiz-adv-x="616" 
d="M17 0zM105 343v229h-68v45q43 0 60 14.5t20 43.5h53v-332h-65zM17 -20l461 704h68l-462 -704h-67zM464 184q42 0 54.5 13.5t12.5 32.5q0 51 -43 51q-19 0 -31.5 -14.5t-12.5 -40.5h-60q0 48 29.5 77.5t77.5 29.5q43 0 73 -25t30 -66q0 -23 -9.5 -43t-29.5 -31
q23 -10 36 -30t13 -52q0 -51 -32 -79.5t-85 -28.5q-52 0 -80.5 29t-28.5 80h63q0 -55 49 -55q20 0 34 14.5t14 40.5q0 29 -16.5 40.5t-57.5 11.5v45z" />
    <glyph glyph-name="twothirds" unicode="&#x2154;" horiz-adv-x="630" 
d="M17 0zM17 343q0 23 3.5 43t14.5 39.5t30.5 39.5t51.5 43q35 26 48 42t13 37q0 25 -13 34t-33 9q-22 0 -35 -12.5t-13 -46.5h-63q0 54 28.5 84.5t79.5 30.5t82 -24t31 -73q0 -19 -5 -34.5t-16.5 -30.5t-29.5 -30.5t-45 -34.5q-20 -14 -32.5 -30.5t-13.5 -29.5h143v-56
h-226zM51 -20l461 704h68l-462 -704h-67zM478 184q42 0 54.5 13.5t12.5 32.5q0 51 -43 51q-19 0 -31.5 -14.5t-12.5 -40.5h-60q0 48 29.5 77.5t77.5 29.5q43 0 73 -25t30 -66q0 -23 -9.5 -43t-29.5 -31q23 -10 36 -30t13 -52q0 -51 -32 -79.5t-85 -28.5q-52 0 -80.5 29
t-28.5 80h63q0 -55 49 -55q20 0 34 14.5t14 40.5q0 29 -16.5 40.5t-57.5 11.5v45z" />
    <glyph glyph-name="oneeighth" unicode="&#x215b;" horiz-adv-x="601" 
d="M17 0zM105 343v229h-68v45q43 0 60 14.5t20 43.5h53v-332h-65zM17 -20l461 704h68l-462 -704h-67zM474 32q26 0 37 14.5t11 40.5q0 23 -11.5 37.5t-36.5 14.5t-36 -14.5t-11 -37.5q0 -55 47 -55zM474 190q20 0 30.5 12.5t10.5 32.5t-10.5 32.5t-30.5 12.5t-30 -12.5
t-10 -32.5t10 -32.5t30 -12.5zM540 171q23 -10 36 -33t13 -51q0 -48 -28 -78.5t-86 -30.5t-87 30.5t-29 75.5q0 29 13 50.5t39 33.5q-20 11 -28.5 31.5t-8.5 41.5q0 40 28.5 66t72.5 26q49 0 74 -26t25 -64q0 -22 -7.5 -42t-26.5 -30z" />
    <glyph glyph-name="threeeighths" unicode="&#x215c;" horiz-adv-x="618" 
d="M18 0zM104 537q42 0 54.5 13.5t12.5 32.5q0 51 -43 51q-19 0 -31.5 -14.5t-12.5 -40.5h-60q0 48 29.5 77.5t77.5 29.5q43 0 73 -25t30 -66q0 -23 -9.5 -43t-29.5 -31q23 -10 36 -30t13 -52q0 -51 -32 -79.5t-85 -28.5q-52 0 -80.5 29t-28.5 80h63q0 -55 49 -55
q20 0 34 14.5t14 40.5q0 29 -16.5 40.5t-57.5 11.5v45zM44 -20l461 704h68l-462 -704h-67zM491 32q26 0 37 14.5t11 40.5q0 23 -11.5 37.5t-36.5 14.5t-36 -14.5t-11 -37.5q0 -55 47 -55zM491 190q20 0 30.5 12.5t10.5 32.5t-10.5 32.5t-30.5 12.5t-30 -12.5t-10 -32.5
t10 -32.5t30 -12.5zM557 171q23 -10 36 -33t13 -51q0 -48 -28 -78.5t-86 -30.5t-87 30.5t-29 75.5q0 29 13 50.5t39 33.5q-20 11 -28.5 31.5t-8.5 41.5q0 40 28.5 66t72.5 26q49 0 74 -26t25 -64q0 -22 -7.5 -42t-26.5 -30z" />
    <glyph glyph-name="fiveeighths" unicode="&#x215d;" horiz-adv-x="616" 
d="M18 0zM19 473l7 202h204v-55h-146l-3 -89q13 14 30 18.5t36 4.5q41 0 68.5 -27t27.5 -77q0 -54 -32 -86.5t-83 -32.5q-23 0 -42.5 7t-34.5 20t-23.5 31t-9.5 39h65q2 -20 13.5 -32t31.5 -12q27 0 38.5 17t11.5 46q0 26 -11.5 40.5t-34.5 14.5q-32 0 -46 -29h-67zM42 -20
l461 704h68l-462 -704h-67zM489 32q26 0 37 14.5t11 40.5q0 23 -11.5 37.5t-36.5 14.5t-36 -14.5t-11 -37.5q0 -55 47 -55zM489 190q20 0 30.5 12.5t10.5 32.5t-10.5 32.5t-30.5 12.5t-30 -12.5t-10 -32.5t10 -32.5t30 -12.5zM555 171q23 -10 36 -33t13 -51q0 -48 -28 -78.5
t-86 -30.5t-87 30.5t-29 75.5q0 29 13 50.5t39 33.5q-20 11 -28.5 31.5t-8.5 41.5q0 40 28.5 66t72.5 26q49 0 74 -26t25 -64q0 -22 -7.5 -42t-26.5 -30z" />
    <glyph glyph-name="seveneighths" unicode="&#x215e;" horiz-adv-x="621" 
d="M17 0zM62 343q6 72 35 143t82 131h-162v58h232v-50q-56 -63 -86 -135t-34 -147h-67zM27 -20l461 704h68l-462 -704h-67zM494 32q26 0 37 14.5t11 40.5q0 23 -11.5 37.5t-36.5 14.5t-36 -14.5t-11 -37.5q0 -55 47 -55zM494 190q20 0 30.5 12.5t10.5 32.5t-10.5 32.5
t-30.5 12.5t-30 -12.5t-10 -32.5t10 -32.5t30 -12.5zM560 171q23 -10 36 -33t13 -51q0 -48 -28 -78.5t-86 -30.5t-87 30.5t-29 75.5q0 29 13 50.5t39 33.5q-20 11 -28.5 31.5t-8.5 41.5q0 40 28.5 66t72.5 26q49 0 74 -26t25 -64q0 -22 -7.5 -42t-26.5 -30z" />
    <glyph glyph-name="partialdiff" unicode="&#x2202;" horiz-adv-x="567" 
d="M408 273q-7 10 -21 20t-32 17.5t-39.5 12t-43.5 4.5q-112 0 -112 -113q0 -65 35 -93.5t90 -28.5q24 0 46 10.5t39 32.5t27.5 56.5t10.5 81.5zM57 636q24 21 75.5 35.5t123.5 14.5q59 0 111 -16.5t91 -58.5t62 -114.5t23 -185.5q0 -66 -13 -126.5t-44.5 -106.5t-85 -73.5
t-134.5 -27.5q-58 0 -103 17.5t-76 49t-47 75.5t-16 98q0 109 63.5 166t174.5 57q17 0 36.5 -3t38 -8.5t35.5 -14.5t29 -21q0 46 -11.5 79.5t-31.5 56t-46.5 33.5t-55.5 11q-54 0 -89.5 -9t-65.5 -30z" />
    <glyph glyph-name="uni2206" unicode="&#x2206;" horiz-adv-x="638" 
d="M3 0zM3 0l237 664h161l234 -664h-632zM187 114h260l-128 401h-1z" />
    <glyph glyph-name="product" unicode="&#x220f;" horiz-adv-x="593" 
d="M435 -233v805h-279v-805h-113v897h506v-897h-114z" />
    <glyph glyph-name="summation" unicode="&#x2211;" horiz-adv-x="521" 
d="M29 -182v79l174 344l-174 344v79h463v-108h-303l150 -315l-150 -316h303v-107h-463z" />
    <glyph glyph-name="minus" unicode="&#x2212;" horiz-adv-x="518" 
d="M23 296v94h471v-94h-471z" />
    <glyph glyph-name="radical" unicode="&#x221a;" horiz-adv-x="579" 
d="M214 0l-109 287h-87v79h201l57 -201l145 499h139l-221 -664h-125z" />
    <glyph glyph-name="infinity" unicode="&#x221e;" horiz-adv-x="664" 
d="M332 260q-21 -39 -57.5 -62t-92.5 -23q-30 0 -56 10.5t-45.5 31t-30.5 51.5t-11 72q0 42 11.5 73.5t31 52t45.5 31t55 10.5q57 0 91 -23t59 -63q25 40 59 63t91 23q29 0 55 -10.5t45.5 -31t31 -52t11.5 -73.5q0 -41 -11 -72t-30.5 -51.5t-45.5 -31t-56 -10.5
q-56 0 -92.5 23t-57.5 62zM292 337q-17 32 -38.5 52.5t-54.5 20.5q-37 0 -55.5 -19.5t-18.5 -50.5q0 -72 74 -72q36 0 58.5 21t34.5 48zM372 337q12 -27 34.5 -48t58.5 -21q74 0 74 72q0 31 -18.5 50.5t-55.5 19.5q-33 0 -54.5 -20.5t-38.5 -52.5z" />
    <glyph glyph-name="integral" unicode="&#x222b;" horiz-adv-x="454" 
d="M43 -233v112h57q26 0 40 19t14 61v530q0 51 16 86t43 56.5t63.5 31t77.5 9.5h57v-112h-57q-26 0 -40 -19t-14 -61v-530q0 -51 -16 -86t-43 -56.5t-63.5 -31t-77.5 -9.5h-57z" />
    <glyph glyph-name="approxequal" unicode="&#x2248;" horiz-adv-x="550" 
d="M25 101zM525 186q-32 -35 -67 -51t-81 -16q-30 0 -57.5 9t-54 20t-52.5 20t-52 9q-42 0 -74 -19t-62 -57v101q22 26 54 46.5t78 20.5q36 0 66.5 -9t57.5 -19.5t52 -19.5t50 -9q42 0 76.5 16.5t65.5 58.5v-101zM525 425q-32 -35 -67 -51t-81 -16q-30 0 -57.5 9t-54 20
t-52.5 20t-52 9q-42 0 -74 -19t-62 -57v101q22 26 54 46.5t78 20.5q36 0 66.5 -9t57.5 -19.5t52 -19.5t50 -9q42 0 76.5 16.5t65.5 58.5v-101z" />
    <glyph glyph-name="notequal" unicode="&#x2260;" horiz-adv-x="518" 
d="M-6 -20l141 216h-112v94h174l69 106h-243v94h305l127 194h68l-128 -194h99v-94h-160l-70 -106h230v-94h-291l-142 -216h-67z" />
    <glyph glyph-name="lessequal" unicode="&#x2264;" horiz-adv-x="518" 
d="M23 0zM23 296v94l471 200v-104l-365 -143l365 -143v-104zM23 -13v94h471v-94h-471z" />
    <glyph glyph-name="greaterequal" unicode="&#x2265;" horiz-adv-x="518" 
d="M23 0zM23 96v104l365 143l-365 143v104l471 -200v-94zM23 -13v94h471v-94h-471z" />
    <glyph glyph-name="dotmath" unicode="&#x22c5;" horiz-adv-x="184" 
d="M23 265zM23 265v135h139v-135h-139z" />
    <glyph glyph-name="lozenge" unicode="&#x25ca;" horiz-adv-x="550" 
d="M209 0l-170 332l170 332h141l160 -332l-160 -332h-141zM380 332l-102 210l-104 -210l104 -210z" />
    <glyph glyph-name="uniE000" unicode="&#xe000;" horiz-adv-x="659" 
d="M894 -14q0 -55 -15 -96t-41.5 -68.5t-62 -41t-76.5 -13.5q-44 0 -80 14.5t-62 41t-40 63t-14 81.5v81q-29 -38 -73.5 -54.5t-113.5 -16.5q-68 0 -123.5 27.5t-95 75.5t-61 113t-21.5 140q0 73 21 137.5t62 112.5t102 75.5t142 27.5q59 0 110.5 -17t90 -47t62 -71.5
t27.5 -91.5h-140q-3 23 -16 43.5t-33 35.5t-46.5 24t-54.5 9q-84 0 -134.5 -62.5t-50.5 -181.5q0 -54 13.5 -97.5t37.5 -73.5t58 -46t75 -16q34 0 63.5 12t51.5 33t34.5 48.5t12.5 58.5h-147v111h277v-384q0 -51 21 -71t49 -20q32 0 51 25t19 79h121z" />
    <glyph glyph-name="uniE001" unicode="&#xe001;" horiz-adv-x="518" 
d="M260 98q109 0 109 160q0 63 -31.5 102t-78.5 39q-49 0 -80 -41.5t-31 -107.5q0 -152 112 -152zM364 -233v297q-55 -77 -146 -77q-48 0 -85.5 18.5t-63.5 52.5t-39.5 80.5t-13.5 102.5q0 62 16 111t44 83t67 52t86 18q92 0 137 -73l1 60h125v-725h-128z" />
    <glyph glyph-name="uniE002" unicode="&#xe002;" horiz-adv-x="459" 
d="M247 280l82 -83l-82 -84l-225 228l225 227l82 -83l-82 -82h189v-123h-189z" />
    <glyph glyph-name="uniE003" unicode="&#xe003;" horiz-adv-x="460" 
d="M127 197l83 83h-187v123h187l-83 82l83 83l227 -227l-227 -228z" />
    <glyph glyph-name="fi" unicode="&#xfb01;" horiz-adv-x="468" 
d="M77 0v400h-73v92h73q0 85 50 132.5t149 47.5h169v-121h-150q-24 0 -41 -1t-28 -7t-16 -18t-5 -33h84v-92h-84v-400h-128zM315 0v492h130v-492h-130z" />
    <glyph glyph-name="fl" unicode="&#xfb02;" horiz-adv-x="471" 
d="M315 0v400h-110v-400h-128v400h-73v92h73q0 180 209 180v-105q-25 0 -40.5 -3.5t-24.5 -12.5t-12.5 -23.5t-3.5 -35.5h110v180h130v-672h-130z" />
    <glyph glyph-name="circumflexhook" horiz-adv-x="541" 
d="M382 581q0 17 5 30.5t20 22.5q11 6 17 12t6 18q0 17 -24 17q-8 0 -18 -3t-23 -12l-18 55q15 13 35.5 19t34.5 6q35 0 54.5 -16.5t19.5 -44.5q0 -21 -9 -33.5t-20.5 -22t-20.5 -20t-9 -28.5h-50zM206 672l-116 -101l-40 44l110 115h91l110 -115l-39 -44z" />
    <glyph glyph-name="breveacute" horiz-adv-x="323" 
d="M273 668q0 -29 -9.5 -50t-25 -35.5t-36 -21.5t-41.5 -7t-41 7t-35.5 21.5t-25 35.5t-9.5 50h57q0 -29 14.5 -44.5t39.5 -15.5q26 0 40 15.5t15 44.5h57zM133 644l-18 33l119 69l27 -47z" />
    <glyph glyph-name="brevetilde" horiz-adv-x="323" 
d="M253 736q-6 -28 -21 -41t-32 -13q-10 0 -18.5 3.5t-16.5 7.5t-16.5 7.5t-17.5 3.5q-5 0 -8.5 -4.5t-8.5 -18.5l-37 18q8 25 21 35t30 10q10 0 18.5 -3.5t17 -8t17 -8t18.5 -3.5q12 0 15 25zM273 668q0 -29 -9.5 -50t-25 -35.5t-35.5 -21.5t-41 -7t-41.5 7t-36 21.5
t-25 35.5t-9.5 50h57q1 -29 15 -44.5t40 -15.5q25 0 39.5 15.5t14.5 44.5h57z" />
    <glyph glyph-name="brevehook" horiz-adv-x="323" 
d="M273 668q0 -29 -9.5 -50t-25 -35.5t-35.5 -21.5t-41 -7t-41.5 7t-36 21.5t-25 35.5t-9.5 50h57q1 -29 15 -44.5t40 -15.5q25 0 39.5 15.5t14.5 44.5h57zM136 623q0 13 4 23t15 17q8 5 12.5 9t4.5 13q0 13 -18 13q-13 0 -31 -11l-13 40q11 10 26 14.5t26 4.5
q26 0 40.5 -12.5t14.5 -32.5q0 -16 -7 -25t-15 -16.5t-15 -15.5t-7 -21h-37z" />
    <glyph glyph-name="circumflexacute" horiz-adv-x="649" 
d="M205 672l-116 -101l-39 44l110 115h91l110 -115l-40 -44zM414 584l-25 46l171 100l39 -68z" />
    <glyph glyph-name="gravecircumflex" horiz-adv-x="649" 
d="M444 672l-116 -101l-40 44l110 115h91l110 -115l-39 -44zM50 662l39 68l171 -100l-25 -46z" />
    <glyph glyph-name="brevegrave" horiz-adv-x="323" 
d="M273 668q0 -29 -9.5 -50t-25 -35.5t-35.5 -21.5t-41 -7t-41.5 7t-36 21.5t-25 35.5t-9.5 50h57q1 -29 15 -44.5t40 -15.5q25 0 39.5 15.5t14.5 44.5h57zM62 699l27 47l119 -69l-18 -33z" />
    <glyph glyph-name=".ttfautohint" horiz-adv-x="247" 
d="M0 0z" />
    </font>
</defs>
</svg>
